<?xml version="1.0" encoding="utf-8"?>
<!-- Generator: Adobe Illustrator 24.0.1, SVG Export Plug-In . SVG Version: 6.00 Build 0)  -->
<svg version="1.1" id="Layer_1" xmlns="http://www.w3.org/2000/svg" xmlns:xlink="http://www.w3.org/1999/xlink" x="0px" y="0px"
	 viewBox="0 0 3000 2000" style="enable-background:new 0 0 3000 2000;" xml:space="preserve">
<style type="text/css">
	.st0{fill:#41BD4B;}
	.st1{fill:#1A8920;}
	.st2{fill:url(#SVGID_1_);}
	.st3{fill:url(#SVGID_2_);}
	.st4{fill:url(#SVGID_3_);}
	.st5{fill:url(#SVGID_4_);}
	.st6{fill:url(#SVGID_5_);}
	.st7{fill:url(#SVGID_6_);}
	.st8{fill:url(#SVGID_7_);}
	.st9{fill:url(#SVGID_8_);}
	.st10{fill:url(#SVGID_9_);}
	.st11{fill:url(#SVGID_10_);}
	.st12{fill:url(#SVGID_11_);}
	.st13{fill:url(#SVGID_12_);}
	.st14{fill:url(#SVGID_13_);}
	.st15{fill:url(#SVGID_14_);}
	.st16{fill:url(#SVGID_15_);}
	.st17{fill:url(#SVGID_16_);}
	.st18{fill:#3AC7E8;}
	.st19{fill:#1895D3;}
	.st20{fill:url(#SVGID_17_);}
	.st21{fill:url(#SVGID_18_);}
	.st22{fill:url(#SVGID_19_);}
	.st23{fill:url(#SVGID_20_);}
	.st24{fill:url(#SVGID_21_);}
	.st25{fill:url(#SVGID_22_);}
	.st26{fill:url(#SVGID_23_);}
	.st27{fill:url(#SVGID_24_);}
	.st28{fill:url(#SVGID_25_);}
	.st29{fill:url(#SVGID_26_);}
	.st30{fill:url(#SVGID_27_);}
	.st31{fill:url(#SVGID_28_);}
	.st32{fill:url(#SVGID_29_);}
	.st33{fill:url(#SVGID_30_);}
	.st34{fill:url(#SVGID_31_);}
	.st35{fill:url(#SVGID_32_);}
</style>
<g>
	<g>
		<path class="st0" d="M4791.49,719.23c0,0,108.83-270.21,378.08-106.19c0,0-44.23-13.2-111.57,93.11
			c-7.83,11.56-16.27,22.71-25.88,32.83c-46.58,49.1-110.19,82.61-198.36,49.55c0,0,14.76-43.06,101.35-116.17
			C4935.11,672.36,4868.73,658.82,4791.49,719.23z"/>
		<path class="st1" d="M5162.04,612.62c-15.32,1.05-53.07,13.05-104.05,93.52c-7.83,11.57-16.27,22.71-25.87,32.84
			c-46.58,49.1-110.18,82.61-198.35,49.55c0,0,14.76-43.07,101.35-116.17C4935.11,672.37,5064.66,608.69,5162.04,612.62z"/>
	</g>
	<path class="st0" d="M4661.37,701.13c0,0-40.86-440.97-495.53-340.14c0,0,86.31,65.29,115.07,189.73
		c3.54,15.34,8.1,30.44,14.17,44.96c4.29,10.27,9.02,20.35,14.32,30.14c49.11,90.65,135.67,155.75,278.44,142
		c0,0-10.93-59.83-109.39-201.64C4478.45,566.18,4571.63,581.71,4661.37,701.13z"/>
	<path class="st1" d="M4587.84,767.82c-142.77,13.74-229.32-51.36-278.44-142c-5.3-9.79-10.02-19.88-14.32-30.14
		c-6.08-14.52-10.63-29.63-14.19-44.97c-28.74-124.44-115.06-189.72-115.06-189.72s156.56,29.22,312.62,205.2
		C4576.92,707.99,4587.84,767.82,4587.84,767.82z"/>
	<g>
		
			<linearGradient id="SVGID_1_" gradientUnits="userSpaceOnUse" x1="4036.605" y1="1451.1746" x2="4036.605" y2="1514.5197" gradientTransform="matrix(1 7.974698e-03 -7.974698e-03 1 10.6435 -11.6497)">
			<stop  offset="0" style="stop-color:#41BD4B"/>
			<stop  offset="1" style="stop-color:#27292B"/>
		</linearGradient>
		<path class="st2" d="M4055.94,1512.19l-0.08,9.94l-41.42-0.33l0.43-53.5l40.43,0.32l-0.08,9.94l-28.13-0.22l-0.09,11.62l24.84,0.2
			l-0.08,9.63l-24.84-0.2l-0.1,12.38L4055.94,1512.19z"/>
		
			<linearGradient id="SVGID_2_" gradientUnits="userSpaceOnUse" x1="4090.6016" y1="1451.1746" x2="4090.6016" y2="1514.5197" gradientTransform="matrix(1 7.974698e-03 -7.974698e-03 1 10.6435 -11.6497)">
			<stop  offset="0" style="stop-color:#41BD4B"/>
			<stop  offset="1" style="stop-color:#27292B"/>
		</linearGradient>
		<path class="st3" d="M4069.96,1468.74l12.38,0.1l-0.35,43.41l26.83,0.21l-0.08,10.09l-39.21-0.31L4069.96,1468.74z"/>
		
			<linearGradient id="SVGID_3_" gradientUnits="userSpaceOnUse" x1="4144.4067" y1="1451.1746" x2="4144.4067" y2="1514.5197" gradientTransform="matrix(1 7.974698e-03 -7.974698e-03 1 10.6435 -11.6497)">
			<stop  offset="0" style="stop-color:#41BD4B"/>
			<stop  offset="1" style="stop-color:#27292B"/>
		</linearGradient>
		<path class="st4" d="M4155.3,1511.45l-24.84-0.2l-4.83,11.43l-12.69-0.1l24.27-53.31l12.23,0.1l23.5,53.69l-12.99-0.1
			L4155.3,1511.45z M4151.48,1502.02l-8.32-20.55l-8.65,20.42L4151.48,1502.02z"/>
		
			<linearGradient id="SVGID_4_" gradientUnits="userSpaceOnUse" x1="4210.708" y1="1451.1746" x2="4210.708" y2="1514.5197" gradientTransform="matrix(1 7.974698e-03 -7.974698e-03 1 10.6435 -11.6497)">
			<stop  offset="0" style="stop-color:#41BD4B"/>
			<stop  offset="1" style="stop-color:#27292B"/>
		</linearGradient>
		<path class="st5" d="M4182.77,1469.64l24.3,0.19c5.81,0.05,10.93,1.2,15.37,3.45c4.44,2.25,7.88,5.4,10.32,9.45
			c2.44,4.05,3.64,8.74,3.59,14.09c-0.04,5.35-1.32,10.03-3.82,14.03c-2.5,4.01-5.99,7.1-10.47,9.28c-4.48,2.18-9.62,3.25-15.43,3.2
			l-24.3-0.19L4182.77,1469.64z M4206.11,1513.16c5.35,0.04,9.63-1.41,12.84-4.37c3.21-2.96,4.83-6.98,4.87-12.08
			c0.04-5.09-1.52-9.15-4.68-12.15c-3.16-3.01-7.42-4.53-12.77-4.57l-11.31-0.09l-0.26,33.17L4206.11,1513.16z"/>
		
			<linearGradient id="SVGID_5_" gradientUnits="userSpaceOnUse" x1="4271.4683" y1="1451.1746" x2="4271.4683" y2="1514.5197" gradientTransform="matrix(1 7.974698e-03 -7.974698e-03 1 10.6435 -11.6497)">
			<stop  offset="0" style="stop-color:#41BD4B"/>
			<stop  offset="1" style="stop-color:#27292B"/>
		</linearGradient>
		<path class="st6" d="M4290.79,1514.06l-0.08,9.94l-41.42-0.33l0.43-53.5l40.43,0.32l-0.08,9.94l-28.13-0.22l-0.09,11.62l24.84,0.2
			l-0.08,9.63l-24.84-0.2l-0.1,12.38L4290.79,1514.06z"/>
		
			<linearGradient id="SVGID_6_" gradientUnits="userSpaceOnUse" x1="4350.9146" y1="1451.1746" x2="4350.9146" y2="1514.5197" gradientTransform="matrix(1 7.974698e-03 -7.974698e-03 1 10.6435 -11.6497)">
			<stop  offset="0" style="stop-color:#41BD4B"/>
			<stop  offset="1" style="stop-color:#27292B"/>
		</linearGradient>
		<path class="st7" d="M4330.27,1470.81l12.38,0.1l-0.35,43.41l26.83,0.21l-0.08,10.09l-39.21-0.31L4330.27,1470.81z"/>
		
			<linearGradient id="SVGID_7_" gradientUnits="userSpaceOnUse" x1="4404.7192" y1="1451.1746" x2="4404.7192" y2="1514.5197" gradientTransform="matrix(1 7.974698e-03 -7.974698e-03 1 10.6435 -11.6497)">
			<stop  offset="0" style="stop-color:#41BD4B"/>
			<stop  offset="1" style="stop-color:#27292B"/>
		</linearGradient>
		<path class="st8" d="M4415.61,1513.53l-24.84-0.2l-4.83,11.43l-12.69-0.1l24.27-53.31l12.23,0.1l23.49,53.69l-12.99-0.1
			L4415.61,1513.53z M4411.78,1504.1l-8.32-20.55l-8.65,20.42L4411.78,1504.1z"/>
		
			<linearGradient id="SVGID_8_" gradientUnits="userSpaceOnUse" x1="4468.6509" y1="1451.1746" x2="4468.6509" y2="1514.5197" gradientTransform="matrix(1 7.974698e-03 -7.974698e-03 1 10.6435 -11.6497)">
			<stop  offset="0" style="stop-color:#41BD4B"/>
			<stop  offset="1" style="stop-color:#27292B"/>
		</linearGradient>
		<path class="st9" d="M4492.14,1472.1l-0.43,53.5l-10.17-0.08l-26.41-32.69l-0.26,32.48l-12.23-0.1l0.43-53.5l10.24,0.08
			l26.34,32.69l0.26-32.48L4492.14,1472.1z"/>
		
			<linearGradient id="SVGID_9_" gradientUnits="userSpaceOnUse" x1="4536.5967" y1="1451.1746" x2="4536.5967" y2="1514.5197" gradientTransform="matrix(1 7.974698e-03 -7.974698e-03 1 10.6435 -11.6497)">
			<stop  offset="0" style="stop-color:#41BD4B"/>
			<stop  offset="1" style="stop-color:#27292B"/>
		</linearGradient>
		<path class="st10" d="M4508.65,1472.23l24.3,0.19c5.81,0.05,10.93,1.2,15.37,3.45c4.44,2.25,7.88,5.4,10.32,9.45
			c2.44,4.05,3.64,8.74,3.59,14.09c-0.04,5.35-1.32,10.03-3.82,14.03c-2.5,4.01-5.99,7.1-10.47,9.28c-4.48,2.18-9.62,3.25-15.43,3.2
			l-24.3-0.19L4508.65,1472.23z M4531.99,1515.76c5.35,0.04,9.63-1.41,12.84-4.37c3.21-2.96,4.83-6.98,4.87-12.08
			c0.04-5.09-1.52-9.15-4.68-12.15c-3.16-3.01-7.42-4.53-12.77-4.57l-11.31-0.09l-0.26,33.17L4531.99,1515.76z"/>
		
			<linearGradient id="SVGID_10_" gradientUnits="userSpaceOnUse" x1="4594.6826" y1="1451.1746" x2="4594.6826" y2="1514.5197" gradientTransform="matrix(1 7.974698e-03 -7.974698e-03 1 10.6435 -11.6497)">
			<stop  offset="0" style="stop-color:#41BD4B"/>
			<stop  offset="1" style="stop-color:#27292B"/>
		</linearGradient>
		<path class="st11" d="M4580.49,1525.51c-3.94-1.18-7.1-2.69-9.48-4.55l4.28-9.29c2.28,1.7,4.99,3.07,8.15,4.12
			c3.15,1.04,6.31,1.58,9.46,1.6c3.52,0.03,6.12-0.47,7.81-1.5c1.69-1.03,2.54-2.41,2.56-4.15c0.01-1.27-0.48-2.33-1.46-3.18
			c-0.99-0.85-2.26-1.53-3.81-2.06c-1.55-0.52-3.65-1.1-6.29-1.73c-4.07-1-7.4-1.99-9.99-2.98c-2.59-0.99-4.81-2.56-6.65-4.72
			c-1.84-2.15-2.75-5.01-2.72-8.58c0.02-3.11,0.89-5.92,2.59-8.43c1.7-2.51,4.25-4.49,7.65-5.94c3.4-1.45,7.54-2.16,12.44-2.12
			c3.41,0.03,6.75,0.46,10,1.3c3.25,0.84,6.1,2.04,8.53,3.58l-3.9,9.37c-4.92-2.84-9.85-4.28-14.79-4.32
			c-3.47-0.03-6.03,0.51-7.69,1.62c-1.67,1.11-2.5,2.58-2.52,4.41c-0.01,1.83,0.93,3.21,2.83,4.11c1.9,0.91,4.81,1.81,8.73,2.71
			c4.07,1,7.4,2,9.99,2.98c2.59,0.99,4.81,2.53,6.65,4.64c1.84,2.1,2.75,4.94,2.72,8.51c-0.02,3.06-0.9,5.84-2.63,8.35
			c-1.73,2.51-4.3,4.49-7.73,5.94c-3.43,1.45-7.58,2.16-12.48,2.12C4588.51,1527.29,4584.43,1526.68,4580.49,1525.51z"/>
		
			<linearGradient id="SVGID_11_" gradientUnits="userSpaceOnUse" x1="4651.3911" y1="1451.1746" x2="4651.3911" y2="1514.5197" gradientTransform="matrix(1 7.974698e-03 -7.974698e-03 1 10.6435 -11.6497)">
			<stop  offset="0" style="stop-color:#41BD4B"/>
			<stop  offset="1" style="stop-color:#27292B"/>
		</linearGradient>
		<path class="st12" d="M4638.58,1524.14c-4.39-2.4-7.83-5.72-10.32-9.94c-2.49-4.22-3.71-8.98-3.67-14.28
			c0.04-5.3,1.34-10.04,3.9-14.22c2.56-4.18,6.05-7.44,10.47-9.78c4.43-2.33,9.39-3.48,14.89-3.44c4.64,0.04,8.82,0.89,12.55,2.55
			c3.73,1.66,6.86,4.03,9.38,7.11l-8.01,7.27c-3.58-4.21-8.05-6.33-13.4-6.37c-3.31-0.03-6.27,0.68-8.88,2.11
			c-2.61,1.43-4.65,3.44-6.12,6.03c-1.47,2.59-2.22,5.54-2.25,8.85c-0.03,3.31,0.68,6.27,2.11,8.88c1.43,2.61,3.44,4.65,6.03,6.12
			c2.59,1.47,5.54,2.22,8.85,2.25c5.35,0.04,9.85-2.04,13.5-6.24l7.89,7.4c-2.57,3.09-5.75,5.43-9.53,7.03
			c-3.78,1.6-7.99,2.38-12.63,2.35C4647.89,1527.76,4642.97,1526.54,4638.58,1524.14z"/>
		
			<linearGradient id="SVGID_12_" gradientUnits="userSpaceOnUse" x1="4710.9673" y1="1451.1746" x2="4710.9673" y2="1514.5197" gradientTransform="matrix(1 7.974698e-03 -7.974698e-03 1 10.6435 -11.6497)">
			<stop  offset="0" style="stop-color:#41BD4B"/>
			<stop  offset="1" style="stop-color:#27292B"/>
		</linearGradient>
		<path class="st13" d="M4721.84,1515.97l-24.84-0.2l-4.83,11.43l-12.69-0.1l24.27-53.31l12.23,0.1l23.49,53.69l-12.99-0.1
			L4721.84,1515.97z M4718.02,1506.54l-8.32-20.55l-8.65,20.42L4718.02,1506.54z"/>
		
			<linearGradient id="SVGID_13_" gradientUnits="userSpaceOnUse" x1="4773.562" y1="1451.1746" x2="4773.562" y2="1514.5197" gradientTransform="matrix(1 7.974698e-03 -7.974698e-03 1 10.6435 -11.6497)">
			<stop  offset="0" style="stop-color:#41BD4B"/>
			<stop  offset="1" style="stop-color:#27292B"/>
		</linearGradient>
		<path class="st14" d="M4784.79,1476.81c3.48,1.61,6.15,3.87,8.01,6.79c1.86,2.92,2.78,6.37,2.75,10.34
			c-0.03,3.92-1,7.34-2.91,10.26c-1.91,2.92-4.62,5.14-8.12,6.66c-3.5,1.53-7.62,2.27-12.36,2.23l-10.78-0.09l-0.12,14.75
			l-12.38-0.1l0.43-53.5l23.16,0.18C4777.21,1474.38,4781.31,1475.2,4784.79,1476.81z M4780.05,1500.65
			c1.95-1.59,2.94-3.86,2.96-6.82c0.02-3.01-0.93-5.32-2.85-6.94c-1.92-1.62-4.75-2.45-8.46-2.47l-10.09-0.08l-0.15,18.57
			l10.09,0.08C4775.27,1503.02,4778.1,1502.24,4780.05,1500.65z"/>
		
			<linearGradient id="SVGID_14_" gradientUnits="userSpaceOnUse" x1="4815.5596" y1="1451.1746" x2="4815.5596" y2="1514.5197" gradientTransform="matrix(1 7.974698e-03 -7.974698e-03 1 10.6435 -11.6497)">
			<stop  offset="0" style="stop-color:#41BD4B"/>
			<stop  offset="1" style="stop-color:#27292B"/>
		</linearGradient>
		<path class="st15" d="M4808.31,1474.62l12.38,0.1l-0.43,53.5l-12.38-0.1L4808.31,1474.62z"/>
		
			<linearGradient id="SVGID_15_" gradientUnits="userSpaceOnUse" x1="4862.792" y1="1451.1746" x2="4862.792" y2="1514.5197" gradientTransform="matrix(1 7.974698e-03 -7.974698e-03 1 10.6435 -11.6497)">
			<stop  offset="0" style="stop-color:#41BD4B"/>
			<stop  offset="1" style="stop-color:#27292B"/>
		</linearGradient>
		<path class="st16" d="M4886.27,1475.25l-0.43,53.5l-10.17-0.08l-26.41-32.69l-0.26,32.48l-12.23-0.1l0.43-53.5l10.24,0.08
			l26.34,32.69l0.26-32.48L4886.27,1475.25z"/>
		
			<linearGradient id="SVGID_16_" gradientUnits="userSpaceOnUse" x1="4926.3804" y1="1451.1746" x2="4926.3804" y2="1514.5197" gradientTransform="matrix(1 7.974698e-03 -7.974698e-03 1 10.6435 -11.6497)">
			<stop  offset="0" style="stop-color:#41BD4B"/>
			<stop  offset="1" style="stop-color:#27292B"/>
		</linearGradient>
		<path class="st17" d="M4938.72,1501.57l11.31,0.09l-0.17,21.71c-2.92,2.17-6.3,3.82-10.13,4.96c-3.83,1.14-7.68,1.7-11.55,1.67
			c-5.55-0.04-10.54-1.27-14.95-3.67c-4.41-2.4-7.87-5.72-10.35-9.94c-2.49-4.22-3.71-8.98-3.67-14.28
			c0.04-5.3,1.34-10.04,3.9-14.22c2.56-4.18,6.08-7.44,10.59-9.77c4.5-2.33,9.56-3.48,15.16-3.43c4.69,0.04,8.94,0.86,12.74,2.47
			c3.81,1.61,7,3.93,9.57,6.96l-8.01,7.27c-3.79-4.06-8.39-6.11-13.79-6.15c-3.41-0.03-6.45,0.66-9.11,2.07
			c-2.66,1.41-4.74,3.4-6.24,5.99c-1.5,2.59-2.26,5.56-2.29,8.92c-0.03,3.31,0.69,6.27,2.15,8.88c1.46,2.61,3.49,4.65,6.1,6.12
			c2.61,1.47,5.6,2.22,8.96,2.25c3.57,0.03,6.78-0.71,9.65-2.22L4938.72,1501.57z"/>
	</g>
	<g>
		<path class="st0" d="M4499.18,889.15c0,36.14-14.66,68.89-38.35,92.58c-23.69,23.69-56.42,38.35-92.58,38.35h-307.16
			c0-36.16,14.66-68.89,38.35-92.59c23.69-23.69,56.42-38.35,92.58-38.35H4499.18z"/>
		<path class="st1" d="M4499.18,889.13c0,36.16-14.66,68.89-38.35,92.58c-23.69,23.69-56.44,38.35-92.58,38.35h-307.16
			c0,0,50.84-65.46,219.04-65.46S4499.18,889.13,4499.18,889.13z"/>
		<path d="M4376.36,1087.64c0,36.16-14.66,68.89-38.35,92.58c-23.69,23.69-56.44,38.35-92.58,38.35h-184.34
			c0-36.14,14.66-68.89,38.35-92.58c23.69-23.69,56.42-38.35,92.58-38.35H4376.36z"/>
		<path d="M4417.32,1286.13c0,36.16-14.66,68.89-38.35,92.58c-23.69,23.69-56.42,38.35-92.58,38.35h-266.27
			c0-36.16,14.66-68.89,38.35-92.58c23.69-23.69,56.44-38.35,92.58-38.35H4417.32z"/>
	</g>
	<path d="M4748,1319.82c-17.99,0-31.85-15.86-29.44-33.69l46.3-356.05l6.14-41.44c13.13-141.81,120.28-200.51,120.28-200.51
		s-124.98,38.69-171.38,192.81c0,0-36.58-130.54-186.28-271.3c0,0,77.46,102.67,115.72,230.48c14.08,47.02,17.74,96.55,11.16,145.2
		l-40.09,302.09c-9.31,68.88,44.25,130.16,113.76,130.16h176.8l54.7-97.76H4748z"/>
</g>
<g>
	<g>
		<path class="st18" d="M1699.49,719.23c0,0,108.83-270.21,378.08-106.19c0,0-44.23-13.2-111.57,93.11
			c-7.83,11.56-16.27,22.71-25.88,32.83c-46.58,49.1-110.19,82.61-198.36,49.55c0,0,14.76-43.06,101.35-116.17
			C1843.11,672.36,1776.73,658.82,1699.49,719.23z"/>
		<path class="st19" d="M2070.04,612.62c-15.32,1.05-53.07,13.05-104.05,93.52c-7.83,11.57-16.27,22.71-25.87,32.84
			c-46.58,49.1-110.18,82.61-198.35,49.55c0,0,14.76-43.07,101.35-116.17C1843.11,672.37,1972.66,608.69,2070.04,612.62z"/>
	</g>
	<path class="st18" d="M1569.37,701.13c0,0-40.86-440.97-495.53-340.14c0,0,86.31,65.29,115.07,189.73
		c3.54,15.34,8.1,30.44,14.17,44.96c4.29,10.27,9.02,20.35,14.32,30.14c49.11,90.65,135.67,155.75,278.44,142
		c0,0-10.93-59.83-109.39-201.64C1386.45,566.18,1479.63,581.71,1569.37,701.13z"/>
	<path class="st19" d="M1495.84,767.82c-142.77,13.74-229.32-51.36-278.44-142c-5.3-9.79-10.02-19.88-14.32-30.14
		c-6.08-14.52-10.63-29.63-14.19-44.97c-28.74-124.44-115.06-189.72-115.06-189.72s156.56,29.22,312.62,205.2
		C1484.92,707.99,1495.84,767.82,1495.84,767.82z"/>
	<g>
		
			<linearGradient id="SVGID_17_" gradientUnits="userSpaceOnUse" x1="944.7034" y1="1475.8323" x2="944.7034" y2="1539.1775" gradientTransform="matrix(1 7.974698e-03 -7.974698e-03 1 10.6435 -11.6497)">
			<stop  offset="0" style="stop-color:#3AC7E8"/>
			<stop  offset="1" style="stop-color:#27292B"/>
		</linearGradient>
		<path class="st20" d="M963.94,1512.19l-0.08,9.94l-41.42-0.33l0.43-53.5l40.43,0.32l-0.08,9.94l-28.13-0.22l-0.09,11.62l24.84,0.2
			l-0.08,9.63l-24.84-0.2l-0.1,12.38L963.94,1512.19z"/>
		
			<linearGradient id="SVGID_18_" gradientUnits="userSpaceOnUse" x1="998.7" y1="1475.8323" x2="998.7" y2="1539.1775" gradientTransform="matrix(1 7.974698e-03 -7.974698e-03 1 10.6435 -11.6497)">
			<stop  offset="0" style="stop-color:#3AC7E8"/>
			<stop  offset="1" style="stop-color:#27292B"/>
		</linearGradient>
		<path class="st21" d="M977.96,1468.74l12.38,0.1l-0.35,43.41l26.83,0.21l-0.08,10.09l-39.21-0.31L977.96,1468.74z"/>
		
			<linearGradient id="SVGID_19_" gradientUnits="userSpaceOnUse" x1="1052.5049" y1="1475.8323" x2="1052.5049" y2="1539.1775" gradientTransform="matrix(1 7.974698e-03 -7.974698e-03 1 10.6435 -11.6497)">
			<stop  offset="0" style="stop-color:#3AC7E8"/>
			<stop  offset="1" style="stop-color:#27292B"/>
		</linearGradient>
		<path class="st22" d="M1063.3,1511.45l-24.84-0.2l-4.83,11.43l-12.69-0.1l24.27-53.31l12.23,0.1l23.5,53.69l-12.99-0.1
			L1063.3,1511.45z M1059.48,1502.02l-8.32-20.55l-8.65,20.42L1059.48,1502.02z"/>
		
			<linearGradient id="SVGID_20_" gradientUnits="userSpaceOnUse" x1="1118.8065" y1="1475.8323" x2="1118.8065" y2="1539.1775" gradientTransform="matrix(1 7.974698e-03 -7.974698e-03 1 10.6435 -11.6497)">
			<stop  offset="0" style="stop-color:#3AC7E8"/>
			<stop  offset="1" style="stop-color:#27292B"/>
		</linearGradient>
		<path class="st23" d="M1090.77,1469.64l24.3,0.19c5.81,0.05,10.93,1.2,15.37,3.45c4.44,2.25,7.88,5.4,10.32,9.45
			c2.44,4.05,3.64,8.74,3.59,14.09c-0.04,5.35-1.32,10.03-3.82,14.03c-2.5,4.01-5.99,7.1-10.47,9.28c-4.48,2.18-9.62,3.25-15.43,3.2
			l-24.3-0.19L1090.77,1469.64z M1114.11,1513.16c5.35,0.04,9.63-1.41,12.84-4.37c3.21-2.96,4.83-6.98,4.87-12.08
			c0.04-5.09-1.52-9.15-4.68-12.15c-3.16-3.01-7.42-4.53-12.77-4.57l-11.31-0.09l-0.26,33.17L1114.11,1513.16z"/>
		
			<linearGradient id="SVGID_21_" gradientUnits="userSpaceOnUse" x1="1179.5665" y1="1475.8323" x2="1179.5665" y2="1539.1775" gradientTransform="matrix(1 7.974698e-03 -7.974698e-03 1 10.6435 -11.6497)">
			<stop  offset="0" style="stop-color:#3AC7E8"/>
			<stop  offset="1" style="stop-color:#27292B"/>
		</linearGradient>
		<path class="st24" d="M1198.79,1514.06l-0.08,9.94l-41.42-0.33l0.43-53.5l40.43,0.32l-0.08,9.94l-28.13-0.22l-0.09,11.62
			l24.84,0.2l-0.08,9.63l-24.84-0.2l-0.1,12.38L1198.79,1514.06z"/>
		
			<linearGradient id="SVGID_22_" gradientUnits="userSpaceOnUse" x1="1259.0127" y1="1475.8323" x2="1259.0127" y2="1539.1775" gradientTransform="matrix(1 7.974698e-03 -7.974698e-03 1 10.6435 -11.6497)">
			<stop  offset="0" style="stop-color:#3AC7E8"/>
			<stop  offset="1" style="stop-color:#27292B"/>
		</linearGradient>
		<path class="st25" d="M1238.27,1470.81l12.38,0.1l-0.35,43.41l26.83,0.21l-0.08,10.09l-39.21-0.31L1238.27,1470.81z"/>
		
			<linearGradient id="SVGID_23_" gradientUnits="userSpaceOnUse" x1="1312.8176" y1="1475.8323" x2="1312.8176" y2="1539.1775" gradientTransform="matrix(1 7.974698e-03 -7.974698e-03 1 10.6435 -11.6497)">
			<stop  offset="0" style="stop-color:#3AC7E8"/>
			<stop  offset="1" style="stop-color:#27292B"/>
		</linearGradient>
		<path class="st26" d="M1323.61,1513.53l-24.84-0.2l-4.83,11.43l-12.69-0.1l24.27-53.31l12.23,0.1l23.49,53.69l-12.99-0.1
			L1323.61,1513.53z M1319.78,1504.1l-8.32-20.55l-8.65,20.42L1319.78,1504.1z"/>
		
			<linearGradient id="SVGID_24_" gradientUnits="userSpaceOnUse" x1="1376.7493" y1="1475.8323" x2="1376.7493" y2="1539.1775" gradientTransform="matrix(1 7.974698e-03 -7.974698e-03 1 10.6435 -11.6497)">
			<stop  offset="0" style="stop-color:#3AC7E8"/>
			<stop  offset="1" style="stop-color:#27292B"/>
		</linearGradient>
		<path class="st27" d="M1400.14,1472.1l-0.43,53.5l-10.17-0.08l-26.41-32.69l-0.26,32.48l-12.23-0.1l0.43-53.5l10.24,0.08
			l26.34,32.69l0.26-32.48L1400.14,1472.1z"/>
		
			<linearGradient id="SVGID_25_" gradientUnits="userSpaceOnUse" x1="1444.6951" y1="1475.8323" x2="1444.6951" y2="1539.1775" gradientTransform="matrix(1 7.974698e-03 -7.974698e-03 1 10.6435 -11.6497)">
			<stop  offset="0" style="stop-color:#3AC7E8"/>
			<stop  offset="1" style="stop-color:#27292B"/>
		</linearGradient>
		<path class="st28" d="M1416.65,1472.23l24.3,0.19c5.81,0.05,10.93,1.2,15.37,3.45c4.44,2.25,7.88,5.4,10.32,9.45
			c2.44,4.05,3.64,8.74,3.59,14.09c-0.04,5.35-1.32,10.03-3.82,14.03c-2.5,4.01-5.99,7.1-10.47,9.28c-4.48,2.18-9.62,3.25-15.43,3.2
			l-24.3-0.19L1416.65,1472.23z M1439.99,1515.76c5.35,0.04,9.63-1.41,12.84-4.37c3.21-2.96,4.83-6.98,4.87-12.08
			c0.04-5.09-1.52-9.15-4.68-12.15c-3.16-3.01-7.42-4.53-12.77-4.57l-11.31-0.09l-0.26,33.17L1439.99,1515.76z"/>
		
			<linearGradient id="SVGID_26_" gradientUnits="userSpaceOnUse" x1="1502.7808" y1="1475.8323" x2="1502.7808" y2="1539.1775" gradientTransform="matrix(1 7.974698e-03 -7.974698e-03 1 10.6435 -11.6497)">
			<stop  offset="0" style="stop-color:#3AC7E8"/>
			<stop  offset="1" style="stop-color:#27292B"/>
		</linearGradient>
		<path class="st29" d="M1488.49,1525.51c-3.94-1.18-7.1-2.69-9.48-4.55l4.28-9.29c2.28,1.7,4.99,3.07,8.15,4.12
			c3.15,1.04,6.31,1.58,9.46,1.6c3.52,0.03,6.12-0.47,7.81-1.5c1.69-1.03,2.54-2.41,2.56-4.15c0.01-1.27-0.48-2.33-1.46-3.18
			c-0.99-0.85-2.26-1.53-3.81-2.06c-1.55-0.52-3.65-1.1-6.29-1.73c-4.07-1-7.4-1.99-9.99-2.98c-2.59-0.99-4.81-2.56-6.65-4.72
			c-1.84-2.15-2.75-5.01-2.72-8.58c0.02-3.11,0.89-5.92,2.59-8.43c1.7-2.51,4.25-4.49,7.65-5.94c3.4-1.45,7.55-2.16,12.44-2.12
			c3.41,0.03,6.75,0.46,10,1.3c3.25,0.84,6.1,2.04,8.53,3.58l-3.9,9.37c-4.92-2.84-9.85-4.28-14.79-4.32
			c-3.47-0.03-6.03,0.51-7.69,1.62c-1.67,1.11-2.51,2.58-2.52,4.41c-0.01,1.83,0.93,3.21,2.83,4.11c1.9,0.91,4.81,1.81,8.73,2.71
			c4.07,1,7.4,2,9.99,2.98c2.59,0.99,4.81,2.53,6.65,4.64c1.84,2.1,2.75,4.94,2.72,8.51c-0.02,3.06-0.9,5.84-2.63,8.35
			c-1.73,2.51-4.3,4.49-7.73,5.94c-3.43,1.45-7.58,2.16-12.48,2.12C1496.51,1527.29,1492.43,1526.68,1488.49,1525.51z"/>
		
			<linearGradient id="SVGID_27_" gradientUnits="userSpaceOnUse" x1="1559.4895" y1="1475.8323" x2="1559.4895" y2="1539.1775" gradientTransform="matrix(1 7.974698e-03 -7.974698e-03 1 10.6435 -11.6497)">
			<stop  offset="0" style="stop-color:#3AC7E8"/>
			<stop  offset="1" style="stop-color:#27292B"/>
		</linearGradient>
		<path class="st30" d="M1546.58,1524.14c-4.39-2.4-7.83-5.72-10.32-9.94c-2.49-4.22-3.71-8.98-3.67-14.28
			c0.04-5.3,1.34-10.04,3.9-14.22c2.56-4.18,6.05-7.44,10.47-9.78c4.43-2.33,9.39-3.48,14.89-3.44c4.64,0.04,8.82,0.89,12.55,2.55
			c3.73,1.66,6.86,4.03,9.38,7.11l-8.01,7.27c-3.58-4.21-8.05-6.33-13.4-6.37c-3.31-0.03-6.27,0.68-8.88,2.11
			c-2.61,1.43-4.65,3.44-6.12,6.03c-1.47,2.59-2.22,5.54-2.25,8.85c-0.03,3.31,0.68,6.27,2.11,8.88c1.43,2.61,3.44,4.65,6.03,6.12
			c2.59,1.47,5.54,2.22,8.85,2.25c5.35,0.04,9.85-2.04,13.5-6.24l7.89,7.4c-2.57,3.09-5.75,5.43-9.53,7.03
			c-3.78,1.6-7.99,2.38-12.63,2.35C1555.89,1527.76,1550.97,1526.54,1546.58,1524.14z"/>
		
			<linearGradient id="SVGID_28_" gradientUnits="userSpaceOnUse" x1="1619.0656" y1="1475.8323" x2="1619.0656" y2="1539.1775" gradientTransform="matrix(1 7.974698e-03 -7.974698e-03 1 10.6435 -11.6497)">
			<stop  offset="0" style="stop-color:#3AC7E8"/>
			<stop  offset="1" style="stop-color:#27292B"/>
		</linearGradient>
		<path class="st31" d="M1629.84,1515.97l-24.84-0.2l-4.83,11.43l-12.69-0.1l24.27-53.31l12.23,0.1l23.49,53.69l-12.99-0.1
			L1629.84,1515.97z M1626.02,1506.54l-8.32-20.55l-8.65,20.42L1626.02,1506.54z"/>
		
			<linearGradient id="SVGID_29_" gradientUnits="userSpaceOnUse" x1="1681.6603" y1="1475.8323" x2="1681.6603" y2="1539.1775" gradientTransform="matrix(1 7.974698e-03 -7.974698e-03 1 10.6435 -11.6497)">
			<stop  offset="0" style="stop-color:#3AC7E8"/>
			<stop  offset="1" style="stop-color:#27292B"/>
		</linearGradient>
		<path class="st32" d="M1692.79,1476.81c3.48,1.61,6.15,3.87,8.01,6.79c1.86,2.92,2.78,6.37,2.74,10.34
			c-0.03,3.92-1,7.34-2.91,10.26c-1.91,2.92-4.62,5.14-8.12,6.66c-3.5,1.53-7.62,2.27-12.36,2.23l-10.78-0.09l-0.12,14.75
			l-12.38-0.1l0.43-53.5l23.16,0.18C1685.21,1474.38,1689.31,1475.2,1692.79,1476.81z M1688.05,1500.65
			c1.95-1.59,2.94-3.86,2.96-6.82c0.02-3.01-0.93-5.32-2.85-6.94c-1.92-1.62-4.75-2.45-8.46-2.47l-10.09-0.08l-0.15,18.57
			l10.09,0.08C1683.27,1503.02,1686.11,1502.24,1688.05,1500.65z"/>
		
			<linearGradient id="SVGID_30_" gradientUnits="userSpaceOnUse" x1="1723.6577" y1="1475.8323" x2="1723.6577" y2="1539.1775" gradientTransform="matrix(1 7.974698e-03 -7.974698e-03 1 10.6435 -11.6497)">
			<stop  offset="0" style="stop-color:#3AC7E8"/>
			<stop  offset="1" style="stop-color:#27292B"/>
		</linearGradient>
		<path class="st33" d="M1716.31,1474.62l12.38,0.1l-0.43,53.5l-12.38-0.1L1716.31,1474.62z"/>
		
			<linearGradient id="SVGID_31_" gradientUnits="userSpaceOnUse" x1="1770.8903" y1="1475.8323" x2="1770.8903" y2="1539.1775" gradientTransform="matrix(1 7.974698e-03 -7.974698e-03 1 10.6435 -11.6497)">
			<stop  offset="0" style="stop-color:#3AC7E8"/>
			<stop  offset="1" style="stop-color:#27292B"/>
		</linearGradient>
		<path class="st34" d="M1794.27,1475.25l-0.43,53.5l-10.17-0.08l-26.41-32.69l-0.26,32.48l-12.23-0.1l0.43-53.5l10.24,0.08
			l26.34,32.69l0.26-32.48L1794.27,1475.25z"/>
		
			<linearGradient id="SVGID_32_" gradientUnits="userSpaceOnUse" x1="1834.4788" y1="1475.8323" x2="1834.4788" y2="1539.1775" gradientTransform="matrix(1 7.974698e-03 -7.974698e-03 1 10.6435 -11.6497)">
			<stop  offset="0" style="stop-color:#3AC7E8"/>
			<stop  offset="1" style="stop-color:#27292B"/>
		</linearGradient>
		<path class="st35" d="M1846.72,1501.57l11.31,0.09l-0.17,21.71c-2.92,2.17-6.3,3.82-10.13,4.96c-3.83,1.14-7.68,1.7-11.55,1.67
			c-5.55-0.04-10.54-1.27-14.95-3.67c-4.41-2.4-7.87-5.72-10.35-9.94c-2.49-4.22-3.71-8.98-3.67-14.28
			c0.04-5.3,1.34-10.04,3.9-14.22c2.56-4.18,6.08-7.44,10.59-9.77c4.5-2.33,9.56-3.48,15.16-3.43c4.69,0.04,8.94,0.86,12.74,2.47
			c3.81,1.61,7,3.93,9.57,6.96l-8.01,7.27c-3.79-4.06-8.39-6.11-13.78-6.15c-3.41-0.03-6.45,0.66-9.11,2.07
			c-2.66,1.41-4.74,3.4-6.24,5.99c-1.5,2.59-2.26,5.56-2.29,8.92c-0.03,3.31,0.69,6.27,2.15,8.88c1.46,2.61,3.49,4.65,6.1,6.12
			c2.61,1.47,5.6,2.22,8.96,2.25c3.57,0.03,6.78-0.71,9.65-2.22L1846.72,1501.57z"/>
	</g>
	<g>
		<path class="st18" d="M1407.18,889.15c0,36.14-14.66,68.89-38.35,92.58c-23.69,23.69-56.42,38.35-92.59,38.35H969.08
			c0-36.16,14.66-68.89,38.35-92.59c23.69-23.69,56.42-38.35,92.58-38.35H1407.18z"/>
		<path class="st19" d="M1407.18,889.13c0,36.16-14.66,68.89-38.35,92.58c-23.69,23.69-56.44,38.35-92.58,38.35H969.09
			c0,0,50.84-65.46,219.04-65.46S1407.18,889.13,1407.18,889.13z"/>
		<path d="M1284.36,1087.64c0,36.16-14.66,68.89-38.35,92.58c-23.69,23.69-56.44,38.35-92.58,38.35H969.09
			c0-36.14,14.66-68.89,38.35-92.58c23.69-23.69,56.42-38.35,92.58-38.35H1284.36z"/>
		<path d="M1325.32,1286.13c0,36.16-14.66,68.89-38.35,92.58c-23.69,23.69-56.42,38.35-92.58,38.35H928.11
			c0-36.16,14.66-68.89,38.35-92.58c23.69-23.69,56.44-38.35,92.58-38.35H1325.32z"/>
	</g>
	<path d="M1656,1319.82c-17.99,0-31.85-15.86-29.44-33.69l46.3-356.05l6.14-41.44c13.13-141.81,120.28-200.51,120.28-200.51
		s-124.98,38.69-171.38,192.81c0,0-36.58-130.54-186.28-271.3c0,0,77.46,102.67,115.72,230.48c14.08,47.02,17.74,96.55,11.16,145.2
		l-40.09,302.09c-9.31,68.88,44.25,130.16,113.76,130.16h176.8l54.7-97.76H1656z"/>
</g>
</svg>
