<?xml version="1.0" encoding="utf-8"?>
<!-- Generator: Adobe Illustrator 24.0.1, SVG Export Plug-In . SVG Version: 6.00 Build 0)  -->
<svg version="1.1" id="Layer_1" xmlns="http://www.w3.org/2000/svg" xmlns:xlink="http://www.w3.org/1999/xlink" x="0px" y="0px"
	 viewBox="0 0 3000 2000" style="enable-background:new 0 0 3000 2000;" xml:space="preserve">
<style type="text/css">
	.st0{fill:#27292B;}
	.st1{fill:#41BD4B;}
	.st2{fill:#1A8920;}
	.st3{fill:url(#SVGID_1_);}
	.st4{fill:url(#SVGID_2_);}
	.st5{fill:url(#SVGID_3_);}
	.st6{fill:url(#SVGID_4_);}
	.st7{fill:url(#SVGID_5_);}
	.st8{fill:url(#SVGID_6_);}
	.st9{fill:url(#SVGID_7_);}
	.st10{fill:url(#SVGID_8_);}
	.st11{fill:url(#SVGID_9_);}
	.st12{fill:url(#SVGID_10_);}
	.st13{fill:url(#SVGID_11_);}
	.st14{fill:url(#SVGID_12_);}
	.st15{fill:url(#SVGID_13_);}
	.st16{fill:url(#SVGID_14_);}
	.st17{fill:url(#SVGID_15_);}
	.st18{fill:url(#SVGID_16_);}
	.st19{fill:#3AC7E8;}
	.st20{fill:#1895D3;}
	.st21{fill:url(#SVGID_17_);}
	.st22{fill:url(#SVGID_18_);}
	.st23{fill:url(#SVGID_19_);}
	.st24{fill:url(#SVGID_20_);}
	.st25{fill:url(#SVGID_21_);}
	.st26{fill:url(#SVGID_22_);}
	.st27{fill:url(#SVGID_23_);}
	.st28{fill:url(#SVGID_24_);}
	.st29{fill:url(#SVGID_25_);}
	.st30{fill:url(#SVGID_26_);}
	.st31{fill:url(#SVGID_27_);}
	.st32{fill:url(#SVGID_28_);}
	.st33{fill:url(#SVGID_29_);}
	.st34{fill:url(#SVGID_30_);}
	.st35{fill:url(#SVGID_31_);}
	.st36{fill:url(#SVGID_32_);}
</style>
<g>
	<path class="st0" d="M4799.59,1324.32c-15.99,0-31.1-1.72-45.36-5.18c-14.25-3.45-26.68-9.17-37.26-17.17
		c-10.59-7.99-18.9-18.57-24.94-31.75c-6.06-13.17-9.07-29.69-9.07-49.57v-214.01c2.66-152.55,121.74-234.07,121.74-234.07
		s-120.12,37.18-164.71,185.31c0,0-35.16-125.47-179.04-260.75c0,0,131.3,174.02,131.3,347.58v185.3c0,34.13,5.51,62.75,16.52,85.85
		c11.01,23.11,25.92,41.79,44.71,56.05c18.79,14.25,40.71,24.41,65.76,30.45c25.05,6.05,51.83,9.07,80.34,9.07h179.14v-87.12
		H4799.59z"/>
	<path class="st1" d="M4727.09,791.98c0,0,93.73-232.71,325.62-91.46c0,0-38.09-11.37-96.09,80.19
		c-6.74,9.95-14.01,19.56-22.29,28.28c-40.12,42.29-94.9,71.14-170.83,42.68c0,0,12.71-37.08,87.29-100.05
		C4850.79,751.62,4793.62,739.95,4727.09,791.98z"/>
	<path class="st2" d="M5046.23,700.17c-13.2,0.91-45.71,11.24-89.61,80.54c-6.75,9.96-14.02,19.56-22.28,28.28
		c-40.12,42.28-94.9,71.15-170.83,42.68c0,0,12.71-37.09,87.29-100.05C4850.79,751.62,4962.37,696.79,5046.23,700.17z"/>
	<path class="st1" d="M4567.14,773.69c0,0-35.19-379.78-426.77-292.95c0,0,74.33,56.23,99.1,163.41
		c3.05,13.21,6.98,26.21,12.21,38.72c3.7,8.84,7.76,17.52,12.33,25.96c42.29,78.07,116.84,134.14,239.8,122.29
		c0,0-9.41-51.53-94.21-173.66C4409.61,657.47,4489.85,670.84,4567.14,773.69z"/>
	<path class="st2" d="M4503.82,831.13c-122.96,11.84-197.5-44.23-239.8-122.3c-4.56-8.43-8.63-17.12-12.33-25.96
		c-5.24-12.51-9.16-25.52-12.22-38.73c-24.76-107.17-99.09-163.4-99.09-163.4s134.84,25.17,269.24,176.73
		C4494.41,779.6,4503.82,831.13,4503.82,831.13z"/>
	<g>
		
			<linearGradient id="SVGID_1_" gradientUnits="userSpaceOnUse" x1="4108.478" y1="1455.5739" x2="4108.478" y2="1515.8646" gradientTransform="matrix(1 7.974698e-03 -7.974698e-03 1 10.6435 -11.6497)">
			<stop  offset="0" style="stop-color:#41BD4B"/>
			<stop  offset="1" style="stop-color:#27292B"/>
		</linearGradient>
		<path class="st3" d="M4126.79,1515.21l-0.08,9.46l-39.43-0.31l0.41-50.92l38.48,0.31l-0.08,9.46l-26.77-0.21l-0.09,11.06
			l23.64,0.19l-0.07,9.17l-23.64-0.19l-0.09,11.78L4126.79,1515.21z"/>
		
			<linearGradient id="SVGID_2_" gradientUnits="userSpaceOnUse" x1="4159.8711" y1="1455.5739" x2="4159.8711" y2="1515.8646" gradientTransform="matrix(1 7.974698e-03 -7.974698e-03 1 10.6435 -11.6497)">
			<stop  offset="0" style="stop-color:#41BD4B"/>
			<stop  offset="1" style="stop-color:#27292B"/>
		</linearGradient>
		<path class="st4" d="M4140.14,1473.85l11.78,0.09l-0.33,41.32l25.53,0.2l-0.08,9.6l-37.32-0.3L4140.14,1473.85z"/>
		
			<linearGradient id="SVGID_3_" gradientUnits="userSpaceOnUse" x1="4211.082" y1="1455.5739" x2="4211.082" y2="1515.8646" gradientTransform="matrix(1 7.974698e-03 -7.974698e-03 1 10.6435 -11.6497)">
			<stop  offset="0" style="stop-color:#41BD4B"/>
			<stop  offset="1" style="stop-color:#27292B"/>
		</linearGradient>
		<path class="st5" d="M4221.36,1514.51l-23.64-0.19l-4.6,10.88l-12.08-0.1l23.1-50.74l11.64,0.09l22.36,51.1l-12.37-0.1
			L4221.36,1514.51z M4217.73,1505.53l-7.92-19.56l-8.23,19.43L4217.73,1505.53z"/>
		
			<linearGradient id="SVGID_4_" gradientUnits="userSpaceOnUse" x1="4274.1865" y1="1455.5739" x2="4274.1865" y2="1515.8646" gradientTransform="matrix(1 7.974698e-03 -7.974698e-03 1 10.6435 -11.6497)">
			<stop  offset="0" style="stop-color:#41BD4B"/>
			<stop  offset="1" style="stop-color:#27292B"/>
		</linearGradient>
		<path class="st6" d="M4247.51,1474.71l23.13,0.18c5.53,0.04,10.41,1.14,14.63,3.28c4.23,2.14,7.5,5.14,9.82,8.99
			c2.32,3.85,3.46,8.32,3.42,13.41c-0.04,5.09-1.25,9.54-3.63,13.36c-2.38,3.81-5.7,6.76-9.96,8.83c-4.26,2.08-9.15,3.09-14.68,3.05
			l-23.13-0.18L4247.51,1474.71z M4269.73,1516.13c5.09,0.04,9.16-1.35,12.22-4.16c3.05-2.81,4.6-6.64,4.64-11.49
			c0.04-4.85-1.45-8.7-4.45-11.57c-3.01-2.86-7.06-4.31-12.15-4.35l-10.77-0.09l-0.25,31.57L4269.73,1516.13z"/>
		
			<linearGradient id="SVGID_5_" gradientUnits="userSpaceOnUse" x1="4332.0171" y1="1455.5739" x2="4332.0171" y2="1515.8646" gradientTransform="matrix(1 7.974698e-03 -7.974698e-03 1 10.6435 -11.6497)">
			<stop  offset="0" style="stop-color:#41BD4B"/>
			<stop  offset="1" style="stop-color:#27292B"/>
		</linearGradient>
		<path class="st7" d="M4350.32,1516.99l-0.08,9.46l-39.43-0.31l0.41-50.92l38.48,0.31l-0.08,9.46l-26.77-0.21l-0.09,11.06
			l23.64,0.19l-0.07,9.17l-23.64-0.19l-0.09,11.78L4350.32,1516.99z"/>
		
			<linearGradient id="SVGID_6_" gradientUnits="userSpaceOnUse" x1="4407.6323" y1="1455.5739" x2="4407.6323" y2="1515.8646" gradientTransform="matrix(1 7.974698e-03 -7.974698e-03 1 10.6435 -11.6497)">
			<stop  offset="0" style="stop-color:#41BD4B"/>
			<stop  offset="1" style="stop-color:#27292B"/>
		</linearGradient>
		<path class="st8" d="M4387.89,1475.83l11.78,0.09l-0.33,41.32l25.53,0.2l-0.08,9.6l-37.32-0.3L4387.89,1475.83z"/>
		
			<linearGradient id="SVGID_7_" gradientUnits="userSpaceOnUse" x1="4458.8428" y1="1455.5739" x2="4458.8428" y2="1515.8646" gradientTransform="matrix(1 7.974698e-03 -7.974698e-03 1 10.6435 -11.6497)">
			<stop  offset="0" style="stop-color:#41BD4B"/>
			<stop  offset="1" style="stop-color:#27292B"/>
		</linearGradient>
		<path class="st9" d="M4469.12,1516.48l-23.64-0.19l-4.6,10.88l-12.08-0.1l23.1-50.74l11.64,0.09l22.36,51.1l-12.37-0.1
			L4469.12,1516.48z M4465.48,1507.51l-7.92-19.56l-8.23,19.43L4465.48,1507.51z"/>
		
			<linearGradient id="SVGID_8_" gradientUnits="userSpaceOnUse" x1="4519.6919" y1="1455.5739" x2="4519.6919" y2="1515.8646" gradientTransform="matrix(1 7.974698e-03 -7.974698e-03 1 10.6435 -11.6497)">
			<stop  offset="0" style="stop-color:#41BD4B"/>
			<stop  offset="1" style="stop-color:#27292B"/>
		</linearGradient>
		<path class="st10" d="M4541.96,1477.05l-0.41,50.92l-9.68-0.08l-25.14-31.12l-0.25,30.91l-11.64-0.09l0.41-50.92l9.75,0.08
			l25.07,31.12l0.25-30.91L4541.96,1477.05z"/>
		
			<linearGradient id="SVGID_9_" gradientUnits="userSpaceOnUse" x1="4584.3618" y1="1455.5739" x2="4584.3618" y2="1515.8646" gradientTransform="matrix(1 7.974698e-03 -7.974698e-03 1 10.6435 -11.6497)">
			<stop  offset="0" style="stop-color:#41BD4B"/>
			<stop  offset="1" style="stop-color:#27292B"/>
		</linearGradient>
		<path class="st11" d="M4557.67,1477.18l23.13,0.18c5.53,0.04,10.4,1.14,14.63,3.28c4.23,2.14,7.5,5.14,9.82,8.99
			c2.32,3.85,3.46,8.32,3.42,13.41s-1.25,9.54-3.63,13.36c-2.38,3.81-5.7,6.76-9.96,8.83c-4.26,2.08-9.15,3.09-14.68,3.05
			l-23.13-0.18L4557.67,1477.18z M4579.89,1518.6c5.09,0.04,9.16-1.35,12.22-4.16c3.05-2.81,4.6-6.64,4.64-11.49
			c0.04-4.85-1.45-8.7-4.45-11.57c-3.01-2.86-7.06-4.31-12.15-4.35l-10.77-0.09l-0.25,31.57L4579.89,1518.6z"/>
		
			<linearGradient id="SVGID_10_" gradientUnits="userSpaceOnUse" x1="4639.6465" y1="1455.5739" x2="4639.6465" y2="1515.8646" gradientTransform="matrix(1 7.974698e-03 -7.974698e-03 1 10.6435 -11.6497)">
			<stop  offset="0" style="stop-color:#41BD4B"/>
			<stop  offset="1" style="stop-color:#27292B"/>
		</linearGradient>
		<path class="st12" d="M4626.05,1527.88c-3.75-1.12-6.76-2.56-9.02-4.33l4.07-8.84c2.17,1.62,4.75,2.92,7.75,3.92
			c3,0.99,6,1.5,9.01,1.53c3.35,0.03,5.82-0.45,7.43-1.43c1.61-0.98,2.42-2.3,2.43-3.95c0.01-1.21-0.46-2.22-1.39-3.03
			c-0.94-0.81-2.15-1.46-3.62-1.96c-1.48-0.5-3.47-1.05-5.99-1.65c-3.87-0.95-7.04-1.9-9.51-2.84c-2.47-0.94-4.58-2.44-6.33-4.49
			c-1.75-2.05-2.62-4.77-2.59-8.17c0.02-2.96,0.84-5.63,2.46-8.02c1.62-2.39,4.05-4.27,7.28-5.65c3.24-1.38,7.18-2.05,11.84-2.02
			c3.25,0.03,6.42,0.44,9.52,1.24c3.1,0.8,5.8,1.94,8.12,3.41l-3.71,8.92c-4.68-2.7-9.38-4.08-14.08-4.11
			c-3.3-0.03-5.74,0.49-7.32,1.54c-1.58,1.05-2.38,2.45-2.4,4.2c-0.01,1.75,0.89,3.05,2.7,3.91c1.81,0.86,4.58,1.72,8.31,2.58
			c3.87,0.95,7.04,1.9,9.51,2.84c2.47,0.94,4.57,2.41,6.33,4.42c1.75,2,2.62,4.7,2.59,8.1c-0.02,2.91-0.86,5.56-2.5,7.95
			c-1.64,2.39-4.1,4.27-7.36,5.65c-3.26,1.38-7.22,2.05-11.87,2.01C4633.68,1529.58,4629.8,1529,4626.05,1527.88z"/>
		
			<linearGradient id="SVGID_11_" gradientUnits="userSpaceOnUse" x1="4693.6211" y1="1455.5739" x2="4693.6211" y2="1515.8646" gradientTransform="matrix(1 7.974698e-03 -7.974698e-03 1 10.6435 -11.6497)">
			<stop  offset="0" style="stop-color:#41BD4B"/>
			<stop  offset="1" style="stop-color:#27292B"/>
		</linearGradient>
		<path class="st13" d="M4681.34,1526.58c-4.18-2.29-7.45-5.44-9.82-9.46c-2.37-4.02-3.53-8.55-3.49-13.6
			c0.04-5.04,1.28-9.56,3.71-13.54c2.43-3.98,5.75-7.08,9.97-9.3c4.21-2.22,8.94-3.31,14.17-3.27c4.41,0.04,8.4,0.84,11.95,2.42
			c3.55,1.58,6.53,3.84,8.93,6.76l-7.62,6.92c-3.41-4-7.66-6.03-12.75-6.07c-3.15-0.03-5.97,0.64-8.46,2.01
			c-2.48,1.36-4.43,3.27-5.83,5.74c-1.4,2.46-2.12,5.27-2.14,8.42c-0.02,3.15,0.64,5.97,2.01,8.46c1.36,2.48,3.27,4.43,5.74,5.83
			c2.46,1.4,5.27,2.12,8.42,2.14c5.09,0.04,9.37-1.94,12.85-5.94l7.51,7.04c-2.45,2.94-5.47,5.17-9.07,6.69
			c-3.6,1.52-7.61,2.27-12.02,2.23C4690.2,1530.03,4685.52,1528.87,4681.34,1526.58z"/>
		
			<linearGradient id="SVGID_12_" gradientUnits="userSpaceOnUse" x1="4750.3242" y1="1455.5739" x2="4750.3242" y2="1515.8646" gradientTransform="matrix(1 7.974698e-03 -7.974698e-03 1 10.6435 -11.6497)">
			<stop  offset="0" style="stop-color:#41BD4B"/>
			<stop  offset="1" style="stop-color:#27292B"/>
		</linearGradient>
		<path class="st14" d="M4760.59,1518.81l-23.64-0.19l-4.6,10.88l-12.08-0.1l23.1-50.74l11.64,0.09l22.36,51.1l-12.37-0.1
			L4760.59,1518.81z M4756.95,1509.83l-7.92-19.56l-8.23,19.43L4756.95,1509.83z"/>
		
			<linearGradient id="SVGID_13_" gradientUnits="userSpaceOnUse" x1="4809.9009" y1="1455.5739" x2="4809.9009" y2="1515.8646" gradientTransform="matrix(1 7.974698e-03 -7.974698e-03 1 10.6435 -11.6497)">
			<stop  offset="0" style="stop-color:#41BD4B"/>
			<stop  offset="1" style="stop-color:#27292B"/>
		</linearGradient>
		<path class="st15" d="M4820.5,1481.53c3.31,1.53,5.85,3.68,7.62,6.46c1.77,2.78,2.64,6.06,2.61,9.84
			c-0.03,3.73-0.95,6.99-2.77,9.76c-1.82,2.78-4.39,4.89-7.73,6.34c-3.33,1.45-7.26,2.16-11.77,2.12l-10.26-0.08l-0.11,14.04
			l-11.78-0.09l0.41-50.92l22.04,0.18C4813.28,1479.22,4817.19,1480,4820.5,1481.53z M4815.99,1504.23
			c1.85-1.51,2.79-3.68,2.82-6.49c0.02-2.86-0.88-5.06-2.71-6.61c-1.83-1.54-4.52-2.33-8.06-2.36l-9.6-0.08l-0.14,17.68l9.6,0.08
			C4811.44,1506.48,4814.14,1505.74,4815.99,1504.23z"/>
		
			<linearGradient id="SVGID_14_" gradientUnits="userSpaceOnUse" x1="4849.8735" y1="1455.5739" x2="4849.8735" y2="1515.8646" gradientTransform="matrix(1 7.974698e-03 -7.974698e-03 1 10.6435 -11.6497)">
			<stop  offset="0" style="stop-color:#41BD4B"/>
			<stop  offset="1" style="stop-color:#27292B"/>
		</linearGradient>
		<path class="st16" d="M4842.89,1479.45l11.78,0.09l-0.41,50.92l-11.78-0.09L4842.89,1479.45z"/>
		
			<linearGradient id="SVGID_15_" gradientUnits="userSpaceOnUse" x1="4894.8286" y1="1455.5739" x2="4894.8286" y2="1515.8646" gradientTransform="matrix(1 7.974698e-03 -7.974698e-03 1 10.6435 -11.6497)">
			<stop  offset="0" style="stop-color:#41BD4B"/>
			<stop  offset="1" style="stop-color:#27292B"/>
		</linearGradient>
		<path class="st17" d="M4917.08,1480.05l-0.41,50.92l-9.68-0.08l-25.14-31.12l-0.25,30.91l-11.64-0.09l0.41-50.92l9.75,0.08
			l25.07,31.12l0.25-30.91L4917.08,1480.05z"/>
		
			<linearGradient id="SVGID_16_" gradientUnits="userSpaceOnUse" x1="4955.3511" y1="1455.5739" x2="4955.3511" y2="1515.8646" gradientTransform="matrix(1 7.974698e-03 -7.974698e-03 1 10.6435 -11.6497)">
			<stop  offset="0" style="stop-color:#41BD4B"/>
			<stop  offset="1" style="stop-color:#27292B"/>
		</linearGradient>
		<path class="st18" d="M4967.01,1505.1l10.77,0.09l-0.17,20.66c-2.78,2.06-5.99,3.64-9.64,4.72c-3.65,1.09-7.31,1.61-11,1.59
			c-5.29-0.04-10.03-1.21-14.23-3.5c-4.2-2.29-7.49-5.44-9.85-9.46c-2.37-4.02-3.53-8.55-3.49-13.6c0.04-5.04,1.28-9.56,3.71-13.54
			c2.43-3.98,5.79-7.08,10.08-9.3c4.28-2.22,9.09-3.31,14.43-3.27c4.46,0.04,8.51,0.82,12.13,2.35c3.63,1.53,6.66,3.74,9.11,6.62
			l-7.62,6.92c-3.61-3.86-7.98-5.81-13.12-5.85c-3.25-0.03-6.14,0.63-8.67,1.97c-2.53,1.34-4.51,3.24-5.94,5.7
			c-1.43,2.46-2.15,5.29-2.18,8.49c-0.02,3.15,0.66,5.97,2.04,8.46c1.39,2.48,3.32,4.43,5.81,5.83c2.49,1.4,5.33,2.12,8.53,2.14
			c3.39,0.03,6.45-0.68,9.18-2.11L4967.01,1505.1z"/>
	</g>
	<g>
		<path class="st0" d="M4447.49,1324.32v87.12h-360.2V921.95h351.11v87.12h-246.84v110.01h217.47v87.12h-217.47v118.13H4447.49z"/>
	</g>
	<rect x="4087.29" y="921.95" class="st1" width="351.11" height="87.12"/>
	<path class="st2" d="M4087.29,1009.07c0,0,76.2-43.56,175.55-43.56s175.55-43.56,175.55-43.56v87.12H4087.29z"/>
</g>
<g>
	<path class="st0" d="M1729.59,1324.32c-15.99,0-31.1-1.72-45.36-5.18c-14.25-3.45-26.68-9.17-37.26-17.17
		c-10.59-7.99-18.9-18.57-24.94-31.75c-6.06-13.17-9.07-29.69-9.07-49.57v-214.01c2.66-152.55,121.74-234.07,121.74-234.07
		s-120.12,37.18-164.71,185.31c0,0-35.16-125.47-179.04-260.75c0,0,131.3,174.02,131.3,347.58v185.3c0,34.13,5.51,62.75,16.52,85.85
		c11.01,23.11,25.92,41.79,44.71,56.05c18.79,14.25,40.71,24.41,65.76,30.45c25.05,6.05,51.83,9.07,80.34,9.07h179.14v-87.12
		H1729.59z"/>
	<path class="st19" d="M1657.09,791.98c0,0,93.73-232.71,325.62-91.46c0,0-38.09-11.37-96.09,80.19
		c-6.74,9.95-14.01,19.56-22.29,28.28c-40.12,42.29-94.9,71.14-170.83,42.68c0,0,12.71-37.08,87.29-100.05
		C1780.79,751.62,1723.62,739.95,1657.09,791.98z"/>
	<path class="st20" d="M1976.23,700.17c-13.2,0.91-45.71,11.24-89.61,80.54c-6.74,9.96-14.02,19.56-22.28,28.28
		c-40.12,42.28-94.9,71.15-170.83,42.68c0,0,12.71-37.09,87.29-100.05C1780.79,751.62,1892.37,696.79,1976.23,700.17z"/>
	<path class="st19" d="M1497.14,773.69c0,0-35.19-379.78-426.77-292.95c0,0,74.33,56.23,99.1,163.41
		c3.05,13.21,6.98,26.21,12.21,38.72c3.7,8.84,7.76,17.52,12.33,25.96c42.29,78.07,116.84,134.14,239.8,122.29
		c0,0-9.41-51.53-94.21-173.66C1339.61,657.47,1419.85,670.84,1497.14,773.69z"/>
	<path class="st20" d="M1433.82,831.13c-122.96,11.84-197.5-44.23-239.8-122.3c-4.56-8.43-8.63-17.12-12.33-25.96
		c-5.24-12.51-9.16-25.52-12.22-38.73c-24.76-107.17-99.1-163.4-99.1-163.4s134.84,25.17,269.24,176.73
		C1424.41,779.6,1433.82,831.13,1433.82,831.13z"/>
	<g>
		
			<linearGradient id="SVGID_17_" gradientUnits="userSpaceOnUse" x1="1038.5758" y1="1480.0562" x2="1038.5758" y2="1540.3469" gradientTransform="matrix(1 7.974698e-03 -7.974698e-03 1 10.6435 -11.6497)">
			<stop  offset="0" style="stop-color:#3AC7E8"/>
			<stop  offset="1" style="stop-color:#27292B"/>
		</linearGradient>
		<path class="st21" d="M1056.79,1515.21l-0.08,9.46l-39.43-0.31l0.41-50.92l38.48,0.31l-0.08,9.46l-26.77-0.21l-0.09,11.06
			l23.64,0.19l-0.07,9.17l-23.64-0.19l-0.09,11.78L1056.79,1515.21z"/>
		
			<linearGradient id="SVGID_18_" gradientUnits="userSpaceOnUse" x1="1089.9688" y1="1480.0562" x2="1089.9688" y2="1540.3469" gradientTransform="matrix(1 7.974698e-03 -7.974698e-03 1 10.6435 -11.6497)">
			<stop  offset="0" style="stop-color:#3AC7E8"/>
			<stop  offset="1" style="stop-color:#27292B"/>
		</linearGradient>
		<path class="st22" d="M1070.14,1473.85l11.78,0.09l-0.33,41.32l25.53,0.2l-0.08,9.6l-37.32-0.3L1070.14,1473.85z"/>
		
			<linearGradient id="SVGID_19_" gradientUnits="userSpaceOnUse" x1="1141.1794" y1="1480.0562" x2="1141.1794" y2="1540.3469" gradientTransform="matrix(1 7.974698e-03 -7.974698e-03 1 10.6435 -11.6497)">
			<stop  offset="0" style="stop-color:#3AC7E8"/>
			<stop  offset="1" style="stop-color:#27292B"/>
		</linearGradient>
		<path class="st23" d="M1151.36,1514.51l-23.64-0.19l-4.6,10.88l-12.08-0.1l23.1-50.74l11.64,0.09l22.36,51.1l-12.37-0.1
			L1151.36,1514.51z M1147.73,1505.53l-7.92-19.56l-8.23,19.43L1147.73,1505.53z"/>
		
			<linearGradient id="SVGID_20_" gradientUnits="userSpaceOnUse" x1="1204.2842" y1="1480.0562" x2="1204.2842" y2="1540.3469" gradientTransform="matrix(1 7.974698e-03 -7.974698e-03 1 10.6435 -11.6497)">
			<stop  offset="0" style="stop-color:#3AC7E8"/>
			<stop  offset="1" style="stop-color:#27292B"/>
		</linearGradient>
		<path class="st24" d="M1177.51,1474.71l23.13,0.18c5.53,0.04,10.41,1.14,14.63,3.28c4.23,2.14,7.5,5.14,9.82,8.99
			c2.32,3.85,3.46,8.32,3.42,13.41c-0.04,5.09-1.25,9.54-3.63,13.36c-2.38,3.81-5.7,6.76-9.96,8.83c-4.26,2.08-9.15,3.09-14.68,3.05
			l-23.13-0.18L1177.51,1474.71z M1199.73,1516.13c5.09,0.04,9.16-1.35,12.22-4.16c3.05-2.81,4.6-6.64,4.64-11.49
			c0.04-4.85-1.45-8.7-4.45-11.57c-3.01-2.86-7.06-4.31-12.15-4.35l-10.77-0.09l-0.25,31.57L1199.73,1516.13z"/>
		
			<linearGradient id="SVGID_21_" gradientUnits="userSpaceOnUse" x1="1262.1145" y1="1480.0562" x2="1262.1145" y2="1540.3469" gradientTransform="matrix(1 7.974698e-03 -7.974698e-03 1 10.6435 -11.6497)">
			<stop  offset="0" style="stop-color:#3AC7E8"/>
			<stop  offset="1" style="stop-color:#27292B"/>
		</linearGradient>
		<path class="st25" d="M1280.32,1516.99l-0.08,9.46l-39.43-0.31l0.41-50.92l38.48,0.31l-0.08,9.46l-26.77-0.21l-0.09,11.06
			l23.64,0.19l-0.07,9.17l-23.64-0.19l-0.09,11.78L1280.32,1516.99z"/>
		
			<linearGradient id="SVGID_22_" gradientUnits="userSpaceOnUse" x1="1337.73" y1="1480.0562" x2="1337.73" y2="1540.3469" gradientTransform="matrix(1 7.974698e-03 -7.974698e-03 1 10.6435 -11.6497)">
			<stop  offset="0" style="stop-color:#3AC7E8"/>
			<stop  offset="1" style="stop-color:#27292B"/>
		</linearGradient>
		<path class="st26" d="M1317.89,1475.83l11.78,0.09l-0.33,41.32l25.53,0.2l-0.08,9.6l-37.32-0.3L1317.89,1475.83z"/>
		
			<linearGradient id="SVGID_23_" gradientUnits="userSpaceOnUse" x1="1388.9406" y1="1480.0562" x2="1388.9406" y2="1540.3469" gradientTransform="matrix(1 7.974698e-03 -7.974698e-03 1 10.6435 -11.6497)">
			<stop  offset="0" style="stop-color:#3AC7E8"/>
			<stop  offset="1" style="stop-color:#27292B"/>
		</linearGradient>
		<path class="st27" d="M1399.12,1516.48l-23.64-0.19l-4.6,10.88l-12.08-0.1l23.1-50.74l11.64,0.09l22.36,51.1l-12.37-0.1
			L1399.12,1516.48z M1395.48,1507.51l-7.92-19.56l-8.23,19.43L1395.48,1507.51z"/>
		
			<linearGradient id="SVGID_24_" gradientUnits="userSpaceOnUse" x1="1449.7897" y1="1480.0562" x2="1449.7897" y2="1540.3469" gradientTransform="matrix(1 7.974698e-03 -7.974698e-03 1 10.6435 -11.6497)">
			<stop  offset="0" style="stop-color:#3AC7E8"/>
			<stop  offset="1" style="stop-color:#27292B"/>
		</linearGradient>
		<path class="st28" d="M1471.96,1477.05l-0.41,50.92l-9.67-0.08l-25.14-31.12l-0.25,30.91l-11.64-0.09l0.41-50.92l9.75,0.08
			l25.07,31.12l0.25-30.91L1471.96,1477.05z"/>
		
			<linearGradient id="SVGID_25_" gradientUnits="userSpaceOnUse" x1="1514.4592" y1="1480.0562" x2="1514.4592" y2="1540.3469" gradientTransform="matrix(1 7.974698e-03 -7.974698e-03 1 10.6435 -11.6497)">
			<stop  offset="0" style="stop-color:#3AC7E8"/>
			<stop  offset="1" style="stop-color:#27292B"/>
		</linearGradient>
		<path class="st29" d="M1487.67,1477.18l23.13,0.18c5.53,0.04,10.4,1.14,14.63,3.28c4.23,2.14,7.5,5.14,9.82,8.99
			c2.32,3.85,3.46,8.32,3.42,13.41s-1.25,9.54-3.63,13.36c-2.38,3.81-5.7,6.76-9.96,8.83c-4.26,2.08-9.15,3.09-14.68,3.05
			l-23.13-0.18L1487.67,1477.18z M1509.89,1518.6c5.09,0.04,9.16-1.35,12.22-4.16c3.05-2.81,4.6-6.64,4.64-11.49
			c0.04-4.85-1.45-8.7-4.45-11.57c-3.01-2.86-7.06-4.31-12.15-4.35l-10.77-0.09l-0.25,31.57L1509.89,1518.6z"/>
		
			<linearGradient id="SVGID_26_" gradientUnits="userSpaceOnUse" x1="1569.7443" y1="1480.0562" x2="1569.7443" y2="1540.3469" gradientTransform="matrix(1 7.974698e-03 -7.974698e-03 1 10.6435 -11.6497)">
			<stop  offset="0" style="stop-color:#3AC7E8"/>
			<stop  offset="1" style="stop-color:#27292B"/>
		</linearGradient>
		<path class="st30" d="M1556.05,1527.88c-3.75-1.12-6.76-2.56-9.02-4.33l4.07-8.84c2.17,1.62,4.75,2.92,7.75,3.92
			c3,0.99,6,1.5,9.01,1.53c3.35,0.03,5.82-0.45,7.43-1.43c1.61-0.98,2.42-2.3,2.43-3.95c0.01-1.21-0.46-2.22-1.39-3.03
			c-0.94-0.81-2.15-1.46-3.62-1.96c-1.48-0.5-3.47-1.05-5.99-1.65c-3.87-0.95-7.04-1.9-9.51-2.84c-2.47-0.94-4.58-2.44-6.33-4.49
			c-1.75-2.05-2.62-4.77-2.59-8.17c0.02-2.96,0.85-5.63,2.46-8.02c1.62-2.39,4.05-4.27,7.28-5.65c3.24-1.38,7.18-2.05,11.84-2.02
			c3.25,0.03,6.42,0.44,9.52,1.24c3.1,0.8,5.8,1.94,8.12,3.41l-3.71,8.92c-4.68-2.7-9.38-4.08-14.08-4.11
			c-3.3-0.03-5.74,0.49-7.32,1.54c-1.59,1.05-2.38,2.45-2.4,4.2c-0.01,1.75,0.89,3.05,2.7,3.91c1.81,0.86,4.58,1.72,8.31,2.58
			c3.87,0.95,7.04,1.9,9.51,2.84c2.47,0.94,4.57,2.41,6.33,4.42c1.75,2,2.62,4.7,2.59,8.1c-0.02,2.91-0.86,5.56-2.5,7.95
			c-1.64,2.39-4.1,4.27-7.36,5.65c-3.26,1.38-7.22,2.05-11.87,2.01C1563.68,1529.58,1559.8,1529,1556.05,1527.88z"/>
		
			<linearGradient id="SVGID_27_" gradientUnits="userSpaceOnUse" x1="1623.7186" y1="1480.0562" x2="1623.7186" y2="1540.3469" gradientTransform="matrix(1 7.974698e-03 -7.974698e-03 1 10.6435 -11.6497)">
			<stop  offset="0" style="stop-color:#3AC7E8"/>
			<stop  offset="1" style="stop-color:#27292B"/>
		</linearGradient>
		<path class="st31" d="M1611.34,1526.58c-4.18-2.29-7.45-5.44-9.82-9.46c-2.37-4.02-3.53-8.55-3.49-13.6
			c0.04-5.04,1.28-9.56,3.71-13.54c2.43-3.98,5.75-7.08,9.97-9.3c4.21-2.22,8.94-3.31,14.17-3.27c4.41,0.04,8.4,0.84,11.95,2.42
			c3.55,1.58,6.53,3.84,8.93,6.76l-7.62,6.92c-3.41-4-7.66-6.03-12.75-6.07c-3.15-0.03-5.97,0.64-8.46,2.01
			c-2.48,1.36-4.43,3.27-5.83,5.74c-1.4,2.46-2.12,5.27-2.14,8.42c-0.03,3.15,0.64,5.97,2.01,8.46c1.36,2.48,3.27,4.43,5.74,5.83
			c2.46,1.4,5.27,2.12,8.42,2.14c5.09,0.04,9.37-1.94,12.85-5.94l7.51,7.04c-2.45,2.94-5.47,5.17-9.07,6.69
			c-3.6,1.52-7.61,2.27-12.02,2.23C1620.2,1530.03,1615.52,1528.87,1611.34,1526.58z"/>
		
			<linearGradient id="SVGID_28_" gradientUnits="userSpaceOnUse" x1="1680.4221" y1="1480.0562" x2="1680.4221" y2="1540.3469" gradientTransform="matrix(1 7.974698e-03 -7.974698e-03 1 10.6435 -11.6497)">
			<stop  offset="0" style="stop-color:#3AC7E8"/>
			<stop  offset="1" style="stop-color:#27292B"/>
		</linearGradient>
		<path class="st32" d="M1690.59,1518.81l-23.64-0.19l-4.6,10.88l-12.08-0.1l23.1-50.74l11.64,0.09l22.36,51.1l-12.37-0.1
			L1690.59,1518.81z M1686.95,1509.83l-7.92-19.56l-8.23,19.43L1686.95,1509.83z"/>
		
			<linearGradient id="SVGID_29_" gradientUnits="userSpaceOnUse" x1="1739.9987" y1="1480.0562" x2="1739.9987" y2="1540.3469" gradientTransform="matrix(1 7.974698e-03 -7.974698e-03 1 10.6435 -11.6497)">
			<stop  offset="0" style="stop-color:#3AC7E8"/>
			<stop  offset="1" style="stop-color:#27292B"/>
		</linearGradient>
		<path class="st33" d="M1750.5,1481.53c3.31,1.53,5.85,3.68,7.62,6.46c1.77,2.78,2.64,6.06,2.61,9.84
			c-0.03,3.73-0.95,6.99-2.77,9.76c-1.82,2.78-4.39,4.89-7.73,6.34c-3.33,1.45-7.26,2.16-11.77,2.12l-10.26-0.08l-0.11,14.04
			l-11.78-0.09l0.41-50.92l22.04,0.18C1743.28,1479.22,1747.19,1480,1750.5,1481.53z M1745.99,1504.23
			c1.85-1.51,2.79-3.68,2.82-6.49c0.02-2.86-0.88-5.06-2.71-6.61c-1.83-1.54-4.52-2.33-8.06-2.36l-9.6-0.08l-0.14,17.68l9.6,0.08
			C1741.44,1506.48,1744.14,1505.74,1745.99,1504.23z"/>
		
			<linearGradient id="SVGID_30_" gradientUnits="userSpaceOnUse" x1="1779.9711" y1="1480.0562" x2="1779.9711" y2="1540.3469" gradientTransform="matrix(1 7.974698e-03 -7.974698e-03 1 10.6435 -11.6497)">
			<stop  offset="0" style="stop-color:#3AC7E8"/>
			<stop  offset="1" style="stop-color:#27292B"/>
		</linearGradient>
		<path class="st34" d="M1772.89,1479.45l11.78,0.09l-0.41,50.92l-11.78-0.09L1772.89,1479.45z"/>
		
			<linearGradient id="SVGID_31_" gradientUnits="userSpaceOnUse" x1="1824.9263" y1="1480.0562" x2="1824.9263" y2="1540.3469" gradientTransform="matrix(1 7.974698e-03 -7.974698e-03 1 10.6435 -11.6497)">
			<stop  offset="0" style="stop-color:#3AC7E8"/>
			<stop  offset="1" style="stop-color:#27292B"/>
		</linearGradient>
		<path class="st35" d="M1847.08,1480.05l-0.41,50.92l-9.67-0.08l-25.14-31.12l-0.25,30.91l-11.64-0.09l0.41-50.92l9.75,0.08
			l25.07,31.12l0.25-30.91L1847.08,1480.05z"/>
		
			<linearGradient id="SVGID_32_" gradientUnits="userSpaceOnUse" x1="1885.4486" y1="1480.0562" x2="1885.4486" y2="1540.3469" gradientTransform="matrix(1 7.974698e-03 -7.974698e-03 1 10.6435 -11.6497)">
			<stop  offset="0" style="stop-color:#3AC7E8"/>
			<stop  offset="1" style="stop-color:#27292B"/>
		</linearGradient>
		<path class="st36" d="M1897.01,1505.1l10.77,0.09l-0.16,20.66c-2.78,2.06-5.99,3.64-9.64,4.72c-3.65,1.09-7.31,1.61-11,1.59
			c-5.29-0.04-10.03-1.21-14.23-3.5c-4.2-2.29-7.49-5.44-9.85-9.46c-2.37-4.02-3.53-8.55-3.49-13.6c0.04-5.04,1.28-9.56,3.71-13.54
			c2.43-3.98,5.79-7.08,10.08-9.3c4.28-2.22,9.09-3.31,14.43-3.27c4.46,0.04,8.51,0.82,12.13,2.35c3.62,1.53,6.66,3.74,9.11,6.62
			l-7.62,6.92c-3.61-3.86-7.98-5.81-13.12-5.85c-3.25-0.03-6.14,0.63-8.67,1.97c-2.53,1.34-4.51,3.24-5.94,5.7
			c-1.43,2.46-2.15,5.29-2.18,8.49c-0.03,3.15,0.66,5.97,2.04,8.46c1.39,2.48,3.32,4.43,5.81,5.83c2.49,1.4,5.33,2.12,8.53,2.14
			c3.39,0.03,6.45-0.68,9.18-2.11L1897.01,1505.1z"/>
	</g>
	<g>
		<path class="st0" d="M1377.49,1324.32v87.12h-360.2V921.95h351.11v87.12h-246.84v110.01h217.47v87.12h-217.47v118.13H1377.49z"/>
	</g>
	<rect x="1017.29" y="921.95" class="st19" width="351.11" height="87.12"/>
	<path class="st20" d="M1017.29,1009.07c0,0,76.2-43.56,175.55-43.56s175.55-43.56,175.55-43.56v87.12H1017.29z"/>
</g>
</svg>
