<?xml version="1.0" encoding="utf-8"?>
<!-- Generator: Adobe Illustrator 24.0.1, SVG Export Plug-In . SVG Version: 6.00 Build 0)  -->
<svg version="1.1" id="Layer_1" xmlns="http://www.w3.org/2000/svg" xmlns:xlink="http://www.w3.org/1999/xlink" x="0px" y="0px"
	 viewBox="0 0 3000 2000" style="enable-background:new 0 0 3000 2000;" xml:space="preserve">
<style type="text/css">
	.st0{fill:#41BD4B;}
	.st1{fill:#1A8920;}
	.st2{fill:#3AC7E8;}
	.st3{fill:#1895D3;}
</style>
<g>
	<path d="M4477.54,791.66h76.33l-56.3,416.68h-76.33L4477.54,791.66z"/>
	<path d="M4572.31,1107.96c2.59-19.16,7.27-35.11,14.04-47.84c6.77-12.72,14.94-22.91,24.52-30.58
		c9.57-7.66,20.42-13.15,32.55-16.47c12.12-3.31,24.8-4.97,38.05-4.97h118.16c1.01-17.77-4.55-30.14-16.68-37.12
		c-12.13-6.97-27.26-10.46-45.38-10.46h-124.95l9.11-67.44h133.32c18.47,0,35.7,2.09,51.69,6.27c15.99,4.18,29.53,10.98,40.64,20.39
		c11.1,9.41,19.29,21.7,24.56,36.86c5.27,15.16,6.4,33.9,3.39,56.2l-26.42,195.53h-194.49c-13.25,0-25.47-1.74-36.68-5.23
		c-11.21-3.48-20.55-9.15-28.03-16.99c-7.49-7.84-12.88-18.21-16.19-31.11C4570.22,1142.13,4569.81,1126.44,4572.31,1107.96z
		 M4648.64,1107.96c-1.65,12.21,0.43,20.65,6.25,25.36c5.81,4.71,13.24,7.06,22.31,7.06h104.56l8.83-65.35h-104.56
		c-9.07,0-17.15,2.44-24.25,7.32C4654.66,1087.23,4650.29,1095.77,4648.64,1107.96z"/>
	<path d="M5269.77,1092.28c-0.19-12.55,0.65-26.48,2.52-41.82c3.75-29.28,10.09-53.93,19.03-73.98
		c8.93-20.04,19.85-36.25,32.74-48.62c12.89-12.37,27.21-21.26,43-26.66c15.78-5.4,32.38-8.1,49.81-8.1h61.17
		c10.8,0,20.84,1.4,30.12,4.18c9.27,2.79,17.36,7.15,24.24,13.07c6.88,5.93,12.31,13.68,16.29,23.26
		c3.98,9.59,6.07,21.35,6.28,35.29c0.35,23.71-2.41,43.57-8.27,59.6c-5.87,16.04-13.61,28.84-23.22,38.43
		c-9.62,9.59-20.67,16.39-33.16,20.39c-12.49,4.01-25.01,6.01-37.55,6.01h-108.75c2.7,17.77,8.63,30.06,17.8,36.86
		c9.16,6.8,19.84,10.2,32.04,10.2h123.38l-8.4,67.97h-131.23c-14.99,0-28.96-2.09-41.92-6.27c-12.96-4.18-24.3-10.8-34.02-19.87
		c-9.72-9.06-17.39-20.99-23.01-35.81C5273.05,1131.58,5270.09,1113.54,5269.77,1092.28z M5449.69,1026.41
		c3.83,0,7.65-0.69,11.47-2.09c3.81-1.39,7.26-3.66,10.35-6.8c3.09-3.14,5.55-7.4,7.39-12.81c1.83-5.4,2.7-12.11,2.58-20.13
		c-0.13-8.71-2.49-14.9-7.07-18.56c-4.59-3.66-10.01-5.49-16.29-5.49h-41.3c-13.94,0-27.03,5.15-39.24,15.42
		c-12.22,10.29-21.65,27.11-28.27,50.45H5449.69z"/>
	<path class="st0" d="M4394.4,791.67c0,28.47-11.55,54.27-30.21,72.94c-18.67,18.67-44.45,30.21-72.94,30.21h-241.97
		c0-28.49,11.55-54.27,30.21-72.94c18.66-18.66,44.45-30.21,72.94-30.21H4394.4z"/>
	<path class="st1" d="M4394.4,791.66c0,28.49-11.55,54.27-30.21,72.94c-18.66,18.66-44.46,30.21-72.94,30.21h-241.97
		c0,0,40.05-51.57,172.55-51.57S4394.4,791.66,4394.4,791.66z"/>
	<path d="M4297.65,948.03c0,28.49-11.55,54.27-30.21,72.94c-18.67,18.67-44.47,30.21-72.94,30.21h-145.22
		c0-28.47,11.55-54.27,30.21-72.94c18.67-18.67,44.45-30.21,72.94-30.21H4297.65z"/>
	<path d="M4329.91,1104.4c0,28.49-11.55,54.27-30.21,72.94c-18.67,18.67-44.45,30.21-72.94,30.21H4017
		c0-28.49,11.55-54.27,30.21-72.94c18.67-18.67,44.46-30.21,72.94-30.21H4329.91z"/>
	<path d="M5161.27,893.09h-77.38c-18.82,0-36.88,2.7-54.16,8.1c-17.29,5.41-32.96,14.3-47,26.66c-14.05,12.38-26,28.58-35.85,48.62
		c-9.86,20.05-16.76,44.7-20.71,73.98c-3.96,29.28-3.72,53.94,0.72,73.98c4.43,20.05,11.99,36.34,22.67,48.88
		c10.67,12.55,23.93,21.52,39.75,26.92c15.82,5.41,33.15,8.1,51.97,8.1h153.71l52.27-416.69h-71.41L5161.27,893.09z
		 M5127.86,1140.38h-68.49c-9.41,0-18.11-1.39-26.1-4.18c-7.99-2.79-14.66-7.58-20.02-14.38c-5.35-6.8-9.07-16.03-11.16-27.71
		c-2.08-11.67-1.95-26.22,0.41-43.66c2.35-17.42,6.14-31.89,11.35-43.39c5.21-11.5,11.43-20.73,18.64-27.71
		c7.22-6.97,15.19-11.84,23.94-14.64c8.74-2.79,17.82-4.18,27.23-4.18h68.49L5127.86,1140.38z"/>
</g>
<g>
	<path d="M1191.54,791.66h76.33l-56.3,416.68h-76.33L1191.54,791.66z"/>
	<path d="M1286.31,1107.96c2.59-19.16,7.27-35.11,14.04-47.84c6.77-12.72,14.94-22.91,24.52-30.58
		c9.57-7.66,20.42-13.15,32.55-16.47c12.12-3.31,24.8-4.97,38.05-4.97h118.16c1.01-17.77-4.55-30.14-16.68-37.12
		c-12.13-6.97-27.26-10.46-45.38-10.46h-124.95l9.11-67.44h133.32c18.47,0,35.7,2.09,51.69,6.27c15.98,4.18,29.53,10.98,40.64,20.39
		c11.1,9.41,19.29,21.7,24.56,36.86c5.27,15.16,6.4,33.9,3.39,56.2l-26.42,195.53h-194.49c-13.25,0-25.47-1.74-36.68-5.23
		c-11.21-3.48-20.55-9.15-28.03-16.99c-7.49-7.84-12.88-18.21-16.19-31.11C1284.22,1142.13,1283.81,1126.44,1286.31,1107.96z
		 M1362.64,1107.96c-1.65,12.21,0.43,20.65,6.25,25.36c5.81,4.71,13.24,7.06,22.31,7.06h104.56l8.83-65.35h-104.56
		c-9.07,0-17.15,2.44-24.25,7.32C1368.66,1087.23,1364.29,1095.77,1362.64,1107.96z"/>
	<path d="M1983.77,1092.28c-0.19-12.55,0.65-26.48,2.52-41.82c3.75-29.28,10.09-53.93,19.03-73.98
		c8.93-20.04,19.85-36.25,32.74-48.62c12.89-12.37,27.21-21.26,43-26.66c15.78-5.4,32.38-8.1,49.81-8.1h61.17
		c10.8,0,20.84,1.4,30.12,4.18c9.27,2.79,17.36,7.15,24.24,13.07c6.88,5.93,12.31,13.68,16.29,23.26
		c3.98,9.59,6.07,21.35,6.28,35.29c0.35,23.71-2.41,43.57-8.27,59.6c-5.86,16.04-13.61,28.84-23.22,38.43
		c-9.62,9.59-20.67,16.39-33.16,20.39c-12.49,4.01-25.01,6.01-37.55,6.01h-108.75c2.7,17.77,8.63,30.06,17.8,36.86
		c9.16,6.8,19.84,10.2,32.04,10.2h123.38l-8.4,67.97h-131.23c-14.99,0-28.96-2.09-41.92-6.27c-12.96-4.18-24.3-10.8-34.02-19.87
		c-9.72-9.06-17.39-20.99-23.01-35.81C1987.05,1131.58,1984.09,1113.54,1983.77,1092.28z M2163.69,1026.41
		c3.83,0,7.65-0.69,11.47-2.09c3.81-1.39,7.26-3.66,10.35-6.8c3.09-3.14,5.55-7.4,7.39-12.81c1.83-5.4,2.7-12.11,2.58-20.13
		c-0.13-8.71-2.49-14.9-7.07-18.56c-4.59-3.66-10.01-5.49-16.29-5.49h-41.3c-13.94,0-27.03,5.15-39.24,15.42
		c-12.22,10.29-21.65,27.11-28.27,50.45H2163.69z"/>
	<path class="st2" d="M1108.4,791.67c0,28.47-11.55,54.27-30.21,72.94c-18.67,18.67-44.45,30.21-72.94,30.21H763.28
		c0-28.49,11.55-54.27,30.21-72.94c18.66-18.66,44.45-30.21,72.94-30.21H1108.4z"/>
	<path class="st3" d="M1108.4,791.66c0,28.49-11.55,54.27-30.21,72.94c-18.66,18.66-44.46,30.21-72.94,30.21H763.28
		c0,0,40.05-51.57,172.55-51.57S1108.4,791.66,1108.4,791.66z"/>
	<path d="M1011.65,948.03c0,28.49-11.55,54.27-30.21,72.94c-18.66,18.67-44.47,30.21-72.94,30.21H763.28
		c0-28.47,11.55-54.27,30.21-72.94c18.66-18.67,44.45-30.21,72.94-30.21H1011.65z"/>
	<path d="M1043.91,1104.4c0,28.49-11.55,54.27-30.21,72.94c-18.66,18.67-44.45,30.21-72.94,30.21H731
		c0-28.49,11.55-54.27,30.21-72.94c18.66-18.67,44.46-30.21,72.94-30.21H1043.91z"/>
	<path d="M1875.27,893.09h-77.38c-18.82,0-36.88,2.7-54.16,8.1c-17.29,5.41-32.96,14.3-46.99,26.66
		c-14.05,12.38-26,28.58-35.85,48.62c-9.86,20.05-16.76,44.7-20.71,73.98c-3.96,29.28-3.72,53.94,0.72,73.98
		c4.43,20.05,11.99,36.34,22.67,48.88c10.67,12.55,23.93,21.52,39.75,26.92c15.82,5.41,33.15,8.1,51.97,8.1h153.71l52.27-416.69
		h-71.41L1875.27,893.09z M1841.86,1140.38h-68.49c-9.41,0-18.11-1.39-26.1-4.18c-7.99-2.79-14.66-7.58-20.02-14.38
		c-5.35-6.8-9.07-16.03-11.16-27.71c-2.08-11.67-1.95-26.22,0.41-43.66c2.35-17.42,6.14-31.89,11.35-43.39
		c5.21-11.5,11.43-20.73,18.64-27.71c7.22-6.97,15.19-11.84,23.94-14.64c8.74-2.79,17.82-4.18,27.23-4.18h68.49L1841.86,1140.38z"/>
</g>
</svg>
