<?xml version="1.0" encoding="utf-8"?>
<!-- Generator: Adobe Illustrator 24.0.1, SVG Export Plug-In . SVG Version: 6.00 Build 0)  -->
<svg version="1.1" id="Layer_1" xmlns="http://www.w3.org/2000/svg" xmlns:xlink="http://www.w3.org/1999/xlink" x="0px" y="0px"
	 viewBox="0 0 3000 2000" style="enable-background:new 0 0 3000 2000;" xml:space="preserve">
<style type="text/css">
	.st0{fill:#FFFFFF;}
	.st1{fill:#3AC7E8;}
	.st2{fill:#1895D3;}
	.st3{fill:url(#SVGID_1_);}
	.st4{fill:#41BD4B;}
	.st5{fill:#1A8920;}
	.st6{fill:url(#SVGID_2_);}
	.st7{fill:url(#SVGID_3_);}
	.st8{fill:url(#SVGID_4_);}
	.st9{fill:url(#SVGID_5_);}
	.st10{fill:url(#SVGID_6_);}
	.st11{fill:url(#SVGID_7_);}
	.st12{fill:url(#SVGID_8_);}
	.st13{fill:url(#SVGID_9_);}
	.st14{fill:url(#SVGID_10_);}
	.st15{fill:url(#SVGID_11_);}
	.st16{fill:url(#SVGID_12_);}
	.st17{fill:url(#SVGID_13_);}
	.st18{fill:url(#SVGID_14_);}
	.st19{fill:url(#SVGID_15_);}
	.st20{fill:url(#SVGID_16_);}
	.st21{fill:url(#SVGID_17_);}
	.st22{fill:url(#SVGID_18_);}
	.st23{fill:url(#SVGID_19_);}
	.st24{fill:url(#SVGID_20_);}
	.st25{fill:url(#SVGID_21_);}
	.st26{fill:url(#SVGID_22_);}
	.st27{fill:url(#SVGID_23_);}
	.st28{fill:url(#SVGID_24_);}
	.st29{fill:url(#SVGID_25_);}
	.st30{fill:url(#SVGID_26_);}
</style>
<rect x="3116" y="4232" width="3000" height="2000"/>
<g>
	<g>
		<g>
			<path class="st0" d="M4239.64,5037.3h85.83l-63.3,468.53h-85.83L4239.64,5037.3z"/>
			<path class="st0" d="M4346.2,5392.96c2.91-21.55,8.17-39.48,15.79-53.79c7.61-14.3,16.8-25.76,27.57-34.39
				c10.76-8.61,22.96-14.79,36.6-18.52c13.63-3.72,27.89-5.58,42.79-5.58h132.86c1.13-19.99-5.12-33.89-18.76-41.74
				c-13.64-7.83-30.65-11.76-51.03-11.76h-140.5l10.25-75.84h149.91c20.77,0,40.14,2.35,58.13,7.05
				c17.97,4.71,33.21,12.35,45.7,22.93c12.48,10.58,21.69,24.4,27.62,41.45c5.93,17.05,7.2,38.12,3.81,63.2l-29.71,219.86h-218.69
				c-14.9,0-28.64-1.96-41.24-5.88c-12.61-3.91-23.11-10.29-31.51-19.11c-8.42-8.82-14.48-20.47-18.2-34.98
				C4343.85,5431.37,4343.39,5413.74,4346.2,5392.96z M4432.03,5392.96c-1.85,13.72,0.48,23.22,7.02,28.51
				c6.53,5.29,14.89,7.94,25.09,7.94h117.57l9.93-73.49h-117.57c-10.2,0-19.28,2.75-27.27,8.23
				C4438.8,5369.65,4433.88,5379.25,4432.03,5392.96z"/>
			<path class="st0" d="M5130.46,5375.32c-0.21-14.11,0.74-29.78,2.83-47.03c4.21-32.92,11.35-60.64,21.4-83.18
				c10.04-22.53,22.32-40.76,36.81-54.67c14.49-13.91,30.6-23.9,48.35-29.98c17.74-6.07,36.41-9.11,56.01-9.11h68.78
				c12.14,0,23.44,1.57,33.87,4.7c10.42,3.14,19.52,8.04,27.26,14.7c7.74,6.67,13.84,15.39,18.32,26.16
				c4.47,10.78,6.82,24.01,7.06,39.68c0.4,26.66-2.71,48.99-9.29,67.02c-6.59,18.03-15.3,32.43-26.11,43.21
				c-10.82,10.78-23.24,18.43-37.28,22.93c-14.04,4.51-28.12,6.76-42.23,6.76h-122.28c3.03,19.99,9.71,33.8,20.01,41.44
				c10.3,7.64,22.31,11.46,36.03,11.46h138.74l-9.45,76.42h-147.56c-16.85,0-32.57-2.35-47.13-7.06
				c-14.57-4.7-27.32-12.14-38.25-22.34c-10.93-10.19-19.55-23.61-25.88-40.27C5134.15,5419.52,5130.81,5399.23,5130.46,5375.32z
				 M5332.77,5301.25c4.31,0,8.6-0.78,12.9-2.35c4.28-1.56,8.17-4.12,11.64-7.64c3.48-3.53,6.24-8.32,8.31-14.4
				c2.06-6.07,3.03-13.61,2.9-22.63c-0.15-9.79-2.8-16.75-7.95-20.87c-5.16-4.11-11.26-6.17-18.32-6.17h-46.44
				c-15.68,0-30.39,5.79-44.13,17.34c-13.75,11.56-24.34,30.48-31.79,56.73H5332.77z"/>
			<path class="st0" d="M4146.15,5037.31c0,32.01-12.98,61.02-33.97,82.01c-20.99,20.99-49.98,33.97-82.01,33.97h-272.08
				c0-32.03,12.98-61.02,33.97-82.01c20.99-20.99,49.98-33.97,82.01-33.97H4146.15z"/>
			<path class="st0" d="M4146.15,5037.29c0,32.03-12.98,61.02-33.97,82.01c-20.99,20.99-50,33.97-82.01,33.97h-272.08
				c0,0,45.04-57.98,194.02-57.98S4146.15,5037.29,4146.15,5037.29z"/>
			<path class="st0" d="M4037.36,5213.13c0,32.03-12.98,61.02-33.97,82.01s-50,33.97-82.01,33.97h-163.29
				c0-32.01,12.98-61.02,33.97-82.01c20.99-20.99,49.98-33.97,82.01-33.97H4037.36z"/>
			<path class="st0" d="M4073.64,5388.95c0,32.03-12.98,61.02-33.97,82.01c-20.99,20.99-49.98,33.97-82.01,33.97h-235.86
				c0-32.03,12.98-61.02,33.97-82.01c20.99-20.99,50-33.97,82.01-33.97H4073.64z"/>
		</g>
		<path class="st0" d="M5008.45,5151.35h-87.01c-21.16,0-41.47,3.04-60.9,9.11c-19.44,6.08-37.06,16.07-52.84,29.98
			c-15.8,13.92-29.24,32.14-40.31,54.67c-11.08,22.54-18.84,50.26-23.29,83.18c-4.45,32.92-4.18,60.65,0.81,83.18
			c4.98,22.54,13.48,40.86,25.5,54.97c12,14.11,26.9,24.2,44.7,30.27c17.79,6.08,37.27,9.11,58.44,9.11h172.84l44.88-357.78
			c22.59-167.2,62.27-199.31,62.27-199.31C5042.67,5003.81,5008.45,5151.35,5008.45,5151.35z M4970.89,5429.41h-77.01
			c-10.58,0-20.36-1.56-29.35-4.7c-8.98-3.13-16.48-8.53-22.51-16.17c-6.02-7.64-10.2-18.02-12.54-31.16
			c-2.34-13.13-2.19-29.49,0.46-49.09c2.65-19.59,6.9-35.86,12.76-48.79c5.86-12.93,12.85-23.31,20.96-31.16
			c8.11-7.83,17.08-13.32,26.92-16.46c9.83-3.13,20.04-4.7,30.62-4.7h77.01L4970.89,5429.41z"/>
		<path class="st0" d="M5126.5,5125.38c0,0,112.94-5.83,190.79-157.35c77.85-151.52,193.23-134.04,193.23-134.04
			c-141.99-88.85-443.73-117-493.51,203.97c0,0,64.39-139.24,222.25-143.8C5239.26,4894.17,5154.05,4941.33,5126.5,5125.38z"/>
	</g>
	<g>
		<path class="st0" d="M3722.3,5575.89l23.7,0.19l-0.66,83.09l51.34,0.41l-0.15,19.31l-75.04-0.6L3722.3,5575.89z"/>
		<path class="st0" d="M3946.81,5657.65l-47.54-0.38l-9.24,21.87l-24.28-0.19l46.46-102.03l23.41,0.19l44.97,102.76l-24.87-0.2
			L3946.81,5657.65z M3939.5,5639.6l-15.92-39.33l-16.55,39.07L3939.5,5639.6z"/>
		<path class="st0" d="M4144.37,5578.36l-0.82,102.39l-19.46-0.15l-50.55-62.57l-0.5,62.17l-23.41-0.19l0.82-102.39l19.6,0.16
			l50.41,62.57l0.5-62.17L4144.37,5578.36z"/>
		<path class="st0" d="M4214.26,5578.62l46.52,0.37c11.12,0.09,20.92,2.29,29.42,6.6c8.5,4.31,15.08,10.34,19.75,18.08
			c4.67,7.74,6.96,16.73,6.88,26.97c-0.08,10.24-2.52,19.19-7.31,26.86c-4.79,7.67-11.47,13.59-20.04,17.76
			c-8.57,4.17-18.41,6.22-29.53,6.13l-46.52-0.37L4214.26,5578.62z M4258.95,5661.92c10.24,0.08,18.43-2.71,24.57-8.36
			c6.14-5.66,9.25-13.36,9.33-23.11c0.08-9.75-2.91-17.5-8.96-23.26c-6.05-5.75-14.19-8.67-24.43-8.75l-21.65-0.17l-0.51,63.48
			L4258.95,5661.92z"/>
		<path class="st0" d="M4404.05,5680.58c-7.54-2.25-13.59-5.16-18.14-8.7l8.19-17.78c4.36,3.25,9.56,5.88,15.59,7.88
			c6.03,2,12.07,3.02,18.12,3.07c6.73,0.05,11.71-0.91,14.94-2.88c3.23-1.97,4.86-4.62,4.89-7.93c0.02-2.44-0.92-4.47-2.8-6.09
			c-1.89-1.62-4.32-2.93-7.28-3.93c-2.97-1-6.98-2.1-12.04-3.31c-7.79-1.91-14.16-3.82-19.12-5.71c-4.96-1.89-9.2-4.9-12.73-9.03
			c-3.53-4.12-5.26-9.6-5.21-16.42c0.05-5.95,1.7-11.32,4.96-16.13s8.14-8.59,14.65-11.37c6.51-2.78,14.44-4.13,23.8-4.05
			c6.53,0.05,12.92,0.89,19.14,2.49c6.23,1.61,11.67,3.9,16.33,6.86l-7.46,17.93c-9.42-5.44-18.86-8.2-28.31-8.27
			c-6.63-0.05-11.54,0.98-14.73,3.1c-3.19,2.12-4.79,4.94-4.82,8.44c-0.03,3.51,1.78,6.14,5.42,7.87c3.64,1.74,9.21,3.46,16.71,5.18
			c7.79,1.92,14.16,3.82,19.12,5.71c4.96,1.89,9.2,4.85,12.73,8.88c3.53,4.03,5.27,9.45,5.21,16.28
			c-0.05,5.85-1.72,11.18-5.03,15.98c-3.31,4.8-8.24,8.59-14.79,11.37c-6.56,2.78-14.51,4.13-23.88,4.05
			C4419.4,5683.99,4411.59,5682.83,4404.05,5680.58z"/>
		<path class="st0" d="M4567.04,5677.95c-8.4-4.6-14.98-10.95-19.74-19.03s-7.1-17.19-7.02-27.34c0.08-10.14,2.57-19.21,7.46-27.22
			c4.89-8.01,11.57-14.24,20.04-18.71c8.47-4.47,17.97-6.66,28.5-6.58c8.87,0.07,16.88,1.7,24.03,4.87
			c7.14,3.18,13.13,7.71,17.96,13.6l-15.33,13.92c-6.86-8.05-15.41-12.12-25.65-12.2c-6.34-0.05-12.01,1.29-17,4.03
			c-5,2.74-8.9,6.58-11.72,11.54c-2.82,4.95-4.25,10.6-4.3,16.93c-0.05,6.34,1.3,12.01,4.03,17c2.74,5,6.58,8.9,11.54,11.72
			c4.95,2.82,10.6,4.25,16.94,4.3c10.24,0.08,18.85-3.9,25.84-11.94l15.1,14.16c-4.93,5.91-11.01,10.4-18.25,13.46
			c-7.24,3.06-15.3,4.56-24.17,4.49C4584.85,5684.9,4575.43,5682.55,4567.04,5677.95z"/>
		<path class="st0" d="M4788.4,5662.33l-47.54-0.38l-9.24,21.87l-24.28-0.19l46.46-102.03l23.41,0.19l44.97,102.76l-24.87-0.2
			L4788.4,5662.33z M4781.08,5644.28l-15.92-39.33l-16.55,39.07L4781.08,5644.28z"/>
		<path class="st0" d="M4959.96,5587.36c6.65,3.08,11.76,7.41,15.33,13c3.56,5.59,5.31,12.18,5.25,19.79
			c-0.06,7.51-1.92,14.05-5.57,19.63c-3.65,5.58-8.83,9.83-15.53,12.75c-6.71,2.92-14.59,4.35-23.66,4.27l-20.63-0.16l-0.23,28.23
			l-23.7-0.19l0.82-102.39l44.32,0.35C4945.44,5582.71,4953.3,5584.29,4959.96,5587.36z M4950.89,5633.01
			c3.73-3.04,5.62-7.39,5.66-13.05c0.05-5.75-1.77-10.18-5.45-13.28c-3.68-3.1-9.08-4.68-16.2-4.74l-19.31-0.15l-0.28,35.55
			l19.31,0.15C4941.73,5637.54,4947.16,5636.05,4950.89,5633.01z"/>
		<path class="st0" d="M5050.43,5583.19l23.7,0.19l-0.82,102.39l-23.7-0.19L5050.43,5583.19z"/>
		<path class="st0" d="M5237.92,5584.38l-0.82,102.39l-19.46-0.16l-50.55-62.57l-0.5,62.17l-23.41-0.19l0.82-102.39l19.6,0.16
			l50.41,62.57l0.5-62.17L5237.92,5584.38z"/>
		<path class="st0" d="M5382.64,5634.77l21.65,0.17l-0.33,41.54c-5.59,4.15-12.05,7.32-19.38,9.5c-7.33,2.18-14.71,3.25-22.12,3.19
			c-10.63-0.08-20.17-2.43-28.62-7.03c-8.45-4.6-15.05-10.95-19.82-19.03s-7.1-17.19-7.02-27.34c0.08-10.14,2.57-19.21,7.46-27.22
			c4.89-8.01,11.65-14.24,20.26-18.71c8.62-4.47,18.29-6.66,29.02-6.57c8.97,0.07,17.1,1.65,24.39,4.73
			c7.29,3.08,13.4,7.52,18.33,13.31l-15.32,13.92c-7.25-7.76-16.05-11.69-26.38-11.77c-6.53-0.05-12.35,1.27-17.44,3.96
			c-5.09,2.69-9.07,6.51-11.94,11.46c-2.87,4.95-4.33,10.64-4.38,17.08c-0.05,6.34,1.32,12.01,4.11,17c2.79,5,6.68,8.9,11.68,11.72
			c5,2.82,10.72,4.25,17.15,4.31c6.82,0.05,12.98-1.36,18.47-4.24L5382.64,5634.77z"/>
	</g>
</g>
<g>
	<g>
		<g>
			<path d="M1123.64,5037.3h85.83l-63.3,468.53h-85.83L1123.64,5037.3z"/>
			<path d="M1230.2,5392.96c2.91-21.55,8.17-39.48,15.79-53.79c7.61-14.3,16.8-25.76,27.57-34.39c10.76-8.61,22.96-14.79,36.6-18.52
				c13.63-3.72,27.89-5.58,42.79-5.58h132.86c1.13-19.99-5.12-33.89-18.76-41.74c-13.64-7.83-30.65-11.76-51.03-11.76h-140.5
				l10.25-75.84h149.91c20.77,0,40.14,2.35,58.13,7.05c17.97,4.71,33.21,12.35,45.7,22.93c12.48,10.58,21.69,24.4,27.62,41.45
				c5.93,17.05,7.2,38.12,3.81,63.2l-29.7,219.86h-218.69c-14.9,0-28.64-1.96-41.24-5.88c-12.61-3.91-23.11-10.29-31.51-19.11
				c-8.42-8.82-14.48-20.47-18.2-34.98C1227.85,5431.37,1227.39,5413.74,1230.2,5392.96z M1316.03,5392.96
				c-1.85,13.72,0.48,23.22,7.02,28.51c6.53,5.29,14.89,7.94,25.09,7.94h117.57l9.93-73.49h-117.57c-10.2,0-19.28,2.75-27.27,8.23
				C1322.8,5369.65,1317.88,5379.25,1316.03,5392.96z"/>
			<path d="M2014.46,5375.32c-0.21-14.11,0.74-29.78,2.83-47.03c4.21-32.92,11.35-60.64,21.4-83.18
				c10.04-22.53,22.32-40.76,36.81-54.67c14.49-13.91,30.6-23.9,48.35-29.98c17.74-6.07,36.41-9.11,56.01-9.11h68.78
				c12.14,0,23.44,1.57,33.87,4.7c10.43,3.14,19.52,8.04,27.26,14.7c7.74,6.67,13.84,15.39,18.32,26.16
				c4.47,10.78,6.82,24.01,7.06,39.68c0.4,26.66-2.71,48.99-9.29,67.02c-6.59,18.03-15.3,32.43-26.11,43.21
				c-10.82,10.78-23.24,18.43-37.28,22.93c-14.04,4.51-28.12,6.76-42.23,6.76h-122.28c3.03,19.99,9.71,33.8,20.01,41.44
				c10.3,7.64,22.31,11.46,36.03,11.46h138.74l-9.45,76.42h-147.56c-16.85,0-32.57-2.35-47.13-7.06
				c-14.57-4.7-27.32-12.14-38.25-22.34c-10.93-10.19-19.55-23.61-25.88-40.27C2018.15,5419.52,2014.81,5399.23,2014.46,5375.32z
				 M2216.77,5301.25c4.31,0,8.6-0.78,12.9-2.35c4.28-1.56,8.17-4.12,11.64-7.64c3.48-3.53,6.24-8.32,8.31-14.4
				c2.06-6.07,3.03-13.61,2.9-22.63c-0.15-9.79-2.8-16.75-7.95-20.87c-5.16-4.11-11.26-6.17-18.32-6.17h-46.44
				c-15.68,0-30.39,5.79-44.13,17.34c-13.75,11.56-24.34,30.48-31.79,56.73H2216.77z"/>
			<path d="M1030.15,5037.31c0,32.01-12.98,61.02-33.97,82.01c-20.99,20.99-49.98,33.97-82.01,33.97H642.09
				c0-32.03,12.98-61.02,33.97-82.01c20.99-20.99,49.98-33.97,82.01-33.97H1030.15z"/>
			<path d="M1030.15,5037.29c0,32.03-12.98,61.02-33.97,82.01c-20.99,20.99-50,33.97-82.01,33.97H642.09
				c0,0,45.04-57.98,194.02-57.98S1030.15,5037.29,1030.15,5037.29z"/>
			<path d="M921.36,5213.13c0,32.03-12.98,61.02-33.97,82.01c-20.99,20.99-50,33.97-82.01,33.97H642.09
				c0-32.01,12.98-61.02,33.97-82.01c20.99-20.99,49.98-33.97,82.01-33.97H921.36z"/>
			<path d="M957.64,5388.95c0,32.03-12.98,61.02-33.97,82.01c-20.99,20.99-49.98,33.97-82.01,33.97H605.79
				c0-32.03,12.98-61.02,33.97-82.01c20.99-20.99,50-33.97,82.01-33.97H957.64z"/>
		</g>
		<path d="M1892.45,5151.35h-87.01c-21.16,0-41.47,3.04-60.9,9.11c-19.44,6.08-37.06,16.07-52.84,29.98
			c-15.8,13.92-29.24,32.14-40.31,54.67c-11.08,22.54-18.84,50.26-23.29,83.18c-4.45,32.92-4.18,60.65,0.81,83.18
			c4.98,22.54,13.48,40.86,25.5,54.97c12,14.11,26.9,24.2,44.7,30.27c17.79,6.08,37.28,9.11,58.44,9.11h172.84l44.88-357.78
			c22.59-167.2,62.27-199.31,62.27-199.31C1926.67,5003.81,1892.45,5151.35,1892.45,5151.35z M1854.89,5429.41h-77.01
			c-10.58,0-20.36-1.56-29.35-4.7c-8.98-3.13-16.48-8.53-22.51-16.17c-6.02-7.64-10.2-18.02-12.54-31.16
			c-2.34-13.13-2.19-29.49,0.46-49.09c2.65-19.59,6.9-35.86,12.76-48.79c5.86-12.93,12.85-23.31,20.96-31.16
			c8.11-7.83,17.08-13.32,26.91-16.46c9.83-3.13,20.04-4.7,30.62-4.7h77.01L1854.89,5429.41z"/>
		<path d="M2010.5,5125.38c0,0,112.94-5.83,190.79-157.35c77.85-151.52,193.23-134.04,193.23-134.04
			c-141.99-88.85-443.73-117-493.51,203.97c0,0,64.39-139.24,222.25-143.8C2123.26,4894.17,2038.05,4941.33,2010.5,5125.38z"/>
	</g>
	<g>
		<path d="M606.3,5575.89l23.7,0.19l-0.66,83.09l51.34,0.41l-0.15,19.31l-75.04-0.6L606.3,5575.89z"/>
		<path d="M830.81,5657.65l-47.54-0.38l-9.24,21.87l-24.28-0.19l46.46-102.03l23.41,0.19l44.97,102.76l-24.87-0.2L830.81,5657.65z
			 M823.5,5639.6l-15.92-39.33l-16.55,39.07L823.5,5639.6z"/>
		<path d="M1028.37,5578.36l-0.82,102.39l-19.46-0.15l-50.55-62.57l-0.5,62.17l-23.41-0.19l0.82-102.39l19.6,0.16l50.41,62.57
			l0.5-62.17L1028.37,5578.36z"/>
		<path d="M1098.26,5578.62l46.52,0.37c11.12,0.09,20.92,2.29,29.42,6.6c8.5,4.31,15.08,10.34,19.75,18.08
			c4.67,7.74,6.96,16.73,6.88,26.97c-0.08,10.24-2.52,19.19-7.31,26.86c-4.79,7.67-11.47,13.59-20.04,17.76
			c-8.57,4.17-18.41,6.22-29.53,6.13l-46.52-0.37L1098.26,5578.62z M1142.95,5661.92c10.24,0.08,18.43-2.71,24.57-8.36
			c6.14-5.66,9.25-13.36,9.33-23.11c0.08-9.75-2.91-17.5-8.96-23.26c-6.05-5.75-14.19-8.67-24.43-8.75l-21.65-0.17l-0.51,63.48
			L1142.95,5661.92z"/>
		<path d="M1288.05,5680.58c-7.54-2.25-13.59-5.16-18.14-8.7l8.19-17.78c4.36,3.25,9.56,5.88,15.59,7.88
			c6.03,2,12.07,3.02,18.12,3.07c6.73,0.05,11.71-0.91,14.94-2.88c3.23-1.97,4.86-4.62,4.89-7.93c0.02-2.44-0.92-4.47-2.8-6.09
			c-1.89-1.62-4.32-2.93-7.28-3.93c-2.97-1-6.98-2.1-12.04-3.31c-7.79-1.91-14.16-3.82-19.12-5.71c-4.96-1.89-9.2-4.9-12.73-9.03
			c-3.53-4.12-5.26-9.6-5.21-16.42c0.05-5.95,1.7-11.32,4.96-16.13s8.14-8.59,14.65-11.37c6.51-2.78,14.44-4.13,23.8-4.05
			c6.53,0.05,12.91,0.89,19.14,2.49c6.23,1.61,11.67,3.9,16.33,6.86l-7.46,17.93c-9.42-5.44-18.86-8.2-28.31-8.27
			c-6.63-0.05-11.54,0.98-14.73,3.1c-3.19,2.12-4.79,4.94-4.82,8.44c-0.03,3.51,1.78,6.14,5.42,7.87c3.64,1.74,9.21,3.46,16.71,5.18
			c7.79,1.92,14.16,3.82,19.12,5.71c4.96,1.89,9.2,4.85,12.73,8.88c3.53,4.03,5.27,9.45,5.21,16.28
			c-0.05,5.85-1.72,11.18-5.03,15.98c-3.31,4.8-8.24,8.59-14.79,11.37c-6.56,2.78-14.51,4.13-23.88,4.05
			C1303.4,5683.99,1295.59,5682.83,1288.05,5680.58z"/>
		<path d="M1451.04,5677.95c-8.4-4.6-14.98-10.95-19.74-19.03s-7.1-17.19-7.02-27.34c0.08-10.14,2.57-19.21,7.46-27.22
			c4.89-8.01,11.57-14.24,20.04-18.71c8.47-4.47,17.97-6.66,28.5-6.58c8.87,0.07,16.88,1.7,24.03,4.87
			c7.14,3.18,13.13,7.71,17.96,13.6l-15.33,13.92c-6.86-8.05-15.41-12.12-25.65-12.2c-6.34-0.05-12.01,1.29-17,4.03
			c-5,2.74-8.9,6.58-11.72,11.54c-2.82,4.95-4.25,10.6-4.3,16.93c-0.05,6.34,1.3,12.01,4.03,17c2.74,5,6.59,8.9,11.54,11.72
			c4.95,2.82,10.6,4.25,16.94,4.3c10.24,0.08,18.85-3.9,25.84-11.94l15.1,14.16c-4.93,5.91-11.01,10.4-18.25,13.46
			c-7.24,3.06-15.3,4.56-24.17,4.49C1468.85,5684.9,1459.43,5682.55,1451.04,5677.95z"/>
		<path d="M1672.4,5662.33l-47.54-0.38l-9.24,21.87l-24.28-0.19l46.46-102.03l23.41,0.19l44.97,102.76l-24.87-0.2L1672.4,5662.33z
			 M1665.08,5644.28l-15.92-39.33l-16.55,39.07L1665.08,5644.28z"/>
		<path d="M1843.96,5587.36c6.65,3.08,11.76,7.41,15.33,13c3.56,5.59,5.31,12.18,5.25,19.79c-0.06,7.51-1.92,14.05-5.57,19.63
			c-3.65,5.58-8.83,9.83-15.53,12.75c-6.71,2.92-14.59,4.35-23.66,4.27l-20.63-0.16l-0.23,28.23l-23.7-0.19l0.82-102.39l44.32,0.35
			C1829.44,5582.71,1837.3,5584.29,1843.96,5587.36z M1834.89,5633.01c3.73-3.04,5.62-7.39,5.66-13.05
			c0.05-5.75-1.77-10.18-5.45-13.28c-3.68-3.1-9.08-4.68-16.2-4.74l-19.31-0.15l-0.28,35.55l19.31,0.15
			C1825.73,5637.54,1831.16,5636.05,1834.89,5633.01z"/>
		<path d="M1934.43,5583.19l23.7,0.19l-0.82,102.39l-23.7-0.19L1934.43,5583.19z"/>
		<path d="M2121.92,5584.38l-0.82,102.39l-19.46-0.16l-50.55-62.57l-0.5,62.17l-23.41-0.19l0.82-102.39l19.6,0.16l50.41,62.57
			l0.5-62.17L2121.92,5584.38z"/>
		<path d="M2266.64,5634.77l21.65,0.17l-0.33,41.54c-5.59,4.15-12.05,7.32-19.39,9.5c-7.33,2.18-14.7,3.25-22.11,3.19
			c-10.63-0.08-20.17-2.43-28.62-7.03c-8.45-4.6-15.05-10.95-19.82-19.03c-4.76-8.08-7.1-17.19-7.02-27.34
			c0.08-10.14,2.57-19.21,7.46-27.22c4.89-8.01,11.64-14.24,20.26-18.71c8.62-4.47,18.29-6.66,29.02-6.57
			c8.97,0.07,17.1,1.65,24.39,4.73c7.29,3.08,13.4,7.52,18.33,13.31l-15.32,13.92c-7.25-7.76-16.05-11.69-26.38-11.77
			c-6.53-0.05-12.35,1.27-17.44,3.96c-5.09,2.69-9.07,6.51-11.94,11.46c-2.87,4.95-4.33,10.64-4.38,17.08
			c-0.05,6.34,1.32,12.01,4.11,17c2.79,5,6.68,8.9,11.68,11.72c5,2.82,10.72,4.25,17.15,4.31c6.82,0.05,12.98-1.36,18.47-4.24
			L2266.64,5634.77z"/>
	</g>
</g>
<g>
	<g>
		<g>
			<path d="M4239.49,896.97h85.83l-63.3,468.53h-85.83L4239.49,896.97z"/>
			<path d="M4346.05,1252.63c2.91-21.55,8.17-39.48,15.79-53.79c7.61-14.3,16.8-25.76,27.57-34.39
				c10.76-8.61,22.96-14.79,36.6-18.52c13.63-3.72,27.89-5.58,42.79-5.58h132.86c1.13-19.99-5.12-33.89-18.76-41.74
				c-13.64-7.83-30.65-11.76-51.03-11.76h-140.5l10.25-75.84h149.91c20.77,0,40.14,2.35,58.13,7.05
				c17.97,4.7,33.21,12.35,45.7,22.93c12.48,10.58,21.69,24.4,27.62,41.45c5.93,17.05,7.2,38.12,3.81,63.2l-29.7,219.86h-218.69
				c-14.9,0-28.64-1.96-41.24-5.88c-12.61-3.91-23.11-10.29-31.51-19.11c-8.42-8.82-14.48-20.47-18.2-34.98
				C4343.7,1291.05,4343.24,1273.41,4346.05,1252.63z M4431.88,1252.63c-1.85,13.72,0.48,23.22,7.02,28.51
				c6.53,5.29,14.89,7.94,25.09,7.94h117.57l9.93-73.49h-117.57c-10.2,0-19.28,2.75-27.27,8.23
				C4438.65,1229.32,4433.73,1238.92,4431.88,1252.63z"/>
			<path d="M5130.3,1235c-0.21-14.11,0.74-29.78,2.83-47.03c4.21-32.92,11.35-60.64,21.4-83.18c10.04-22.53,22.32-40.76,36.81-54.67
				c14.49-13.91,30.6-23.9,48.35-29.98c17.74-6.07,36.41-9.11,56.01-9.11h68.78c12.14,0,23.44,1.57,33.87,4.7
				c10.43,3.14,19.52,8.04,27.26,14.7c7.74,6.67,13.84,15.39,18.32,26.16c4.47,10.78,6.82,24.01,7.06,39.68
				c0.4,26.66-2.71,48.99-9.29,67.02c-6.59,18.03-15.3,32.43-26.11,43.21c-10.82,10.78-23.24,18.43-37.28,22.93
				c-14.04,4.51-28.12,6.76-42.23,6.76H5213.8c3.03,19.99,9.71,33.8,20.01,41.44c10.3,7.64,22.31,11.46,36.03,11.46h138.74
				l-9.45,76.42h-147.56c-16.85,0-32.57-2.35-47.13-7.06c-14.57-4.7-27.32-12.14-38.25-22.34c-10.93-10.19-19.56-23.61-25.88-40.27
				C5133.99,1279.19,5130.66,1258.91,5130.3,1235z M5332.61,1160.92c4.31,0,8.6-0.78,12.9-2.35c4.28-1.56,8.17-4.12,11.64-7.64
				c3.48-3.53,6.24-8.32,8.31-14.4c2.06-6.07,3.03-13.61,2.9-22.63c-0.15-9.79-2.8-16.75-7.95-20.87
				c-5.16-4.11-11.26-6.17-18.32-6.17h-46.44c-15.68,0-30.39,5.79-44.13,17.34c-13.75,11.56-24.34,30.48-31.79,56.73H5332.61z"/>
			<path class="st1" d="M4146,896.98c0,32.01-12.98,61.02-33.97,82.01c-20.99,20.99-49.98,33.97-82.01,33.97h-272.08
				c0-32.03,12.98-61.02,33.97-82.01c20.99-20.99,49.98-33.97,82.01-33.97H4146z"/>
			<path class="st2" d="M4146,896.96c0,32.03-12.98,61.02-33.97,82.01c-20.99,20.99-50,33.97-82.01,33.97h-272.08
				c0,0,45.04-57.98,194.02-57.98C4100.94,954.96,4146,896.96,4146,896.96z"/>
			<path d="M4037.21,1072.8c0,32.03-12.98,61.02-33.97,82.01c-20.99,20.99-50,33.97-82.01,33.97h-163.29
				c0-32.01,12.98-61.03,33.97-82.01c20.99-20.99,49.98-33.97,82.01-33.97H4037.21z"/>
			<path d="M4073.48,1248.63c0,32.03-12.98,61.02-33.97,82.01c-20.99,20.99-49.98,33.97-82.01,33.97h-235.86
				c0-32.03,12.98-61.03,33.97-82.01c20.99-20.99,50-33.97,82.01-33.97H4073.48z"/>
		</g>
		<path d="M5008.3,1011.02h-87.01c-21.16,0-41.47,3.04-60.9,9.11c-19.44,6.08-37.06,16.07-52.84,29.98
			c-15.8,13.92-29.24,32.14-40.31,54.67c-11.08,22.54-18.84,50.26-23.29,83.18c-4.45,32.92-4.18,60.65,0.81,83.18
			c4.98,22.54,13.48,40.86,25.5,54.97c12,14.11,26.9,24.2,44.7,30.27c17.79,6.08,37.28,9.11,58.44,9.11h172.84l44.88-357.78
			c22.59-167.2,62.27-199.31,62.27-199.31C5042.52,863.48,5008.3,1011.02,5008.3,1011.02z M4970.73,1289.08h-77.01
			c-10.58,0-20.36-1.56-29.35-4.7c-8.98-3.13-16.48-8.53-22.51-16.17c-6.02-7.64-10.2-18.02-12.54-31.16
			c-2.34-13.13-2.19-29.49,0.46-49.09c2.65-19.59,6.9-35.86,12.76-48.79c5.86-12.93,12.85-23.31,20.96-31.16
			c8.11-7.83,17.08-13.32,26.92-16.46c9.83-3.13,20.04-4.7,30.62-4.7h77.01L4970.73,1289.08z"/>
		<linearGradient id="SVGID_1_" gradientUnits="userSpaceOnUse" x1="5177.0854" y1="679.9278" x2="5275.9863" y2="812.2081">
			<stop  offset="0" style="stop-color:#3AC7E8"/>
			<stop  offset="1" style="stop-color:#1895D3"/>
		</linearGradient>
		<path class="st3" d="M5126.35,985.06c0,0,112.94-5.83,190.79-157.35s193.23-134.04,193.23-134.04
			c-141.99-88.85-443.73-117-493.51,203.97c0,0,64.39-139.24,222.25-143.8C5239.11,753.84,5153.89,801,5126.35,985.06z"/>
	</g>
</g>
<g>
	<g>
		<g>
			<path d="M1123.49,896.97h85.83l-63.3,468.53h-85.83L1123.49,896.97z"/>
			<path d="M1230.05,1252.63c2.91-21.55,8.17-39.48,15.79-53.79c7.61-14.3,16.8-25.76,27.57-34.39
				c10.76-8.61,22.96-14.79,36.6-18.52c13.63-3.72,27.89-5.58,42.79-5.58h132.86c1.13-19.99-5.12-33.89-18.76-41.74
				c-13.64-7.83-30.65-11.76-51.03-11.76h-140.5l10.25-75.84h149.91c20.77,0,40.14,2.35,58.13,7.05
				c17.97,4.7,33.21,12.35,45.7,22.93c12.48,10.58,21.69,24.4,27.62,41.45c5.93,17.05,7.2,38.12,3.81,63.2l-29.7,219.86h-218.69
				c-14.9,0-28.64-1.96-41.24-5.88c-12.61-3.91-23.11-10.29-31.51-19.11c-8.42-8.82-14.48-20.47-18.2-34.98
				C1227.7,1291.05,1227.24,1273.41,1230.05,1252.63z M1315.88,1252.63c-1.85,13.72,0.48,23.22,7.02,28.51
				c6.53,5.29,14.89,7.94,25.09,7.94h117.57l9.93-73.49h-117.57c-10.2,0-19.28,2.75-27.27,8.23
				C1322.65,1229.32,1317.73,1238.92,1315.88,1252.63z"/>
			<path d="M2014.3,1235c-0.21-14.11,0.74-29.78,2.83-47.03c4.21-32.92,11.35-60.64,21.4-83.18c10.04-22.53,22.32-40.76,36.81-54.67
				c14.49-13.91,30.6-23.9,48.35-29.98c17.74-6.07,36.41-9.11,56.01-9.11h68.78c12.14,0,23.44,1.57,33.87,4.7
				c10.43,3.14,19.52,8.04,27.26,14.7c7.74,6.67,13.84,15.39,18.32,26.16c4.47,10.78,6.82,24.01,7.06,39.68
				c0.4,26.66-2.71,48.99-9.29,67.02c-6.59,18.03-15.3,32.43-26.11,43.21c-10.82,10.78-23.24,18.43-37.28,22.93
				c-14.04,4.51-28.12,6.76-42.23,6.76H2097.8c3.03,19.99,9.71,33.8,20.01,41.44c10.3,7.64,22.31,11.46,36.03,11.46h138.74
				l-9.45,76.42h-147.56c-16.85,0-32.57-2.35-47.13-7.06c-14.57-4.7-27.32-12.14-38.25-22.34c-10.93-10.19-19.55-23.61-25.88-40.27
				C2017.99,1279.19,2014.66,1258.91,2014.3,1235z M2216.61,1160.92c4.31,0,8.6-0.78,12.9-2.35c4.28-1.56,8.17-4.12,11.64-7.64
				c3.48-3.53,6.24-8.32,8.31-14.4c2.06-6.07,3.03-13.61,2.9-22.63c-0.15-9.79-2.8-16.75-7.95-20.87
				c-5.16-4.11-11.26-6.17-18.32-6.17h-46.44c-15.68,0-30.39,5.79-44.13,17.34c-13.75,11.56-24.34,30.48-31.79,56.73H2216.61z"/>
			<path class="st4" d="M1030,896.98c0,32.01-12.98,61.02-33.97,82.01c-20.99,20.99-49.98,33.97-82.01,33.97H641.93
				c0-32.03,12.98-61.02,33.97-82.01c20.99-20.99,49.98-33.97,82.01-33.97H1030z"/>
			<path class="st5" d="M1030,896.96c0,32.03-12.98,61.02-33.97,82.01c-20.99,20.99-50,33.97-82.01,33.97H641.93
				c0,0,45.04-57.98,194.02-57.98S1030,896.96,1030,896.96z"/>
			<path d="M921.21,1072.8c0,32.03-12.98,61.02-33.97,82.01c-20.99,20.99-50,33.97-82.01,33.97H641.93
				c0-32.01,12.98-61.03,33.97-82.01c20.99-20.99,49.98-33.97,82.01-33.97H921.21z"/>
			<path d="M957.48,1248.63c0,32.03-12.98,61.02-33.97,82.01c-20.99,20.99-49.98,33.97-82.01,33.97H605.64
				c0-32.03,12.98-61.03,33.97-82.01c20.99-20.99,50-33.97,82.01-33.97H957.48z"/>
		</g>
		<path d="M1892.3,1011.02h-87.01c-21.16,0-41.47,3.04-60.9,9.11c-19.44,6.08-37.06,16.07-52.84,29.98
			c-15.8,13.92-29.24,32.14-40.31,54.67c-11.08,22.54-18.84,50.26-23.29,83.18c-4.45,32.92-4.18,60.65,0.81,83.18
			c4.98,22.54,13.48,40.86,25.5,54.97c12,14.11,26.9,24.2,44.7,30.27c17.79,6.08,37.28,9.11,58.44,9.11h172.84l44.88-357.78
			c22.59-167.2,62.27-199.31,62.27-199.31C1926.52,863.48,1892.3,1011.02,1892.3,1011.02z M1854.73,1289.08h-77.01
			c-10.58,0-20.36-1.56-29.35-4.7c-8.98-3.13-16.48-8.53-22.51-16.17c-6.02-7.64-10.2-18.02-12.54-31.16
			c-2.34-13.13-2.19-29.49,0.46-49.09c2.65-19.59,6.9-35.86,12.76-48.79c5.86-12.93,12.85-23.31,20.96-31.16
			c8.11-7.83,17.08-13.32,26.91-16.46c9.83-3.13,20.04-4.7,30.62-4.7h77.01L1854.73,1289.08z"/>
		<linearGradient id="SVGID_2_" gradientUnits="userSpaceOnUse" x1="2061.0854" y1="679.9278" x2="2159.9866" y2="812.2081">
			<stop  offset="0" style="stop-color:#41BD4B"/>
			<stop  offset="1" style="stop-color:#1A8920"/>
		</linearGradient>
		<path class="st6" d="M2010.35,985.06c0,0,112.94-5.83,190.79-157.35s193.23-134.04,193.23-134.04
			c-141.99-88.85-443.73-117-493.51,203.97c0,0,64.39-139.24,222.25-143.8C2123.11,753.84,2037.89,801,2010.35,985.06z"/>
	</g>
</g>
<g>
	<g>
		<g>
			<path d="M4239.64,2921.3h85.83l-63.3,468.53h-85.83L4239.64,2921.3z"/>
			<path d="M4346.2,3276.96c2.91-21.55,8.17-39.48,15.79-53.79c7.61-14.3,16.8-25.76,27.57-34.39c10.76-8.61,22.96-14.79,36.6-18.52
				c13.63-3.72,27.89-5.58,42.79-5.58h132.86c1.13-19.99-5.12-33.89-18.76-41.74c-13.64-7.83-30.65-11.76-51.03-11.76h-140.5
				l10.25-75.84h149.91c20.77,0,40.14,2.35,58.13,7.05c17.97,4.7,33.21,12.35,45.7,22.93c12.48,10.58,21.69,24.4,27.62,41.45
				c5.93,17.05,7.2,38.12,3.81,63.2l-29.71,219.86h-218.69c-14.9,0-28.64-1.96-41.24-5.88c-12.61-3.91-23.11-10.29-31.51-19.11
				c-8.42-8.82-14.48-20.47-18.2-34.98C4343.85,3315.37,4343.39,3297.74,4346.2,3276.96z M4432.03,3276.96
				c-1.85,13.72,0.48,23.22,7.02,28.51c6.53,5.29,14.89,7.94,25.09,7.94h117.57l9.93-73.49h-117.57c-10.2,0-19.28,2.75-27.27,8.23
				C4438.8,3253.65,4433.88,3263.25,4432.03,3276.96z"/>
			<path d="M5130.46,3259.32c-0.21-14.11,0.74-29.78,2.83-47.03c4.21-32.92,11.35-60.64,21.4-83.18
				c10.04-22.53,22.32-40.76,36.81-54.67c14.49-13.91,30.6-23.9,48.35-29.98c17.74-6.07,36.41-9.11,56.01-9.11h68.78
				c12.14,0,23.44,1.57,33.87,4.7c10.42,3.14,19.52,8.04,27.26,14.7c7.74,6.67,13.84,15.39,18.32,26.16
				c4.47,10.78,6.82,24.01,7.06,39.68c0.4,26.66-2.71,48.99-9.29,67.02c-6.59,18.03-15.3,32.43-26.11,43.21
				c-10.82,10.78-23.24,18.43-37.28,22.93c-14.04,4.51-28.12,6.76-42.23,6.76h-122.28c3.03,19.99,9.71,33.8,20.01,41.44
				c10.3,7.64,22.31,11.46,36.03,11.46h138.74l-9.45,76.42h-147.56c-16.85,0-32.57-2.35-47.13-7.06
				c-14.57-4.7-27.32-12.14-38.25-22.34c-10.93-10.19-19.55-23.61-25.88-40.27C5134.15,3303.52,5130.81,3283.23,5130.46,3259.32z
				 M5332.77,3185.25c4.31,0,8.6-0.78,12.9-2.35c4.28-1.56,8.17-4.12,11.64-7.64c3.48-3.53,6.24-8.32,8.31-14.4
				c2.06-6.07,3.03-13.61,2.9-22.63c-0.15-9.79-2.8-16.75-7.95-20.87c-5.16-4.11-11.26-6.17-18.32-6.17h-46.44
				c-15.68,0-30.39,5.79-44.13,17.34c-13.75,11.56-24.34,30.48-31.79,56.73H5332.77z"/>
			<path class="st1" d="M4146.15,2921.31c0,32.01-12.98,61.02-33.97,82.01c-20.99,20.99-49.98,33.97-82.01,33.97h-272.08
				c0-32.03,12.98-61.02,33.97-82.01c20.99-20.99,49.98-33.97,82.01-33.97H4146.15z"/>
			<path class="st2" d="M4146.15,2921.29c0,32.03-12.98,61.02-33.97,82.01c-20.99,20.99-50,33.97-82.01,33.97h-272.08
				c0,0,45.04-57.98,194.02-57.98S4146.15,2921.29,4146.15,2921.29z"/>
			<path d="M4037.36,3097.13c0,32.03-12.98,61.02-33.97,82.01c-20.99,20.99-50,33.97-82.01,33.97h-163.29
				c0-32.01,12.98-61.03,33.97-82.01c20.99-20.99,49.98-33.97,82.01-33.97H4037.36z"/>
			<path d="M4073.64,3272.95c0,32.03-12.98,61.02-33.97,82.01c-20.99,20.99-49.98,33.97-82.01,33.97h-235.86
				c0-32.03,12.98-61.03,33.97-82.01c20.99-20.99,50-33.97,82.01-33.97H4073.64z"/>
		</g>
		<path d="M5008.45,3035.35h-87.01c-21.16,0-41.47,3.04-60.9,9.11c-19.44,6.08-37.06,16.07-52.84,29.98
			c-15.8,13.92-29.24,32.14-40.31,54.67c-11.08,22.54-18.84,50.26-23.29,83.18c-4.45,32.92-4.18,60.65,0.81,83.18
			c4.98,22.54,13.48,40.86,25.5,54.97c12,14.11,26.9,24.2,44.7,30.27c17.79,6.08,37.27,9.11,58.44,9.11h172.84l44.88-357.78
			c22.59-167.2,62.27-199.31,62.27-199.31C5042.67,2887.81,5008.45,3035.35,5008.45,3035.35z M4970.89,3313.41h-77.01
			c-10.58,0-20.36-1.56-29.35-4.7c-8.98-3.13-16.48-8.53-22.51-16.17c-6.02-7.64-10.2-18.02-12.54-31.16
			c-2.34-13.13-2.19-29.49,0.46-49.09c2.65-19.59,6.9-35.86,12.76-48.79c5.86-12.93,12.85-23.31,20.96-31.16
			c8.11-7.83,17.08-13.32,26.92-16.46c9.83-3.13,20.04-4.7,30.62-4.7h77.01L4970.89,3313.41z"/>
		<linearGradient id="SVGID_3_" gradientUnits="userSpaceOnUse" x1="5177.2397" y1="2704.2551" x2="5276.1406" y2="2836.5356">
			<stop  offset="0" style="stop-color:#3AC7E8"/>
			<stop  offset="1" style="stop-color:#1895D3"/>
		</linearGradient>
		<path class="st7" d="M5126.5,3009.39c0,0,112.94-5.83,190.79-157.35c77.85-151.52,193.23-134.04,193.23-134.04
			c-141.99-88.85-443.73-117-493.51,203.97c0,0,64.39-139.24,222.25-143.8C5239.26,2778.17,5154.05,2825.33,5126.5,3009.39z"/>
	</g>
	<g>
		
			<linearGradient id="SVGID_4_" gradientUnits="userSpaceOnUse" x1="3759.8684" y1="3448.0403" x2="3759.8684" y2="3569.2803" gradientTransform="matrix(1 7.974698e-03 -7.974698e-03 1 27.5179 -11.5825)">
			<stop  offset="0" style="stop-color:#3AC7E8"/>
			<stop  offset="1" style="stop-color:#27292B"/>
		</linearGradient>
		<path class="st8" d="M3722.3,3459.89l23.7,0.19l-0.66,83.09l51.34,0.41l-0.15,19.31l-75.04-0.6L3722.3,3459.89z"/>
		
			<linearGradient id="SVGID_5_" gradientUnits="userSpaceOnUse" x1="3924.0281" y1="3447.5522" x2="3924.0281" y2="3568.7922" gradientTransform="matrix(1 7.974698e-03 -7.974698e-03 1 27.5179 -11.5825)">
			<stop  offset="0" style="stop-color:#3AC7E8"/>
			<stop  offset="1" style="stop-color:#27292B"/>
		</linearGradient>
		<path class="st9" d="M3946.81,3541.65l-47.54-0.38l-9.24,21.87l-24.28-0.19l46.46-102.03l23.41,0.19l44.97,102.76l-24.87-0.2
			L3946.81,3541.65z M3939.5,3523.6l-15.92-39.33l-16.55,39.07L3939.5,3523.6z"/>
		
			<linearGradient id="SVGID_6_" gradientUnits="userSpaceOnUse" x1="4097.4702" y1="3447.145" x2="4097.4702" y2="3568.385" gradientTransform="matrix(1 7.974698e-03 -7.974698e-03 1 27.5179 -11.5825)">
			<stop  offset="0" style="stop-color:#3AC7E8"/>
			<stop  offset="1" style="stop-color:#27292B"/>
		</linearGradient>
		<path class="st10" d="M4144.37,3462.36l-0.82,102.39l-19.46-0.16l-50.55-62.57l-0.5,62.17l-23.41-0.19l0.82-102.39l19.6,0.16
			l50.41,62.57l0.5-62.17L4144.37,3462.36z"/>
		
			<linearGradient id="SVGID_7_" gradientUnits="userSpaceOnUse" x1="4265.8052" y1="3446.8396" x2="4265.8052" y2="3568.0796" gradientTransform="matrix(1 7.974698e-03 -7.974698e-03 1 27.5179 -11.5825)">
			<stop  offset="0" style="stop-color:#3AC7E8"/>
			<stop  offset="1" style="stop-color:#27292B"/>
		</linearGradient>
		<path class="st11" d="M4214.26,3462.62l46.52,0.37c11.12,0.09,20.92,2.29,29.42,6.6c8.5,4.31,15.08,10.34,19.75,18.08
			c4.67,7.74,6.96,16.73,6.88,26.97c-0.08,10.24-2.52,19.19-7.31,26.86c-4.79,7.67-11.47,13.59-20.04,17.76
			c-8.57,4.18-18.41,6.22-29.53,6.13l-46.52-0.37L4214.26,3462.62z M4258.95,3545.92c10.24,0.08,18.43-2.71,24.57-8.36
			c6.14-5.66,9.25-13.36,9.33-23.11c0.08-9.75-2.91-17.5-8.96-23.26c-6.05-5.75-14.19-8.67-24.43-8.75l-21.65-0.17l-0.51,63.48
			L4258.95,3545.92z"/>
		
			<linearGradient id="SVGID_8_" gradientUnits="userSpaceOnUse" x1="4429.2646" y1="3446.4226" x2="4429.2646" y2="3567.6626" gradientTransform="matrix(1 7.974698e-03 -7.974698e-03 1 27.5179 -11.5825)">
			<stop  offset="0" style="stop-color:#3AC7E8"/>
			<stop  offset="1" style="stop-color:#27292B"/>
		</linearGradient>
		<path class="st12" d="M4404.05,3564.58c-7.54-2.25-13.59-5.16-18.14-8.7l8.19-17.78c4.36,3.25,9.56,5.88,15.59,7.88
			c6.03,2,12.07,3.02,18.12,3.07c6.73,0.05,11.71-0.91,14.94-2.88c3.23-1.97,4.86-4.62,4.89-7.93c0.02-2.44-0.92-4.47-2.8-6.09
			c-1.89-1.62-4.32-2.93-7.28-3.93c-2.97-1-6.98-2.1-12.04-3.31c-7.79-1.91-14.16-3.82-19.12-5.71c-4.96-1.89-9.2-4.9-12.73-9.03
			c-3.53-4.12-5.26-9.6-5.21-16.42c0.05-5.95,1.7-11.32,4.96-16.13s8.14-8.59,14.65-11.37c6.51-2.78,14.44-4.13,23.8-4.05
			c6.53,0.05,12.92,0.89,19.14,2.49c6.23,1.61,11.67,3.9,16.33,6.86l-7.46,17.93c-9.42-5.44-18.86-8.2-28.31-8.27
			c-6.63-0.05-11.54,0.98-14.73,3.1c-3.19,2.12-4.79,4.94-4.82,8.45c-0.03,3.51,1.78,6.14,5.42,7.87c3.64,1.74,9.21,3.46,16.71,5.18
			c7.79,1.92,14.16,3.82,19.12,5.71c4.96,1.89,9.2,4.85,12.73,8.88c3.53,4.03,5.27,9.45,5.21,16.28
			c-0.05,5.85-1.72,11.18-5.03,15.98c-3.31,4.8-8.24,8.59-14.79,11.37c-6.56,2.78-14.51,4.13-23.88,4.05
			C4419.4,3567.99,4411.59,3566.83,4404.05,3564.58z"/>
		
			<linearGradient id="SVGID_9_" gradientUnits="userSpaceOnUse" x1="4589.5952" y1="3446.0095" x2="4589.5952" y2="3567.2495" gradientTransform="matrix(1 7.974698e-03 -7.974698e-03 1 27.5179 -11.5825)">
			<stop  offset="0" style="stop-color:#3AC7E8"/>
			<stop  offset="1" style="stop-color:#27292B"/>
		</linearGradient>
		<path class="st13" d="M4567.04,3561.95c-8.4-4.6-14.98-10.95-19.74-19.03s-7.1-17.19-7.02-27.34c0.08-10.14,2.57-19.21,7.46-27.22
			c4.89-8.01,11.57-14.24,20.04-18.71c8.47-4.47,17.97-6.66,28.5-6.58c8.87,0.07,16.88,1.7,24.03,4.87
			c7.14,3.18,13.13,7.71,17.96,13.6l-15.33,13.92c-6.86-8.05-15.41-12.12-25.65-12.2c-6.34-0.05-12.01,1.29-17,4.03
			c-5,2.74-8.9,6.59-11.72,11.54c-2.82,4.95-4.25,10.6-4.3,16.93c-0.05,6.34,1.3,12.01,4.03,17c2.74,5,6.58,8.9,11.54,11.72
			c4.95,2.82,10.6,4.25,16.94,4.3c10.24,0.08,18.85-3.9,25.84-11.94l15.1,14.16c-4.93,5.91-11.01,10.4-18.25,13.46
			c-7.24,3.06-15.3,4.56-24.17,4.49C4584.85,3568.9,4575.43,3566.55,4567.04,3561.95z"/>
		
			<linearGradient id="SVGID_10_" gradientUnits="userSpaceOnUse" x1="4765.6245" y1="3445.5151" x2="4765.6245" y2="3566.7551" gradientTransform="matrix(1 7.974698e-03 -7.974698e-03 1 27.5179 -11.5825)">
			<stop  offset="0" style="stop-color:#3AC7E8"/>
			<stop  offset="1" style="stop-color:#27292B"/>
		</linearGradient>
		<path class="st14" d="M4788.4,3546.33l-47.54-0.38l-9.24,21.87l-24.28-0.19l46.46-102.03l23.41,0.19l44.97,102.76l-24.87-0.2
			L4788.4,3546.33z M4781.08,3528.28l-15.92-39.33l-16.55,39.07L4781.08,3528.28z"/>
		
			<linearGradient id="SVGID_11_" gradientUnits="userSpaceOnUse" x1="4936.5059" y1="3445.1079" x2="4936.5059" y2="3566.3477" gradientTransform="matrix(1 7.974698e-03 -7.974698e-03 1 27.5179 -11.5825)">
			<stop  offset="0" style="stop-color:#3AC7E8"/>
			<stop  offset="1" style="stop-color:#27292B"/>
		</linearGradient>
		<path class="st15" d="M4959.96,3471.36c6.65,3.08,11.76,7.41,15.33,13c3.56,5.59,5.31,12.18,5.25,19.79
			c-0.06,7.51-1.92,14.05-5.57,19.63c-3.65,5.58-8.83,9.83-15.53,12.75c-6.71,2.92-14.59,4.35-23.66,4.27l-20.63-0.16l-0.23,28.23
			l-23.7-0.19l0.82-102.39l44.32,0.35C4945.44,3466.72,4953.3,3468.29,4959.96,3471.36z M4950.89,3517.01
			c3.73-3.04,5.62-7.39,5.66-13.05c0.05-5.75-1.77-10.18-5.45-13.28c-3.68-3.1-9.08-4.68-16.2-4.74l-19.31-0.15l-0.28,35.55
			l19.31,0.15C4941.73,3521.54,4947.16,3520.05,4950.89,3517.01z"/>
		
			<linearGradient id="SVGID_12_" gradientUnits="userSpaceOnUse" x1="5062.3433" y1="3444.7454" x2="5062.3433" y2="3565.9851" gradientTransform="matrix(1 7.974698e-03 -7.974698e-03 1 27.5179 -11.5825)">
			<stop  offset="0" style="stop-color:#3AC7E8"/>
			<stop  offset="1" style="stop-color:#27292B"/>
		</linearGradient>
		<path class="st16" d="M5050.43,3467.19l23.7,0.19l-0.82,102.39l-23.7-0.19L5050.43,3467.19z"/>
		
			<linearGradient id="SVGID_13_" gradientUnits="userSpaceOnUse" x1="5191.0361" y1="3444.4399" x2="5191.0361" y2="3565.6799" gradientTransform="matrix(1 7.974698e-03 -7.974698e-03 1 27.5179 -11.5825)">
			<stop  offset="0" style="stop-color:#3AC7E8"/>
			<stop  offset="1" style="stop-color:#27292B"/>
		</linearGradient>
		<path class="st17" d="M5237.92,3468.38l-0.82,102.39l-19.46-0.16l-50.55-62.57l-0.5,62.17l-23.41-0.19l0.82-102.39l19.6,0.16
			l50.41,62.57l0.5-62.17L5237.92,3468.38z"/>
		
			<linearGradient id="SVGID_14_" gradientUnits="userSpaceOnUse" x1="5357.0625" y1="3444.0864" x2="5357.0625" y2="3565.3264" gradientTransform="matrix(1 7.974698e-03 -7.974698e-03 1 27.5179 -11.5825)">
			<stop  offset="0" style="stop-color:#3AC7E8"/>
			<stop  offset="1" style="stop-color:#27292B"/>
		</linearGradient>
		<path class="st18" d="M5382.64,3518.77l21.65,0.17l-0.33,41.54c-5.59,4.15-12.05,7.32-19.38,9.5c-7.33,2.18-14.71,3.25-22.12,3.19
			c-10.63-0.08-20.17-2.43-28.62-7.03c-8.45-4.6-15.05-10.95-19.82-19.03s-7.1-17.19-7.02-27.34c0.08-10.14,2.57-19.21,7.46-27.22
			c4.89-8.01,11.65-14.24,20.26-18.71c8.62-4.47,18.29-6.66,29.02-6.57c8.97,0.07,17.1,1.65,24.39,4.73
			c7.29,3.08,13.4,7.52,18.33,13.31l-15.32,13.92c-7.25-7.76-16.05-11.69-26.38-11.77c-6.53-0.05-12.35,1.27-17.44,3.96
			c-5.09,2.69-9.07,6.51-11.94,11.46c-2.87,4.95-4.33,10.64-4.38,17.08c-0.05,6.34,1.32,12.01,4.11,17c2.79,5,6.68,8.9,11.68,11.72
			c5,2.82,10.72,4.25,17.15,4.31c6.82,0.05,12.98-1.36,18.47-4.24L5382.64,3518.77z"/>
	</g>
</g>
<g>
	<g>
		<g>
			<path d="M1123.64,2921.3h85.83l-63.3,468.53h-85.83L1123.64,2921.3z"/>
			<path d="M1230.2,3276.96c2.91-21.55,8.17-39.48,15.79-53.79c7.61-14.3,16.8-25.76,27.57-34.39c10.76-8.61,22.96-14.79,36.6-18.52
				c13.63-3.72,27.89-5.58,42.79-5.58h132.86c1.13-19.99-5.12-33.89-18.76-41.74c-13.64-7.83-30.65-11.76-51.03-11.76h-140.5
				l10.25-75.84h149.91c20.77,0,40.14,2.35,58.13,7.05c17.97,4.7,33.21,12.35,45.7,22.93c12.48,10.58,21.69,24.4,27.62,41.45
				c5.93,17.05,7.2,38.12,3.81,63.2l-29.7,219.86h-218.69c-14.9,0-28.64-1.96-41.24-5.88c-12.61-3.91-23.11-10.29-31.51-19.11
				c-8.42-8.82-14.48-20.47-18.2-34.98C1227.85,3315.37,1227.39,3297.74,1230.2,3276.96z M1316.03,3276.96
				c-1.85,13.72,0.48,23.22,7.02,28.51c6.53,5.29,14.89,7.94,25.09,7.94h117.57l9.93-73.49h-117.57c-10.2,0-19.28,2.75-27.27,8.23
				C1322.8,3253.65,1317.88,3263.25,1316.03,3276.96z"/>
			<path d="M2014.46,3259.32c-0.21-14.11,0.74-29.78,2.83-47.03c4.21-32.92,11.35-60.64,21.4-83.18
				c10.04-22.53,22.32-40.76,36.81-54.67c14.49-13.91,30.6-23.9,48.35-29.98c17.74-6.07,36.41-9.11,56.01-9.11h68.78
				c12.14,0,23.44,1.57,33.87,4.7c10.43,3.14,19.52,8.04,27.26,14.7c7.74,6.67,13.84,15.39,18.32,26.16
				c4.47,10.78,6.82,24.01,7.06,39.68c0.4,26.66-2.71,48.99-9.29,67.02c-6.59,18.03-15.3,32.43-26.11,43.21
				c-10.82,10.78-23.24,18.43-37.28,22.93c-14.04,4.51-28.12,6.76-42.23,6.76h-122.28c3.03,19.99,9.71,33.8,20.01,41.44
				c10.3,7.64,22.31,11.46,36.03,11.46h138.74l-9.45,76.42h-147.56c-16.85,0-32.57-2.35-47.13-7.06
				c-14.57-4.7-27.32-12.14-38.25-22.34c-10.93-10.19-19.55-23.61-25.88-40.27C2018.15,3303.52,2014.81,3283.23,2014.46,3259.32z
				 M2216.77,3185.25c4.31,0,8.6-0.78,12.9-2.35c4.28-1.56,8.17-4.12,11.64-7.64c3.48-3.53,6.24-8.32,8.31-14.4
				c2.06-6.07,3.03-13.61,2.9-22.63c-0.15-9.79-2.8-16.75-7.95-20.87c-5.16-4.11-11.26-6.17-18.32-6.17h-46.44
				c-15.68,0-30.39,5.79-44.13,17.34c-13.75,11.56-24.34,30.48-31.79,56.73H2216.77z"/>
			<path class="st4" d="M1030.15,2921.31c0,32.01-12.98,61.02-33.97,82.01c-20.99,20.99-49.98,33.97-82.01,33.97H642.09
				c0-32.03,12.98-61.02,33.97-82.01c20.99-20.99,49.98-33.97,82.01-33.97H1030.15z"/>
			<path class="st5" d="M1030.15,2921.29c0,32.03-12.98,61.02-33.97,82.01c-20.99,20.99-50,33.97-82.01,33.97H642.09
				c0,0,45.04-57.98,194.02-57.98S1030.15,2921.29,1030.15,2921.29z"/>
			<path d="M921.36,3097.13c0,32.03-12.98,61.02-33.97,82.01c-20.99,20.99-50,33.97-82.01,33.97H642.09
				c0-32.01,12.98-61.03,33.97-82.01c20.99-20.99,49.98-33.97,82.01-33.97H921.36z"/>
			<path d="M957.64,3272.95c0,32.03-12.98,61.02-33.97,82.01c-20.99,20.99-49.98,33.97-82.01,33.97H605.79
				c0-32.03,12.98-61.03,33.97-82.01c20.99-20.99,50-33.97,82.01-33.97H957.64z"/>
		</g>
		<path d="M1892.45,3035.35h-87.01c-21.16,0-41.47,3.04-60.9,9.11c-19.44,6.08-37.06,16.07-52.84,29.98
			c-15.8,13.92-29.24,32.14-40.31,54.67c-11.08,22.54-18.84,50.26-23.29,83.18c-4.45,32.92-4.18,60.65,0.81,83.18
			c4.98,22.54,13.48,40.86,25.5,54.97c12,14.11,26.9,24.2,44.7,30.27c17.79,6.08,37.28,9.11,58.44,9.11h172.84l44.88-357.78
			c22.59-167.2,62.27-199.31,62.27-199.31C1926.67,2887.81,1892.45,3035.35,1892.45,3035.35z M1854.89,3313.41h-77.01
			c-10.58,0-20.36-1.56-29.35-4.7c-8.98-3.13-16.48-8.53-22.51-16.17c-6.02-7.64-10.2-18.02-12.54-31.16
			c-2.34-13.13-2.19-29.49,0.46-49.09c2.65-19.59,6.9-35.86,12.76-48.79c5.86-12.93,12.85-23.31,20.96-31.16
			c8.11-7.83,17.08-13.32,26.91-16.46c9.83-3.13,20.04-4.7,30.62-4.7h77.01L1854.89,3313.41z"/>
		<linearGradient id="SVGID_15_" gradientUnits="userSpaceOnUse" x1="2061.2395" y1="2704.2551" x2="2160.1406" y2="2836.5356">
			<stop  offset="0" style="stop-color:#41BD4B"/>
			<stop  offset="1" style="stop-color:#1A8920"/>
		</linearGradient>
		<path class="st19" d="M2010.5,3009.39c0,0,112.94-5.83,190.79-157.35c77.85-151.52,193.23-134.04,193.23-134.04
			c-141.99-88.85-443.73-117-493.51,203.97c0,0,64.39-139.24,222.25-143.8C2123.26,2778.17,2038.05,2825.33,2010.5,3009.39z"/>
	</g>
	<g>
		
			<linearGradient id="SVGID_16_" gradientUnits="userSpaceOnUse" x1="643.9675" y1="3472.8894" x2="643.9675" y2="3594.1294" gradientTransform="matrix(1 7.974698e-03 -7.974698e-03 1 27.5179 -11.5825)">
			<stop  offset="0" style="stop-color:#41BD4B"/>
			<stop  offset="1" style="stop-color:#27292B"/>
		</linearGradient>
		<path class="st20" d="M606.3,3459.89l23.7,0.19l-0.66,83.09l51.34,0.41l-0.15,19.31l-75.04-0.6L606.3,3459.89z"/>
		
			<linearGradient id="SVGID_17_" gradientUnits="userSpaceOnUse" x1="808.1273" y1="3472.4016" x2="808.1273" y2="3593.6414" gradientTransform="matrix(1 7.974698e-03 -7.974698e-03 1 27.5179 -11.5825)">
			<stop  offset="0" style="stop-color:#41BD4B"/>
			<stop  offset="1" style="stop-color:#27292B"/>
		</linearGradient>
		<path class="st21" d="M830.81,3541.65l-47.54-0.38l-9.24,21.87l-24.28-0.19l46.46-102.03l23.41,0.19l44.97,102.76l-24.87-0.2
			L830.81,3541.65z M823.5,3523.6l-15.92-39.33l-16.55,39.07L823.5,3523.6z"/>
		
			<linearGradient id="SVGID_18_" gradientUnits="userSpaceOnUse" x1="981.5693" y1="3471.9941" x2="981.5693" y2="3593.2341" gradientTransform="matrix(1 7.974698e-03 -7.974698e-03 1 27.5179 -11.5825)">
			<stop  offset="0" style="stop-color:#41BD4B"/>
			<stop  offset="1" style="stop-color:#27292B"/>
		</linearGradient>
		<path class="st22" d="M1028.37,3462.36l-0.82,102.39l-19.46-0.16l-50.55-62.57l-0.5,62.17l-23.41-0.19l0.82-102.39l19.6,0.16
			l50.41,62.57l0.5-62.17L1028.37,3462.36z"/>
		
			<linearGradient id="SVGID_19_" gradientUnits="userSpaceOnUse" x1="1149.9044" y1="3471.6887" x2="1149.9044" y2="3592.9287" gradientTransform="matrix(1 7.974698e-03 -7.974698e-03 1 27.5179 -11.5825)">
			<stop  offset="0" style="stop-color:#41BD4B"/>
			<stop  offset="1" style="stop-color:#27292B"/>
		</linearGradient>
		<path class="st23" d="M1098.26,3462.62l46.52,0.37c11.12,0.09,20.92,2.29,29.42,6.6c8.5,4.31,15.08,10.34,19.75,18.08
			c4.67,7.74,6.96,16.73,6.88,26.97s-2.52,19.19-7.31,26.86c-4.79,7.67-11.47,13.59-20.04,17.76c-8.57,4.18-18.41,6.22-29.53,6.13
			l-46.52-0.37L1098.26,3462.62z M1142.95,3545.92c10.24,0.08,18.43-2.71,24.57-8.36c6.14-5.66,9.25-13.36,9.33-23.11
			c0.08-9.75-2.91-17.5-8.96-23.26c-6.05-5.75-14.19-8.67-24.43-8.75l-21.65-0.17l-0.51,63.48L1142.95,3545.92z"/>
		
			<linearGradient id="SVGID_20_" gradientUnits="userSpaceOnUse" x1="1313.3635" y1="3471.2717" x2="1313.3635" y2="3592.5117" gradientTransform="matrix(1 7.974698e-03 -7.974698e-03 1 27.5179 -11.5825)">
			<stop  offset="0" style="stop-color:#41BD4B"/>
			<stop  offset="1" style="stop-color:#27292B"/>
		</linearGradient>
		<path class="st24" d="M1288.05,3564.58c-7.54-2.25-13.59-5.16-18.14-8.7l8.19-17.78c4.36,3.25,9.56,5.88,15.59,7.88
			c6.03,2,12.07,3.02,18.12,3.07c6.73,0.05,11.71-0.91,14.94-2.88c3.23-1.97,4.86-4.62,4.89-7.93c0.02-2.44-0.92-4.47-2.8-6.09
			c-1.89-1.62-4.32-2.93-7.28-3.93c-2.97-1-6.98-2.1-12.04-3.31c-7.79-1.91-14.16-3.82-19.12-5.71c-4.96-1.89-9.2-4.9-12.73-9.03
			c-3.53-4.12-5.26-9.6-5.21-16.42c0.05-5.95,1.7-11.32,4.96-16.13s8.14-8.59,14.65-11.37c6.51-2.78,14.44-4.13,23.8-4.05
			c6.53,0.05,12.91,0.89,19.14,2.49c6.23,1.61,11.67,3.9,16.33,6.86l-7.46,17.93c-9.42-5.44-18.86-8.2-28.31-8.27
			c-6.63-0.05-11.54,0.98-14.73,3.1c-3.19,2.12-4.79,4.94-4.82,8.45c-0.03,3.51,1.78,6.14,5.42,7.87c3.64,1.74,9.21,3.46,16.71,5.18
			c7.79,1.92,14.16,3.82,19.12,5.71c4.96,1.89,9.2,4.85,12.73,8.88c3.53,4.03,5.27,9.45,5.21,16.28
			c-0.05,5.85-1.72,11.18-5.03,15.98c-3.31,4.8-8.24,8.59-14.79,11.37c-6.56,2.78-14.51,4.13-23.88,4.05
			C1303.4,3567.99,1295.59,3566.83,1288.05,3564.58z"/>
		
			<linearGradient id="SVGID_21_" gradientUnits="userSpaceOnUse" x1="1473.6942" y1="3470.8589" x2="1473.6942" y2="3592.0986" gradientTransform="matrix(1 7.974698e-03 -7.974698e-03 1 27.5179 -11.5825)">
			<stop  offset="0" style="stop-color:#41BD4B"/>
			<stop  offset="1" style="stop-color:#27292B"/>
		</linearGradient>
		<path class="st25" d="M1451.04,3561.95c-8.4-4.6-14.98-10.95-19.74-19.03s-7.1-17.19-7.02-27.34c0.08-10.14,2.57-19.21,7.46-27.22
			c4.89-8.01,11.57-14.24,20.04-18.71c8.47-4.47,17.97-6.66,28.5-6.58c8.87,0.07,16.88,1.7,24.03,4.87
			c7.14,3.18,13.13,7.71,17.96,13.6l-15.33,13.92c-6.86-8.05-15.41-12.12-25.65-12.2c-6.34-0.05-12.01,1.29-17,4.03
			c-5,2.74-8.9,6.59-11.72,11.54c-2.82,4.95-4.25,10.6-4.3,16.93c-0.05,6.34,1.3,12.01,4.03,17c2.74,5,6.59,8.9,11.54,11.72
			c4.95,2.82,10.6,4.25,16.94,4.3c10.24,0.08,18.85-3.9,25.84-11.94l15.1,14.16c-4.93,5.91-11.01,10.4-18.25,13.46
			c-7.24,3.06-15.3,4.56-24.17,4.49C1468.85,3568.9,1459.43,3566.55,1451.04,3561.95z"/>
		
			<linearGradient id="SVGID_22_" gradientUnits="userSpaceOnUse" x1="1649.7234" y1="3470.3643" x2="1649.7234" y2="3591.6042" gradientTransform="matrix(1 7.974698e-03 -7.974698e-03 1 27.5179 -11.5825)">
			<stop  offset="0" style="stop-color:#41BD4B"/>
			<stop  offset="1" style="stop-color:#27292B"/>
		</linearGradient>
		<path class="st26" d="M1672.4,3546.33l-47.54-0.38l-9.24,21.87l-24.28-0.19l46.46-102.03l23.41,0.19l44.97,102.76l-24.87-0.2
			L1672.4,3546.33z M1665.08,3528.28l-15.92-39.33l-16.55,39.07L1665.08,3528.28z"/>
		
			<linearGradient id="SVGID_23_" gradientUnits="userSpaceOnUse" x1="1820.6052" y1="3469.957" x2="1820.6052" y2="3591.1968" gradientTransform="matrix(1 7.974698e-03 -7.974698e-03 1 27.5179 -11.5825)">
			<stop  offset="0" style="stop-color:#41BD4B"/>
			<stop  offset="1" style="stop-color:#27292B"/>
		</linearGradient>
		<path class="st27" d="M1843.96,3471.36c6.65,3.08,11.76,7.41,15.33,13c3.56,5.59,5.31,12.18,5.25,19.79
			c-0.06,7.51-1.92,14.05-5.57,19.63c-3.65,5.58-8.83,9.83-15.53,12.75c-6.71,2.92-14.59,4.35-23.66,4.27l-20.63-0.16l-0.23,28.23
			l-23.7-0.19l0.82-102.39l44.32,0.35C1829.44,3466.72,1837.3,3468.29,1843.96,3471.36z M1834.89,3517.01
			c3.73-3.04,5.62-7.39,5.66-13.05c0.05-5.75-1.77-10.18-5.45-13.28c-3.68-3.1-9.08-4.68-16.2-4.74l-19.31-0.15l-0.28,35.55
			l19.31,0.15C1825.73,3521.54,1831.16,3520.05,1834.89,3517.01z"/>
		
			<linearGradient id="SVGID_24_" gradientUnits="userSpaceOnUse" x1="1946.4423" y1="3469.5945" x2="1946.4423" y2="3590.8342" gradientTransform="matrix(1 7.974698e-03 -7.974698e-03 1 27.5179 -11.5825)">
			<stop  offset="0" style="stop-color:#41BD4B"/>
			<stop  offset="1" style="stop-color:#27292B"/>
		</linearGradient>
		<path class="st28" d="M1934.43,3467.19l23.7,0.19l-0.82,102.39l-23.7-0.19L1934.43,3467.19z"/>
		
			<linearGradient id="SVGID_25_" gradientUnits="userSpaceOnUse" x1="2075.135" y1="3469.2891" x2="2075.135" y2="3590.5291" gradientTransform="matrix(1 7.974698e-03 -7.974698e-03 1 27.5179 -11.5825)">
			<stop  offset="0" style="stop-color:#41BD4B"/>
			<stop  offset="1" style="stop-color:#27292B"/>
		</linearGradient>
		<path class="st29" d="M2121.92,3468.38l-0.82,102.39l-19.46-0.16l-50.55-62.57l-0.5,62.17l-23.41-0.19l0.82-102.39l19.6,0.16
			l50.41,62.57l0.5-62.17L2121.92,3468.38z"/>
		
			<linearGradient id="SVGID_26_" gradientUnits="userSpaceOnUse" x1="2241.1616" y1="3468.9355" x2="2241.1616" y2="3590.1755" gradientTransform="matrix(1 7.974698e-03 -7.974698e-03 1 27.5179 -11.5825)">
			<stop  offset="0" style="stop-color:#41BD4B"/>
			<stop  offset="1" style="stop-color:#27292B"/>
		</linearGradient>
		<path class="st30" d="M2266.64,3518.77l21.65,0.17l-0.33,41.54c-5.59,4.15-12.05,7.32-19.39,9.5c-7.33,2.18-14.7,3.25-22.11,3.19
			c-10.63-0.08-20.17-2.43-28.62-7.03c-8.45-4.6-15.05-10.95-19.82-19.03c-4.76-8.08-7.1-17.19-7.02-27.34
			c0.08-10.14,2.57-19.21,7.46-27.22c4.89-8.01,11.64-14.24,20.26-18.71c8.62-4.47,18.29-6.66,29.02-6.57
			c8.97,0.07,17.1,1.65,24.39,4.73c7.29,3.08,13.4,7.52,18.33,13.31l-15.32,13.92c-7.25-7.76-16.05-11.69-26.38-11.77
			c-6.53-0.05-12.35,1.27-17.44,3.96c-5.09,2.69-9.07,6.51-11.94,11.46c-2.87,4.95-4.33,10.64-4.38,17.08
			c-0.05,6.34,1.32,12.01,4.11,17c2.79,5,6.68,8.9,11.68,11.72c5,2.82,10.72,4.25,17.15,4.31c6.82,0.05,12.98-1.36,18.47-4.24
			L2266.64,3518.77z"/>
	</g>
</g>
</svg>
