<?xml version="1.0" encoding="utf-8"?>
<!-- Generator: Adobe Illustrator 24.0.1, SVG Export Plug-In . SVG Version: 6.00 Build 0)  -->
<svg version="1.1" id="Layer_1" xmlns="http://www.w3.org/2000/svg" xmlns:xlink="http://www.w3.org/1999/xlink" x="0px" y="0px"
	 viewBox="0 0 3000 2000" style="enable-background:new 0 0 3000 2000;" xml:space="preserve">
<style type="text/css">
	.st0{fill:#3AC7E8;}
	.st1{fill:#1895D3;}
	.st2{fill:url(#SVGID_1_);}
	.st3{fill:url(#SVGID_2_);}
	.st4{fill:url(#SVGID_3_);}
	.st5{fill:url(#SVGID_4_);}
	.st6{fill:url(#SVGID_5_);}
	.st7{fill:url(#SVGID_6_);}
	.st8{fill:url(#SVGID_7_);}
	.st9{fill:url(#SVGID_8_);}
	.st10{fill:url(#SVGID_9_);}
	.st11{fill:url(#SVGID_10_);}
	.st12{fill:url(#SVGID_11_);}
	.st13{fill:#41BD4B;}
	.st14{fill:#1A8920;}
	.st15{fill:url(#SVGID_12_);}
	.st16{fill:url(#SVGID_13_);}
	.st17{fill:url(#SVGID_14_);}
	.st18{fill:url(#SVGID_15_);}
	.st19{fill:url(#SVGID_16_);}
	.st20{fill:url(#SVGID_17_);}
	.st21{fill:url(#SVGID_18_);}
	.st22{fill:url(#SVGID_19_);}
	.st23{fill:url(#SVGID_20_);}
	.st24{fill:url(#SVGID_21_);}
	.st25{fill:url(#SVGID_22_);}
</style>
<g>
	<g>
		<path d="M1191.54,696.24h76.33l-56.3,416.68h-76.33L1191.54,696.24z"/>
		<path d="M1286.31,1012.54c2.59-19.16,7.27-35.11,14.04-47.84c6.77-12.72,14.94-22.91,24.52-30.58
			c9.57-7.66,20.42-13.15,32.55-16.47c12.12-3.31,24.8-4.97,38.05-4.97h118.16c1.01-17.77-4.55-30.14-16.68-37.12
			c-12.13-6.97-27.26-10.46-45.38-10.46h-124.95l9.11-67.44h133.32c18.47,0,35.7,2.09,51.69,6.27
			c15.98,4.18,29.53,10.98,40.64,20.39c11.1,9.41,19.29,21.7,24.56,36.86c5.27,15.16,6.4,33.9,3.39,56.2l-26.42,195.53h-194.49
			c-13.25,0-25.47-1.74-36.68-5.23c-11.21-3.48-20.55-9.15-28.03-16.99c-7.49-7.84-12.88-18.21-16.19-31.11
			C1284.22,1046.7,1283.81,1031.02,1286.31,1012.54z M1362.64,1012.54c-1.65,12.21,0.43,20.65,6.25,25.36
			c5.81,4.71,13.24,7.06,22.31,7.06h104.56l8.83-65.35h-104.56c-9.07,0-17.15,2.44-24.25,7.32
			C1368.66,991.81,1364.29,1000.34,1362.64,1012.54z"/>
		<path d="M1983.77,996.85c-0.19-12.55,0.65-26.48,2.52-41.82c3.75-29.28,10.09-53.93,19.03-73.98
			c8.93-20.04,19.85-36.25,32.74-48.62c12.89-12.37,27.21-21.26,43-26.66c15.78-5.4,32.38-8.1,49.81-8.1h61.17
			c10.8,0,20.84,1.4,30.12,4.18c9.27,2.79,17.36,7.15,24.24,13.07c6.88,5.93,12.31,13.68,16.29,23.26
			c3.98,9.59,6.07,21.35,6.28,35.29c0.35,23.71-2.41,43.57-8.27,59.6c-5.86,16.04-13.61,28.84-23.22,38.43
			c-9.62,9.59-20.67,16.39-33.16,20.39c-12.49,4.01-25.01,6.01-37.55,6.01h-108.75c2.7,17.77,8.63,30.06,17.8,36.86
			c9.16,6.8,19.84,10.2,32.04,10.2h123.38l-8.4,67.96h-131.23c-14.99,0-28.96-2.09-41.92-6.27c-12.96-4.18-24.3-10.8-34.02-19.87
			c-9.72-9.06-17.39-20.99-23.01-35.81C1987.05,1036.16,1984.09,1018.12,1983.77,996.85z M2163.69,930.98
			c3.83,0,7.65-0.69,11.47-2.09c3.81-1.39,7.26-3.66,10.35-6.8c3.09-3.14,5.55-7.4,7.39-12.81c1.83-5.4,2.7-12.11,2.58-20.13
			c-0.13-8.71-2.49-14.9-7.07-18.56c-4.59-3.66-10.01-5.49-16.29-5.49h-41.3c-13.94,0-27.03,5.15-39.24,15.42
			c-12.22,10.29-21.65,27.11-28.27,50.45H2163.69z"/>
		<path class="st0" d="M1108.4,696.24c0,28.47-11.55,54.27-30.21,72.94c-18.67,18.67-44.45,30.21-72.94,30.21H763.28
			c0-28.49,11.55-54.27,30.21-72.94c18.66-18.66,44.45-30.21,72.94-30.21H1108.4z"/>
		<path class="st1" d="M1108.4,696.23c0,28.49-11.55,54.27-30.21,72.94c-18.66,18.66-44.46,30.21-72.94,30.21H763.28
			c0,0,40.05-51.57,172.55-51.57S1108.4,696.23,1108.4,696.23z"/>
		<path d="M1011.65,852.61c0,28.49-11.55,54.27-30.21,72.94c-18.66,18.67-44.47,30.21-72.94,30.21H763.28
			c0-28.47,11.55-54.27,30.21-72.94c18.66-18.67,44.45-30.21,72.94-30.21H1011.65z"/>
		<path d="M1043.91,1008.97c0,28.49-11.55,54.27-30.21,72.94c-18.66,18.67-44.45,30.21-72.94,30.21H731
			c0-28.49,11.55-54.27,30.21-72.94c18.66-18.67,44.46-30.21,72.94-30.21H1043.91z"/>
		<path d="M1875.27,797.66h-77.38c-18.82,0-36.88,2.7-54.16,8.1c-17.29,5.41-32.96,14.3-46.99,26.66
			c-14.05,12.38-26,28.58-35.85,48.62c-9.86,20.05-16.76,44.7-20.71,73.98c-3.96,29.28-3.72,53.94,0.72,73.98
			c4.43,20.05,11.99,36.34,22.67,48.88c10.67,12.55,23.93,21.52,39.75,26.92c15.82,5.41,33.15,8.1,51.97,8.1h153.71l52.27-416.69
			h-71.41L1875.27,797.66z M1841.86,1044.95h-68.49c-9.41,0-18.11-1.39-26.1-4.18c-7.99-2.79-14.66-7.58-20.02-14.38
			c-5.35-6.8-9.07-16.03-11.16-27.71c-2.08-11.67-1.95-26.22,0.41-43.66c2.35-17.42,6.14-31.89,11.35-43.39
			c5.21-11.5,11.43-20.73,18.64-27.71c7.22-6.97,15.19-11.84,23.94-14.64c8.74-2.79,17.82-4.18,27.23-4.18h68.49L1841.86,1044.95z"
			/>
	</g>
	<g>
		
			<linearGradient id="SVGID_1_" gradientUnits="userSpaceOnUse" x1="764.1998" y1="1214.5228" x2="764.1998" y2="1322.1418" gradientTransform="matrix(1 7.974698e-03 -7.974698e-03 1 10.6435 -11.6497)">
			<stop  offset="0" style="stop-color:#3AC7E8"/>
			<stop  offset="1" style="stop-color:#27292B"/>
		</linearGradient>
		<path class="st2" d="M731.87,1203.21l21.03,0.17l-0.59,73.75l45.57,0.36l-0.14,17.14l-66.61-0.53L731.87,1203.21z"/>
		
			<linearGradient id="SVGID_2_" gradientUnits="userSpaceOnUse" x1="909.9168" y1="1214.0897" x2="909.9168" y2="1321.7089" gradientTransform="matrix(1 7.974698e-03 -7.974698e-03 1 10.6435 -11.6497)">
			<stop  offset="0" style="stop-color:#3AC7E8"/>
			<stop  offset="1" style="stop-color:#27292B"/>
		</linearGradient>
		<path class="st3" d="M931.16,1275.79l-42.2-0.34l-8.21,19.41l-21.55-0.17l41.24-90.57l20.78,0.17l39.92,91.21l-22.07-0.18
			L931.16,1275.79z M924.67,1259.76l-14.13-34.91l-14.69,34.68L924.67,1259.76z"/>
		
			<linearGradient id="SVGID_3_" gradientUnits="userSpaceOnUse" x1="1063.8734" y1="1213.7281" x2="1063.8734" y2="1321.3472" gradientTransform="matrix(1 7.974698e-03 -7.974698e-03 1 10.6435 -11.6497)">
			<stop  offset="0" style="stop-color:#3AC7E8"/>
			<stop  offset="1" style="stop-color:#27292B"/>
		</linearGradient>
		<path class="st4" d="M1106.53,1205.41l-0.72,90.89l-17.27-0.14l-44.87-55.54l-0.44,55.18l-20.78-0.17l0.72-90.89l17.4,0.14
			l44.75,55.54l0.44-55.18L1106.53,1205.41z"/>
		
			<linearGradient id="SVGID_4_" gradientUnits="userSpaceOnUse" x1="1213.2968" y1="1213.457" x2="1213.2968" y2="1321.0762" gradientTransform="matrix(1 7.974698e-03 -7.974698e-03 1 10.6435 -11.6497)">
			<stop  offset="0" style="stop-color:#3AC7E8"/>
			<stop  offset="1" style="stop-color:#27292B"/>
		</linearGradient>
		<path class="st5" d="M1168.56,1205.63l41.29,0.33c9.87,0.08,18.57,2.03,26.12,5.86c7.54,3.83,13.39,9.18,17.53,16.05
			c4.14,6.87,6.18,14.85,6.11,23.94c-0.07,9.09-2.24,17.04-6.49,23.84c-4.25,6.81-10.18,12.06-17.79,15.76
			c-7.61,3.71-16.34,5.52-26.21,5.44l-41.29-0.33L1168.56,1205.63z M1208.23,1279.57c9.09,0.07,16.36-2.4,21.81-7.42
			c5.45-5.02,8.21-11.86,8.28-20.52c0.07-8.65-2.58-15.54-7.95-20.64c-5.37-5.11-12.6-7.7-21.69-7.77l-19.22-0.15l-0.45,56.35
			L1208.23,1279.57z"/>
		
			<linearGradient id="SVGID_5_" gradientUnits="userSpaceOnUse" x1="1358.3918" y1="1213.0869" x2="1358.3918" y2="1320.7061" gradientTransform="matrix(1 7.974698e-03 -7.974698e-03 1 10.6435 -11.6497)">
			<stop  offset="0" style="stop-color:#3AC7E8"/>
			<stop  offset="1" style="stop-color:#27292B"/>
		</linearGradient>
		<path class="st6" d="M1337.03,1296.14c-6.69-2-12.06-4.58-16.11-7.73l7.27-15.78c3.87,2.89,8.48,5.22,13.84,6.99
			c5.35,1.78,10.71,2.68,16.08,2.72c5.97,0.05,10.39-0.8,13.27-2.56c2.87-1.75,4.32-4.1,4.34-7.04c0.02-2.16-0.81-3.97-2.49-5.41
			c-1.68-1.44-3.83-2.6-6.46-3.49c-2.64-0.89-6.2-1.87-10.69-2.94c-6.91-1.7-12.57-3.39-16.97-5.07c-4.4-1.68-8.17-4.35-11.3-8.01
			c-3.13-3.66-4.67-8.52-4.62-14.58c0.04-5.28,1.51-10.05,4.4-14.31s7.22-7.62,13-10.09c5.78-2.46,12.82-3.66,21.13-3.6
			c5.8,0.05,11.46,0.79,16.99,2.21c5.53,1.43,10.36,3.46,14.5,6.09l-6.62,15.92c-8.36-4.83-16.74-7.28-25.13-7.34
			c-5.89-0.05-10.25,0.87-13.07,2.75c-2.83,1.88-4.26,4.38-4.28,7.5c-0.02,3.12,1.58,5.45,4.81,6.99c3.23,1.54,8.18,3.07,14.83,4.6
			c6.91,1.7,12.57,3.39,16.97,5.07c4.4,1.68,8.17,4.31,11.3,7.88c3.13,3.57,4.67,8.39,4.63,14.45c-0.04,5.19-1.53,9.92-4.46,14.18
			c-2.94,4.26-7.31,7.63-13.13,10.09c-5.82,2.46-12.88,3.66-21.19,3.6C1350.66,1299.17,1343.72,1298.14,1337.03,1296.14z"/>
		
			<linearGradient id="SVGID_6_" gradientUnits="userSpaceOnUse" x1="1500.7102" y1="1212.7202" x2="1500.7102" y2="1320.3394" gradientTransform="matrix(1 7.974698e-03 -7.974698e-03 1 10.6435 -11.6497)">
			<stop  offset="0" style="stop-color:#3AC7E8"/>
			<stop  offset="1" style="stop-color:#27292B"/>
		</linearGradient>
		<path class="st7" d="M1481.71,1293.81c-7.46-4.09-13.3-9.72-17.53-16.89c-4.23-7.18-6.31-15.26-6.23-24.27
			c0.07-9,2.28-17.06,6.62-24.16c4.34-7.11,10.27-12.64,17.79-16.61c7.52-3.97,15.95-5.91,25.3-5.84
			c7.88,0.06,14.99,1.51,21.33,4.33c6.34,2.82,11.65,6.85,15.94,12.07l-13.6,12.36c-6.09-7.15-13.68-10.76-22.77-10.83
			c-5.63-0.04-10.66,1.15-15.09,3.58c-4.43,2.43-7.9,5.85-10.4,10.24c-2.5,4.39-3.78,9.41-3.82,15.03
			c-0.04,5.63,1.15,10.66,3.58,15.09c2.43,4.43,5.85,7.9,10.24,10.4c4.4,2.5,9.4,3.78,15.03,3.82c9.09,0.07,16.73-3.46,22.94-10.6
			l13.41,12.57c-4.37,5.25-9.77,9.23-16.2,11.95c-6.43,2.72-13.58,4.05-21.46,3.98C1497.52,1299.97,1489.16,1297.89,1481.71,1293.81
			z"/>
		
			<linearGradient id="SVGID_7_" gradientUnits="userSpaceOnUse" x1="1656.9633" y1="1212.2814" x2="1656.9633" y2="1319.9005" gradientTransform="matrix(1 7.974698e-03 -7.974698e-03 1 10.6435 -11.6497)">
			<stop  offset="0" style="stop-color:#3AC7E8"/>
			<stop  offset="1" style="stop-color:#27292B"/>
		</linearGradient>
		<path class="st8" d="M1678.2,1279.94l-42.2-0.34l-8.2,19.41l-21.55-0.17l41.24-90.57l20.78,0.17l39.92,91.21l-22.07-0.18
			L1678.2,1279.94z M1671.71,1263.91l-14.13-34.91l-14.69,34.68L1671.71,1263.91z"/>
		
			<linearGradient id="SVGID_8_" gradientUnits="userSpaceOnUse" x1="1808.6471" y1="1211.9198" x2="1808.6471" y2="1319.5389" gradientTransform="matrix(1 7.974698e-03 -7.974698e-03 1 10.6435 -11.6497)">
			<stop  offset="0" style="stop-color:#3AC7E8"/>
			<stop  offset="1" style="stop-color:#27292B"/>
		</linearGradient>
		<path class="st9" d="M1830.49,1213.4c5.91,2.73,10.44,6.58,13.61,11.54c3.16,4.96,4.72,10.81,4.66,17.57
			c-0.05,6.67-1.7,12.47-4.94,17.43c-3.24,4.95-7.84,8.72-13.79,11.32c-5.95,2.6-12.95,3.86-21,3.79l-18.31-0.15l-0.2,25.06
			l-21.03-0.17l0.72-90.89l39.34,0.31C1817.6,1209.27,1824.58,1210.67,1830.49,1213.4z M1822.44,1253.91
			c3.31-2.7,4.99-6.56,5.03-11.58c0.04-5.11-1.57-9.04-4.84-11.79c-3.27-2.75-8.06-4.15-14.38-4.2l-17.14-0.14l-0.25,31.55
			l17.14,0.14C1814.31,1257.94,1819.12,1256.61,1822.44,1253.91z"/>
		
			<linearGradient id="SVGID_9_" gradientUnits="userSpaceOnUse" x1="1920.3469" y1="1211.598" x2="1920.3469" y2="1319.2172" gradientTransform="matrix(1 7.974698e-03 -7.974698e-03 1 10.6435 -11.6497)">
			<stop  offset="0" style="stop-color:#3AC7E8"/>
			<stop  offset="1" style="stop-color:#27292B"/>
		</linearGradient>
		<path class="st10" d="M1910.79,1209.69l21.03,0.17l-0.72,90.89l-21.03-0.17L1910.79,1209.69z"/>
		
			<linearGradient id="SVGID_10_" gradientUnits="userSpaceOnUse" x1="2034.5815" y1="1211.3269" x2="2034.5815" y2="1318.946" gradientTransform="matrix(1 7.974698e-03 -7.974698e-03 1 10.6435 -11.6497)">
			<stop  offset="0" style="stop-color:#3AC7E8"/>
			<stop  offset="1" style="stop-color:#27292B"/>
		</linearGradient>
		<path class="st11" d="M2077.22,1210.75l-0.72,90.89l-17.27-0.14l-44.87-55.54l-0.44,55.18l-20.78-0.17l0.72-90.89l17.4,0.14
			l44.75,55.54l0.44-55.18L2077.22,1210.75z"/>
		
			<linearGradient id="SVGID_11_" gradientUnits="userSpaceOnUse" x1="2181.9558" y1="1211.0132" x2="2181.9558" y2="1318.6323" gradientTransform="matrix(1 7.974698e-03 -7.974698e-03 1 10.6435 -11.6497)">
			<stop  offset="0" style="stop-color:#3AC7E8"/>
			<stop  offset="1" style="stop-color:#27292B"/>
		</linearGradient>
		<path class="st12" d="M2205.68,1255.48l19.22,0.15l-0.29,36.88c-4.96,3.68-10.7,6.49-17.21,8.43c-6.51,1.94-13.05,2.88-19.63,2.83
			c-9.44-0.08-17.9-2.16-25.4-6.24c-7.5-4.09-13.36-9.72-17.59-16.89c-4.23-7.18-6.31-15.26-6.23-24.27
			c0.07-9,2.28-17.06,6.62-24.16c4.34-7.11,10.34-12.64,17.99-16.61c7.65-3.96,16.23-5.91,25.76-5.83
			c7.96,0.06,15.18,1.46,21.65,4.2c6.47,2.74,11.89,6.67,16.27,11.82l-13.6,12.36c-6.44-6.89-14.25-10.37-23.42-10.45
			c-5.8-0.05-10.96,1.13-15.48,3.51c-4.52,2.39-8.05,5.78-10.6,10.17c-2.55,4.39-3.84,9.45-3.89,15.16
			c-0.04,5.63,1.17,10.66,3.65,15.09c2.47,4.43,5.93,7.9,10.37,10.41c4.44,2.5,9.51,3.78,15.23,3.82
			c6.06,0.05,11.52-1.21,16.39-3.77L2205.68,1255.48z"/>
	</g>
</g>
<g>
	<g>
		<path d="M4477.54,696.24h76.33l-56.3,416.68h-76.33L4477.54,696.24z"/>
		<path d="M4572.31,1012.54c2.59-19.16,7.27-35.11,14.04-47.84c6.77-12.72,14.94-22.91,24.52-30.58
			c9.57-7.66,20.42-13.15,32.55-16.47c12.12-3.31,24.8-4.97,38.05-4.97h118.16c1.01-17.77-4.55-30.14-16.68-37.12
			c-12.13-6.97-27.26-10.46-45.38-10.46h-124.95l9.11-67.44h133.32c18.47,0,35.7,2.09,51.69,6.27
			c15.99,4.18,29.53,10.98,40.64,20.39c11.1,9.41,19.29,21.7,24.56,36.86c5.27,15.16,6.4,33.9,3.39,56.2l-26.42,195.53h-194.49
			c-13.25,0-25.47-1.74-36.68-5.23c-11.21-3.48-20.55-9.15-28.03-16.99c-7.49-7.84-12.88-18.21-16.19-31.11
			C4570.22,1046.7,4569.81,1031.02,4572.31,1012.54z M4648.64,1012.54c-1.65,12.21,0.43,20.65,6.25,25.36
			c5.81,4.71,13.24,7.06,22.31,7.06h104.56l8.83-65.35h-104.56c-9.07,0-17.15,2.44-24.25,7.32
			C4654.66,991.81,4650.29,1000.34,4648.64,1012.54z"/>
		<path d="M5269.77,996.85c-0.19-12.55,0.65-26.48,2.52-41.82c3.75-29.28,10.09-53.93,19.03-73.98
			c8.93-20.04,19.85-36.25,32.74-48.62c12.89-12.37,27.21-21.26,43-26.66c15.78-5.4,32.38-8.1,49.81-8.1h61.17
			c10.8,0,20.84,1.4,30.12,4.18c9.27,2.79,17.36,7.15,24.24,13.07c6.88,5.93,12.31,13.68,16.29,23.26
			c3.98,9.59,6.07,21.35,6.28,35.29c0.35,23.71-2.41,43.57-8.27,59.6c-5.87,16.04-13.61,28.84-23.22,38.43
			c-9.62,9.59-20.67,16.39-33.16,20.39c-12.49,4.01-25.01,6.01-37.55,6.01h-108.75c2.7,17.77,8.63,30.06,17.8,36.86
			c9.16,6.8,19.84,10.2,32.04,10.2h123.38l-8.4,67.96h-131.23c-14.99,0-28.96-2.09-41.92-6.27c-12.96-4.18-24.3-10.8-34.02-19.87
			c-9.72-9.06-17.39-20.99-23.01-35.81C5273.05,1036.16,5270.09,1018.12,5269.77,996.85z M5449.69,930.98
			c3.83,0,7.65-0.69,11.47-2.09c3.81-1.39,7.26-3.66,10.35-6.8c3.09-3.14,5.55-7.4,7.39-12.81c1.83-5.4,2.7-12.11,2.58-20.13
			c-0.13-8.71-2.49-14.9-7.07-18.56c-4.59-3.66-10.01-5.49-16.29-5.49h-41.3c-13.94,0-27.03,5.15-39.24,15.42
			c-12.22,10.29-21.65,27.11-28.27,50.45H5449.69z"/>
		<path class="st13" d="M4394.4,696.24c0,28.47-11.55,54.27-30.21,72.94c-18.67,18.67-44.45,30.21-72.94,30.21h-241.97
			c0-28.49,11.55-54.27,30.21-72.94c18.66-18.66,44.45-30.21,72.94-30.21H4394.4z"/>
		<path class="st14" d="M4394.4,696.23c0,28.49-11.55,54.27-30.21,72.94c-18.66,18.66-44.46,30.21-72.94,30.21h-241.97
			c0,0,40.05-51.57,172.55-51.57S4394.4,696.23,4394.4,696.23z"/>
		<path d="M4297.65,852.61c0,28.49-11.55,54.27-30.21,72.94c-18.67,18.67-44.47,30.21-72.94,30.21h-145.22
			c0-28.47,11.55-54.27,30.21-72.94c18.67-18.67,44.45-30.21,72.94-30.21H4297.65z"/>
		<path d="M4329.91,1008.97c0,28.49-11.55,54.27-30.21,72.94c-18.67,18.67-44.45,30.21-72.94,30.21H4017
			c0-28.49,11.55-54.27,30.21-72.94c18.67-18.67,44.46-30.21,72.94-30.21H4329.91z"/>
		<path d="M5161.27,797.66h-77.38c-18.82,0-36.88,2.7-54.16,8.1c-17.29,5.41-32.96,14.3-47,26.66c-14.05,12.38-26,28.58-35.85,48.62
			c-9.86,20.05-16.76,44.7-20.71,73.98c-3.96,29.28-3.72,53.94,0.72,73.98c4.43,20.05,11.99,36.34,22.67,48.88
			c10.67,12.55,23.93,21.52,39.75,26.92c15.82,5.41,33.15,8.1,51.97,8.1h153.71l52.27-416.69h-71.41L5161.27,797.66z
			 M5127.86,1044.95h-68.49c-9.41,0-18.11-1.39-26.1-4.18c-7.99-2.79-14.66-7.58-20.02-14.38c-5.35-6.8-9.07-16.03-11.16-27.71
			c-2.08-11.67-1.95-26.22,0.41-43.66c2.35-17.42,6.14-31.89,11.35-43.39c5.21-11.5,11.43-20.73,18.64-27.71
			c7.22-6.97,15.19-11.84,23.94-14.64c8.74-2.79,17.82-4.18,27.23-4.18h68.49L5127.86,1044.95z"/>
	</g>
	<g>
		
			<linearGradient id="SVGID_12_" gradientUnits="userSpaceOnUse" x1="4050.0952" y1="1188.3179" x2="4050.0952" y2="1295.937" gradientTransform="matrix(1 7.974698e-03 -7.974698e-03 1 10.6435 -11.6497)">
			<stop  offset="0" style="stop-color:#41BD4B"/>
			<stop  offset="1" style="stop-color:#27292B"/>
		</linearGradient>
		<path class="st15" d="M4017.87,1203.21l21.03,0.17l-0.59,73.75l45.57,0.36l-0.14,17.14l-66.61-0.53L4017.87,1203.21z"/>
		
			<linearGradient id="SVGID_13_" gradientUnits="userSpaceOnUse" x1="4195.8125" y1="1187.8849" x2="4195.8125" y2="1295.5039" gradientTransform="matrix(1 7.974698e-03 -7.974698e-03 1 10.6435 -11.6497)">
			<stop  offset="0" style="stop-color:#41BD4B"/>
			<stop  offset="1" style="stop-color:#27292B"/>
		</linearGradient>
		<path class="st16" d="M4217.16,1275.79l-42.2-0.34l-8.21,19.41l-21.55-0.17l41.24-90.57l20.78,0.17l39.92,91.21l-22.07-0.18
			L4217.16,1275.79z M4210.67,1259.76l-14.13-34.91l-14.69,34.68L4210.67,1259.76z"/>
		
			<linearGradient id="SVGID_14_" gradientUnits="userSpaceOnUse" x1="4349.769" y1="1187.5232" x2="4349.769" y2="1295.1423" gradientTransform="matrix(1 7.974698e-03 -7.974698e-03 1 10.6435 -11.6497)">
			<stop  offset="0" style="stop-color:#41BD4B"/>
			<stop  offset="1" style="stop-color:#27292B"/>
		</linearGradient>
		<path class="st17" d="M4392.53,1205.41l-0.72,90.89l-17.27-0.14l-44.87-55.54l-0.44,55.18l-20.78-0.17l0.72-90.89l17.4,0.14
			l44.75,55.54l0.44-55.18L4392.53,1205.41z"/>
		
			<linearGradient id="SVGID_15_" gradientUnits="userSpaceOnUse" x1="4499.1924" y1="1187.2522" x2="4499.1924" y2="1294.8713" gradientTransform="matrix(1 7.974698e-03 -7.974698e-03 1 10.6435 -11.6497)">
			<stop  offset="0" style="stop-color:#41BD4B"/>
			<stop  offset="1" style="stop-color:#27292B"/>
		</linearGradient>
		<path class="st18" d="M4454.56,1205.63l41.29,0.33c9.87,0.08,18.57,2.03,26.12,5.86c7.54,3.83,13.39,9.18,17.53,16.05
			c4.14,6.87,6.18,14.85,6.11,23.94c-0.07,9.09-2.24,17.04-6.49,23.84c-4.25,6.81-10.18,12.06-17.79,15.76
			c-7.61,3.71-16.34,5.52-26.21,5.44l-41.29-0.33L4454.56,1205.63z M4494.23,1279.57c9.09,0.07,16.36-2.4,21.81-7.42
			c5.45-5.02,8.21-11.86,8.28-20.52c0.07-8.65-2.58-15.54-7.95-20.64c-5.37-5.11-12.6-7.7-21.69-7.77l-19.22-0.15l-0.45,56.35
			L4494.23,1279.57z"/>
		
			<linearGradient id="SVGID_16_" gradientUnits="userSpaceOnUse" x1="4644.2876" y1="1186.8821" x2="4644.2876" y2="1294.5012" gradientTransform="matrix(1 7.974698e-03 -7.974698e-03 1 10.6435 -11.6497)">
			<stop  offset="0" style="stop-color:#41BD4B"/>
			<stop  offset="1" style="stop-color:#27292B"/>
		</linearGradient>
		<path class="st19" d="M4623.03,1296.14c-6.69-2-12.06-4.58-16.11-7.73l7.27-15.78c3.87,2.89,8.48,5.22,13.84,6.99
			c5.35,1.78,10.71,2.68,16.08,2.72c5.97,0.05,10.4-0.8,13.27-2.56c2.87-1.75,4.32-4.1,4.34-7.04c0.02-2.16-0.81-3.97-2.49-5.41
			c-1.68-1.44-3.83-2.6-6.46-3.49c-2.64-0.89-6.2-1.87-10.69-2.94c-6.91-1.7-12.57-3.39-16.97-5.07c-4.4-1.68-8.17-4.35-11.3-8.01
			c-3.13-3.66-4.67-8.52-4.62-14.58c0.04-5.28,1.51-10.05,4.4-14.31s7.22-7.62,13-10.09c5.77-2.46,12.82-3.66,21.13-3.6
			c5.8,0.05,11.46,0.79,16.99,2.21c5.53,1.43,10.36,3.46,14.5,6.09l-6.62,15.92c-8.36-4.83-16.74-7.28-25.13-7.34
			c-5.89-0.05-10.25,0.87-13.07,2.75c-2.83,1.88-4.26,4.38-4.28,7.5c-0.02,3.12,1.58,5.45,4.81,6.99c3.23,1.54,8.18,3.07,14.83,4.6
			c6.91,1.7,12.57,3.39,16.97,5.07c4.4,1.68,8.17,4.31,11.3,7.88c3.13,3.57,4.67,8.39,4.63,14.45c-0.04,5.19-1.53,9.92-4.46,14.18
			c-2.94,4.26-7.31,7.63-13.13,10.09c-5.82,2.46-12.88,3.66-21.19,3.6C4636.66,1299.17,4629.72,1298.14,4623.03,1296.14z"/>
		
			<linearGradient id="SVGID_17_" gradientUnits="userSpaceOnUse" x1="4786.6055" y1="1186.5154" x2="4786.6055" y2="1294.1345" gradientTransform="matrix(1 7.974698e-03 -7.974698e-03 1 10.6435 -11.6497)">
			<stop  offset="0" style="stop-color:#41BD4B"/>
			<stop  offset="1" style="stop-color:#27292B"/>
		</linearGradient>
		<path class="st20" d="M4767.71,1293.81c-7.46-4.09-13.3-9.72-17.52-16.89c-4.23-7.18-6.31-15.26-6.23-24.27
			c0.07-9,2.28-17.06,6.62-24.16c4.34-7.11,10.27-12.64,17.79-16.61c7.52-3.97,15.95-5.91,25.3-5.84
			c7.88,0.06,14.99,1.51,21.33,4.33c6.34,2.82,11.65,6.85,15.94,12.07l-13.6,12.36c-6.09-7.15-13.68-10.76-22.77-10.83
			c-5.63-0.04-10.66,1.15-15.09,3.58c-4.43,2.43-7.9,5.85-10.4,10.24c-2.5,4.39-3.78,9.41-3.82,15.03
			c-0.04,5.63,1.15,10.66,3.58,15.09c2.43,4.43,5.85,7.9,10.24,10.4c4.4,2.5,9.4,3.78,15.03,3.82c9.09,0.07,16.73-3.46,22.94-10.6
			l13.41,12.57c-4.37,5.25-9.77,9.23-16.2,11.95c-6.43,2.72-13.58,4.05-21.46,3.98C4783.52,1299.97,4775.16,1297.89,4767.71,1293.81
			z"/>
		
			<linearGradient id="SVGID_18_" gradientUnits="userSpaceOnUse" x1="4942.8589" y1="1186.0765" x2="4942.8589" y2="1293.6956" gradientTransform="matrix(1 7.974698e-03 -7.974698e-03 1 10.6435 -11.6497)">
			<stop  offset="0" style="stop-color:#41BD4B"/>
			<stop  offset="1" style="stop-color:#27292B"/>
		</linearGradient>
		<path class="st21" d="M4964.2,1279.94l-42.2-0.34l-8.21,19.41l-21.55-0.17l41.24-90.57l20.78,0.17l39.92,91.21l-22.07-0.18
			L4964.2,1279.94z M4957.71,1263.91l-14.13-34.91l-14.69,34.68L4957.71,1263.91z"/>
		
			<linearGradient id="SVGID_19_" gradientUnits="userSpaceOnUse" x1="5094.5425" y1="1185.715" x2="5094.5425" y2="1293.334" gradientTransform="matrix(1 7.974698e-03 -7.974698e-03 1 10.6435 -11.6497)">
			<stop  offset="0" style="stop-color:#41BD4B"/>
			<stop  offset="1" style="stop-color:#27292B"/>
		</linearGradient>
		<path class="st22" d="M5116.49,1213.4c5.91,2.73,10.44,6.58,13.61,11.54c3.16,4.96,4.72,10.81,4.66,17.57
			c-0.05,6.67-1.7,12.47-4.94,17.43c-3.24,4.95-7.84,8.72-13.79,11.32c-5.95,2.6-12.95,3.86-21,3.79l-18.31-0.15l-0.2,25.06
			l-21.03-0.17l0.72-90.89l39.34,0.31C5103.6,1209.27,5110.58,1210.67,5116.49,1213.4z M5108.44,1253.91
			c3.31-2.7,4.99-6.56,5.03-11.58c0.04-5.11-1.57-9.04-4.84-11.79c-3.27-2.75-8.06-4.15-14.38-4.2l-17.14-0.14l-0.25,31.55
			l17.14,0.14C5100.31,1257.94,5105.12,1256.61,5108.44,1253.91z"/>
		
			<linearGradient id="SVGID_20_" gradientUnits="userSpaceOnUse" x1="5206.2427" y1="1185.3932" x2="5206.2427" y2="1293.0122" gradientTransform="matrix(1 7.974698e-03 -7.974698e-03 1 10.6435 -11.6497)">
			<stop  offset="0" style="stop-color:#41BD4B"/>
			<stop  offset="1" style="stop-color:#27292B"/>
		</linearGradient>
		<path class="st23" d="M5196.79,1209.69l21.03,0.17l-0.73,90.89l-21.03-0.17L5196.79,1209.69z"/>
		
			<linearGradient id="SVGID_21_" gradientUnits="userSpaceOnUse" x1="5320.4771" y1="1185.1221" x2="5320.4771" y2="1292.7412" gradientTransform="matrix(1 7.974698e-03 -7.974698e-03 1 10.6435 -11.6497)">
			<stop  offset="0" style="stop-color:#41BD4B"/>
			<stop  offset="1" style="stop-color:#27292B"/>
		</linearGradient>
		<path class="st24" d="M5363.22,1210.75l-0.73,90.89l-17.27-0.14l-44.88-55.54l-0.44,55.18l-20.78-0.17l0.73-90.89l17.4,0.14
			l44.75,55.54l0.44-55.18L5363.22,1210.75z"/>
		
			<linearGradient id="SVGID_22_" gradientUnits="userSpaceOnUse" x1="5467.8511" y1="1184.8083" x2="5467.8511" y2="1292.4275" gradientTransform="matrix(1 7.974698e-03 -7.974698e-03 1 10.6435 -11.6497)">
			<stop  offset="0" style="stop-color:#41BD4B"/>
			<stop  offset="1" style="stop-color:#27292B"/>
		</linearGradient>
		<path class="st25" d="M5491.68,1255.48l19.22,0.15l-0.29,36.88c-4.96,3.68-10.7,6.49-17.21,8.43c-6.51,1.94-13.05,2.88-19.63,2.83
			c-9.44-0.08-17.9-2.16-25.4-6.24c-7.5-4.09-13.36-9.72-17.59-16.89c-4.23-7.18-6.31-15.26-6.23-24.27
			c0.07-9,2.28-17.06,6.62-24.16c4.34-7.11,10.34-12.64,17.99-16.61c7.65-3.96,16.23-5.91,25.76-5.83
			c7.96,0.06,15.18,1.46,21.65,4.2c6.47,2.74,11.89,6.67,16.27,11.82l-13.6,12.36c-6.44-6.89-14.25-10.37-23.42-10.45
			c-5.8-0.05-10.96,1.13-15.48,3.51c-4.52,2.39-8.05,5.78-10.6,10.17c-2.55,4.39-3.84,9.45-3.89,15.16
			c-0.04,5.63,1.17,10.66,3.65,15.09c2.48,4.43,5.93,7.9,10.37,10.41c4.44,2.5,9.51,3.78,15.23,3.82
			c6.06,0.05,11.52-1.21,16.39-3.77L5491.68,1255.48z"/>
	</g>
</g>
</svg>
